{
.appVersion = "1141";
DisplayStrings = (
"/schwa"
);
copyright = "Digitized data copyright (C) 2010-2011, Google Corporation.";
customParameters = (
{
name = license;
value = "Licensed under the Apache License, Version 2.0";
},
{
name = licenseURL;
value = "http://www.apache.org/licenses/LICENSE-2.0";
},
{
name = vendorID;
value = "1ASC";
},
{
name = panose;
value = (
2,
11,
3,
6,
3,
5,
4,
2,
2,
4
);
},
{
name = unicodeRanges;
value = (
0,
1,
2,
3,
5,
6,
7,
9,
29,
30,
31,
32,
33,
35,
36,
38,
45,
62,
67,
69
);
},
{
name = codePageRanges;
value = (
1252,
1250,
1251,
1253,
1254,
1257,
1258
);
},
{
name = glyphOrder;
value = (
.notdef,
null,
nonmarkingreturn,
space,
exclam,
quotedbl,
numbersign,
dollar,
percent,
ampersand,
quotesingle,
parenleft,
parenright,
asterisk,
plus,
comma,
hyphen,
period,
slash,
zero,
one,
two,
three,
four,
five,
six,
seven,
eight,
nine,
colon,
semicolon,
less,
equal,
greater,
question,
at,
A,
B,
C,
D,
E,
F,
G,
H,
I.alt,
J,
K,
L,
M,
N,
O,
P,
Q,
R,
S,
T,
U,
V,
W,
X,
Y,
Z,
bracketleft,
backslash,
bracketright,
asciicircum,
underscore,
grave,
a,
b,
c,
d,
e,
f,
g,
h,
i,
j,
k,
l,
m,
n,
o,
p,
q,
r,
s,
t,
u,
v,
w,
x,
y,
z,
braceleft,
bar,
braceright,
asciitilde,
nonbreakingspace,
exclamdown,
cent,
sterling,
currency,
yen,
brokenbar,
section,
dieresis,
copyright,
ordfeminine,
guillemotleft,
logicalnot,
uni00AD,
registered,
overscore,
degree,
plusminus,
twosuperior,
threesuperior,
acute,
mu,
paragraph,
periodcentered,
cedilla,
onesuperior,
ordmasculine,
guillemotright,
onequarter,
onehalf,
threequarters,
questiondown,
Agrave,
Aacute,
Acircumflex,
Atilde,
Adieresis,
Aring,
AE,
Ccedilla,
Egrave,
Eacute,
Ecircumflex,
Edieresis,
Igrave.alt,
Iacute.alt,
Icircumflex.alt,
Idieresis.alt,
Eth,
Ntilde,
Ograve,
Oacute,
Ocircumflex,
Otilde,
Odieresis,
multiply,
Oslash,
Ugrave,
Uacute,
Ucircumflex,
Udieresis,
Yacute,
Thorn,
germandbls,
agrave,
aacute,
acircumflex,
atilde,
adieresis,
aring,
ae,
ccedilla,
egrave,
eacute,
ecircumflex,
edieresis,
igrave,
iacute,

glyphs = (
{
glyphname = .notdef;
lastChange = "2018-06-23 23:46:14 +0000";
layers = (
{
layerId = "A772B137-1B4D-4AF9-A163-8433B0F153CB";
paths = (
{
closed = 1;
nodes = (
"505 0 LINE",
"505 714 LINE",
"94 714 LINE",
"94 0 LINE"
);
},
{
closed = 1;
nodes = (
"454 663 LINE",
"454 51 LINE",
"145 51 LINE",
"145 663 LINE"
);
}
);
width = 600;
}
);
note = .notdef;
},
{
glyphname = exclam;
lastChange = "2018-06-23 23:46:14 +0000";
layers = (
{
layerId = "A772B137-1B4D-4AF9-A163-8433B0F153CB";
paths = (
{
closed = 1;
nodes = (
"91 714 LINE",
"105 184 LINE",
"135 184 LINE",
"149 714 LINE"
);
},
{
closed = 1;
nodes = (
"80 6 OFFCURVE",
"93 -10 OFFCURVE",
"119 -10 CURVE SMOOTH",
"146 -10 OFFCURVE",
"159 6 OFFCURVE",
"159 38 CURVE SMOOTH",
"159 70 OFFCURVE",
"146 86 OFFCURVE",
"119 86 CURVE SMOOTH",
"93 86 OFFCURVE",
"80 70 OFFCURVE",
"80 38 CURVE SMOOTH"
);
}
);
width = 240;
}
);
note = exclam;
unicode = 0021;
},
{
glyphname = quotedbl;
lastChange = "2018-06-23 23:46:14 +0000";
layers = (
{
layerId = "A772B137-1B4D-4AF9-A163-8433B0F153CB";
paths = (
{
closed = 1;
nodes = (
"81 456 LINE",
"111 456 LINE",
"127 714 LINE",
"65 714 LINE"
);
},
{
closed = 1;
nodes = (
"242 456 LINE",
"272 456 LINE",
"288 714 LINE",
"226 714 LINE"
);
}
);
width = 353;
}
);
note = quotedbl;
unicode = 0022;
},
{
glyphname = numbersign;
lastChange = "2018-06-23 23:46:14 +0000";
layers = (
{
layerId = "A772B137-1B4D-4AF9-A163-8433B0F153CB";
paths = (
{
closed = 1;
nodes = (
"619 492 LINE",
"480 492 LINE",
"523 714 LINE",
"481 714 LINE",
"438 492 LINE",
"260 492 LINE",
"303 714 LINE",
"259 714 LINE",
"217 492 LINE",
"65 492 LINE",
"65 453 LINE",
"210 453 LINE",
"173 259 LINE",
"27 259 LINE",
"27 220 LINE",
"165 220 LINE",
"123 0 LINE",
"166 0 LINE",
"208 220 LINE",
"384 220 LINE",
"341 0 LINE",
"385 0 LINE",
"427 220 LINE",
"583 220 LINE",
"583 259 LINE",
"435 259 LINE",
"472 453 LINE",
"619 453 LINE"
);
},
{
closed = 1;
nodes = (
"430 453 LINE",
"392 259 LINE",
"215 259 LINE",
"253 453 LINE"
);
}
);
width = 646;
}
);
note = numbersign;
unicode = 0023;
},
{
glyphname = dollar;
lastChange = "2018-06-23 23:46:14 +0000";
layers = (
{
layerId = "A772B137-1B4D-4AF9-A163-8433B0F153CB";
paths = (
{
closed = 1;
nodes = (
"484 297 OFFCURVE",
"440 342 OFFCURVE",
"302 385 CURVE",
"302 622 LINE",
"359 619 OFFCURVE",
"411 607 OFFCURVE",
"457 587 CURVE",
"473 631 LINE",
"423 651 OFFCURVE",
"366 663 OFFCURVE",
"302 666 CURVE",
"302 759 LINE",
"262 759 LINE",
"262 665 LINE",
"158 652 OFFCURVE",
"92 593 OFFCURVE",
"92 512 CURVE SMOOTH",
"92 484 OFFCURVE",
"97 460 OFFCURVE",
"107 441 CURVE SMOOTH",
"128 402 OFFCURVE",
"168 376 OFFCURVE",
"262 347 CURVE",
"262 99 LINE",
"204 99 OFFCURVE",
"129 118 OFFCURVE",
"80 141 CURVE",
"80 91 LINE",
"122 71 OFFCURVE",
"202 57 OFFCURVE",
"262 55 CURVE",
"262 -58 LINE",
"302 -58 LINE",
"302 57 LINE",
"416 71 OFFCURVE",
"484 128 OFFCURVE",
"484 215 CURVE SMOOTH"
);
},
{
closed = 1;
nodes = (
"430 153 OFFCURVE",
"381 110 OFFCURVE",
"302 102 CURVE",
"302 332 LINE",
"391 306 OFFCURVE",
"430 272 OFFCURVE",
"430 217 CURVE SMOOTH"
);
},
{
closed = 1;
nodes = (
"145 566 OFFCURVE",
"185 609 OFFCURVE",
"262 619 CURVE",
"262 398 LINE",
"180 423 OFFCURVE",
"145 456 OFFCURVE",
"145 512 CURVE SMOOTH"
);
}
);
width = 571;
}
);
note = dollar;
unicode = 0024;
},
{
glyphname = percent;
lastChange = "2018-06-23 23:46:14 +0000";
layers = (
{
layerId = "A772B137-1B4D-4AF9-A163-8433B0F153CB";
paths = (
{
closed = 1;
nodes = (
"103 621 OFFCURVE",
"131 681 OFFCURVE",
"194 681 CURVE SMOOTH",
"255 681 OFFCURVE",
"288 621 OFFCURVE",
"288 501 CURVE SMOOTH",
"288 379 OFFCURVE",
"257 319 OFFCURVE",
"194 319 CURVE SMOOTH",
"131 319 OFFCURVE",
"103 380 OFFCURVE",
"103 501 CURVE SMOOTH"
);
},
{
closed = 1;
nodes = (
"336 642 OFFCURVE",
"284 724 OFFCURVE",
"194 724 CURVE SMOOTH",
"103 724 OFFCURVE",
"55 646 OFFCURVE",
"55 501 CURVE SMOOTH",
"55 358 OFFCURVE",
"107 276 OFFCURVE",
"194 276 CURVE SMOOTH",
"286 276 OFFCURVE",
"336 354 OFFCURVE",
"336 501 CURVE SMOOTH"
);
},
{
closed = 1;
nodes = (
"519 335 OFFCURVE",
"547 394 OFFCURVE",
"610 394 CURVE SMOOTH",
"673 394 OFFCURVE",
"704 334 OFFCURVE",
"704 214 CURVE SMOOTH",
"704 93 OFFCURVE",
"673 33 OFFCURVE",
"610 33 CURVE SMOOTH",
"547 33 OFFCURVE",
"519 93 OFFCURVE",
"519 214 CURVE SMOOTH"
);
},
{
closed = 1;
nodes = (
"752 355 OFFCURVE",
"700 437 OFFCURVE",
"611 437 CURVE SMOOTH",
"521 437 OFFCURVE",
"471 360 OFFCURVE",
"471 214 CURVE SMOOTH",
"471 72 OFFCURVE",
"522 -11 OFFCURVE",
"611 -11 CURVE SMOOTH",
"703 -11 OFFCURVE",
"752 67 OFFCURVE",
"752 214 CURVE SMOOTH"
);
},
{
closed = 1;
nodes = (
"182 0 LINE",
"229 0 LINE",
"625 714 LINE",
"578 714 LINE"
);
}
);
width = 807;
}
);
note = percent;
unicode = 0025;
},
{
glyphname = ampersand;
lastChange = "2018-06-23 23:46:14 +0000";
layers = (
{
layerId = "A772B137-1B4D-4AF9-A163-8433B0F153CB";
paths = (
{
closed = 1;
nodes = (
"60 61 OFFCURVE",
"143 -10 OFFCURVE",
"279 -10 CURVE SMOOTH",
"314 -10 OFFCURVE",
"346 -6 OFFCURVE",
"374 1 CURVE SMOOTH",
"430 15 OFFCURVE",
"471 38 OFFCURVE",
"531 96 CURVE",
"625 0 LINE",
"691 0 LINE",
"561 131 LINE",
"608 189 OFFCURVE",
"643 259 OFFCURVE",
"663 339 CURVE",
"616 339 LINE",
"595 263 OFFCURVE",
"568 211 OFFCURVE",
"529 164 CURVE",
"308 387 LINE",
"427 457 OFFCURVE",
"466 508 OFFCURVE",
"466 576 CURVE SMOOTH",
"466 669 OFFCURVE",
"403 725 OFFCURVE",
"302 725 CURVE SMOOTH",
"197 725 OFFCURVE",
"130 667 OFFCURVE",
"130 573 CURVE SMOOTH",
"130 525 OFFCURVE",
"150 482 OFFCURVE",
"193 436 CURVE SMOOTH",
"230 396 LINE",
"99 326 OFFCURVE",
"60 271 OFFCURVE",
"60 181 CURVE SMOOTH"
);
},
{
closed = 1;
nodes = (
"175 34 OFFCURVE",
"111 90 OFFCURVE",
"111 183 CURVE SMOOTH",
"111 209 OFFCURVE",
"115 231 OFFCURVE",
"125 250 CURVE SMOOTH",
"142 289 OFFCURVE",
"175 317 OFFCURVE",
"263 364 CURVE",
"499 127 LINE",
"432 60 OFFCURVE",
"366 34 OFFCURVE",
"282 34 CURVE SMOOTH"
);
},
{
closed = 1;
nodes = (
"182 641 OFFCURVE",
"228 681 OFFCURVE",
"302 681 CURVE SMOOTH",
"371 681 OFFCURVE",
"414 639 OFFCURVE",
"414 578 CURVE SMOOTH",
"414 516 OFFCURVE",
"379 473 OFFCURVE",
"276 418 CURVE",
"203 488 OFFCURVE",
"182 523 OFFCURVE",
"182 574 CURVE SMOOTH"
);
}
);
width = 713;
}
);
note = ampersand;
unicode = 0026;
},
{
glyphname = quotesingle;
lastChange = "2018-06-23 23:46:14 +0000";
layers = (
{
layerId = "A772B137-1B4D-4AF9-A163-8433B0F153CB";
paths = (
{
closed = 1;
nodes = (
"81 456 LINE",
"111 456 LINE",
"127 714 LINE",
"65 714 LINE"
);
}
);
width = 192;
}
);
note = quotesingle;
unicode = 0027;
},
{
glyphname = parenleft;
lastChange = "2018-06-23 23:46:14 +0000";
layers = (
{
layerId = "A772B137-1B4D-4AF9-A163-8433B0F153CB";
paths = (
{
closed = 1;
nodes = (
"40 104 OFFCURVE",
"91 -47 OFFCURVE",
"187 -158 CURVE",
"241 -158 LINE",
"142 -27 OFFCURVE",
"93 118 OFFCURVE",
"93 275 CURVE SMOOTH",
"93 441 OFFCURVE",
"146 595 OFFCURVE",
"242 714 CURVE",
"187 714 LINE",
"92 601 OFFCURVE",
"40 446 OFFCURVE",
"40 274 CURVE SMOOTH"
);
}
);
width = 272;
}
);
note = parenleft;
unicode = 0028;
},
{
glyphname = parenright;
lastChange = "2018-06-23 23:46:14 +0000";
layers = (
{
layerId = "A772B137-1B4D-4AF9-A163-8433B0F153CB";
paths = (
{
closed = 1;
nodes = (
"232 445 OFFCURVE",
"181 600 OFFCURVE",
"85 714 CURVE",
"30 714 LINE",
"126 596 OFFCURVE",
"179 442 OFFCURVE",
"179 275 CURVE SMOOTH",
"179 118 OFFCURVE",
"130 -27 OFFCURVE",
"31 -158 CURVE",
"85 -158 LINE",
"180 -49 OFFCURVE",
"232 103 OFFCURVE",
"232 274 CURVE SMOOTH"
);
}
);
width = 272;
}
);
note = parenright;
unicode = 0029;
},
{
glyphname = asterisk;
lastChange = "2018-06-23 23:46:14 +0000";
layers = (
{
layerId = "A772B137-1B4D-4AF9-A163-8433B0F153CB";
paths = (
{
closed = 1;
nodes = (
"256 562 LINE",
"60 613 LINE",
"51 549 LINE",
"241 530 LINE",
"123 364 LINE",
"184 329 LINE",
"272 514 LINE",
"365 329 LINE",
"426 364 LINE",
"305 530 LINE",
"498 549 LINE",
"488 613 LINE",
"290 562 LINE",
"308 760 LINE",
"237 760 LINE"
);
}
);
width = 551;
}
);
note = asterisk;
unicode = 002A;
},
{
glyphname = plus;
lastChange = "2018-06-23 23:46:14 +0000";
layers = (
{
layerId = "A772B137-1B4D-4AF9-A163-8433B0F153CB";
paths = (
{
closed = 1;
nodes = (
"265 585 LINE",
"265 373 LINE",
"54 373 LINE",
"54 333 LINE",
"265 333 LINE",
"265 122 LINE",
"305 122 LINE",
"305 333 LINE",
"517 333 LINE",
"517 373 LINE",
"305 373 LINE",
"305 585 LINE"
);
}
);
width = 571;
}
);
note = plus;
unicode = 002B;
},
{
glyphname = comma;
lastChange = "2018-06-23 23:46:14 +0000";
layers = (
{
layerId = "A772B137-1B4D-4AF9-A163-8433B0F153CB";
paths = (
{
closed = 1;
nodes = (
"76 42 OFFCURVE",
"58 -40 OFFCURVE",
"33 -129 CURVE",
"65 -129 LINE",
"97 -59 OFFCURVE",
"125 20 OFFCURVE",
"150 106 CURVE",
"144 116 LINE",
"87 116 LINE"
);
}
);
width = 215;
}
);
note = comma;
unicode = 002C;
},
{
glyphname = hyphen;
lastChange = "2018-06-23 23:46:14 +0000";
layers = (
{
layerId = "A772B137-1B4D-4AF9-A163-8433B0F153CB";
paths = (
{
closed = 1;
nodes = (
"277 290 LINE",
"45 290 LINE",
"45 250 LINE",
"277 250 LINE"
);
}
);
width = 322;
}
);
note = hyphen;
unicode = 002D;
},
{
glyphname = period;
lastChange = "2018-06-23 23:46:14 +0000";
layers = (
{
layerId = "A772B137-1B4D-4AF9-A163-8433B0F153CB";
paths = (
{
closed = 1;
nodes = (
"79 6 OFFCURVE",
"92 -10 OFFCURVE",
"118 -10 CURVE SMOOTH",
"145 -10 OFFCURVE",
"158 6 OFFCURVE",
"158 38 CURVE SMOOTH",
"158 70 OFFCURVE",
"145 86 OFFCURVE",
"118 86 CURVE SMOOTH",
"92 86 OFFCURVE",
"79 70 OFFCURVE",
"79 38 CURVE SMOOTH"
);
}
);
width = 238;
}
);
note = period;
unicode = 002E;
},
{
glyphname = slash;
lastChange = "2018-06-23 23:46:14 +0000";
layers = (
{
layerId = "A772B137-1B4D-4AF9-A163-8433B0F153CB";
paths = (
{
closed = 1;
nodes = (
"12 0 LINE",
"63 0 LINE",
"329 714 LINE",
"278 714 LINE"
);
}
);
width = 341;
}
);
note = slash;
unicode = 002F;
},
{
glyphname = zero;
lastChange = "2018-06-23 23:46:14 +0000";
layers = (
{
layerId = "A772B137-1B4D-4AF9-A163-8433B0F153CB";
paths = (
{
closed = 1;
nodes = (
"515 599 OFFCURVE",
"435 725 OFFCURVE",
"284 725 CURVE SMOOTH",
"130 725 OFFCURVE",
"56 607 OFFCURVE",
"56 359 CURVE SMOOTH",
"56 115 OFFCURVE",
"135 -10 OFFCURVE",
"284 -10 CURVE SMOOTH",
"439 -10 OFFCURVE",
"515 108 OFFCURVE",
"515 359 CURVE SMOOTH"
);
},
{
closed = 1;
nodes = (
"109 570 OFFCURVE",
"161 681 OFFCURVE",
"284 681 CURVE SMOOTH",
"407 681 OFFCURVE",
"461 570 OFFCURVE",
"461 359 CURVE SMOOTH",
"461 145 OFFCURVE",
"407 34 OFFCURVE",
"284 34 CURVE SMOOTH",
"167 34 OFFCURVE",
"109 138 OFFCURVE",
"109 359 CURVE SMOOTH"
);
}
);
width = 571;
}
);
note = zero;
unicode = 0030;
},
{
glyphname = one;
lastChange = "2018-06-23 23:46:14 +0000";
layers = (
{
layerId = "A772B137-1B4D-4AF9-A163-8433B0F153CB";
paths = (
{
closed = 1;
nodes = (
"291 714 LINE",
"97 569 LINE",
"125 534 LINE",
"220 609 OFFCURVE",
"271 648 OFFCURVE",
"276 653 CURVE SMOOTH",
"281 657 OFFCURVE",
"286 662 OFFCURVE",
"291 667 CURVE",
"287 616 OFFCURVE",
"285 567 OFFCURVE",
"285 520 CURVE SMOOTH",
"285 0 LINE",
"333 0 LINE",
"333 714 LINE"
);
}
);
width = 571;
}
);
note = one;
unicode = 0031;
},
{
glyphname = two;
lastChange = "2018-06-23 23:46:14 +0000";
layers = (
{
layerId = "A772B137-1B4D-4AF9-A163-8433B0F153CB";
paths = (
{
closed = 1;
nodes = (
"120 47 LINE",
"120 49 LINE",
"303 237 LINE SMOOTH",
"430 366 OFFCURVE",
"470 443 OFFCURVE",
"470 537 CURVE SMOOTH",
"470 654 OFFCURVE",
"395 724 OFFCURVE",
"270 724 CURVE SMOOTH",
"197 724 OFFCURVE",
"131 699 OFFCURVE",
"72 649 CURVE",
"98 615 LINE",
"152 659 OFFCURVE",
"209 680 OFFCURVE",
"269 680 CURVE SMOOTH",
"358 680 OFFCURVE",
"420 622 OFFCURVE",
"420 536 CURVE SMOOTH",
"420 478 OFFCURVE",
"400 427 OFFCURVE",
"357 368 CURVE SMOOTH",
"336 339 OFFCURVE",
"298 296 OFFCURVE",
"245 241 CURVE SMOOTH",
"55 43 LINE",
"55 0 LINE",
"502 0 LINE",
"502 47 LINE"
);
}
);
width = 571;
}
);
note = two;
unicode = 0032;
},
{
glyphname = three;
lastChange = "2018-06-23 23:46:14 +0000";
layers = (
{
layerId = "A772B137-1B4D-4AF9-A163-8433B0F153CB";
paths = (
{
closed = 1;
nodes = (
"478 659 OFFCURVE",
"403 724 OFFCURVE",
"272 724 CURVE SMOOTH",
"192 724 OFFCURVE",
"108 695 OFFCURVE",
"53 649 CURVE",
"77 616 LINE",
"150 665 OFFCURVE",
"202 682 OFFCURVE",
"273 682 CURVE SMOOTH",
"364 682 OFFCURVE",
"426 630 OFFCURVE",
"426 551 CURVE SMOOTH",
"426 455 OFFCURVE",
"352 394 OFFCURVE",
"233 394 CURVE SMOOTH",
"155 394 LINE",
"155 347 LINE",
"232 347 LINE SMOOTH",
"375 347 OFFCURVE",
"450 294 OFFCURVE",
"450 200 CURVE SMOOTH",
"450 94 OFFCURVE",
"378 33 OFFCURVE",
"234 33 CURVE SMOOTH",
"174 33 OFFCURVE",
"101 50 OFFCURVE",
"46 79 CURVE",
"46 31 LINE",
"100 4 OFFCURVE",
"163 -10 OFFCURVE",
"236 -10 CURVE SMOOTH",
"406 -10 OFFCURVE",
"500 67 OFFCURVE",
"500 200 CURVE SMOOTH",
"500 299 OFFCURVE",
"439 359 OFFCURVE",
"324 373 CURVE",
"324 376 LINE",
"418 393 OFFCURVE",
"478 458 OFFCURVE",
"478 546 CURVE SMOOTH"
);
}
);
width = 571;
}
);
note = three;
unicode = 0033;
},
{
glyphname = four;
lastChange = "2018-06-23 23:46:14 +0000";
layers = (
{
layerId = "A772B137-1B4D-4AF9-A163-8433B0F153CB";
paths = (
{
closed = 1;
nodes = (
"434 224 LINE",
"434 718 LINE",
"375 718 LINE",
"21 215 LINE",
"21 182 LINE",
"388 182 LINE",
"388 0 LINE",
"434 0 LINE",
"434 182 LINE",
"557 182 LINE",
"557 224 LINE"
);
},
{
closed = 1;
nodes = (
"331 584 LINE SMOOTH",
"365 633 OFFCURVE",
"385 664 OFFCURVE",
"391 676 CURVE",
"395 676 LINE",
"391 609 OFFCURVE",
"388 526 OFFCURVE",
"388 428 CURVE SMOOTH",
"388 224 LINE",
"79 224 LINE"
);
}
);
width = 571;
}
);
note = four;
unicode = 0034;
},
{
glyphname = five;
lastChange = "2018-06-23 23:46:14 +0000";
layers = (
{
layerId = "A772B137-1B4D-4AF9-A163-8433B0F153CB";
paths = (
{
closed = 1;
nodes = (
"233 429 OFFCURVE",
"194 424 OFFCURVE",
"143 415 CURVE",
"165 667 LINE",
"463 667 LINE",
"463 714 LINE",
"119 714 LINE",
"91 387 LINE",
"120 368 LINE",
"167 381 OFFCURVE",
"210 387 OFFCURVE",
"253 387 CURVE SMOOTH",
"379 387 OFFCURVE",
"458 323 OFFCURVE",
"458 217 CURVE SMOOTH",
"458 104 OFFCURVE",
"376 33 OFFCURVE",
"251 33 CURVE SMOOTH",
"189 33 OFFCURVE",
"140 45 OFFCURVE",
"70 81 CURVE",
"70 31 LINE",
"113 5 OFFCURVE",
"180 -10 OFFCURVE",
"251 -10 CURVE SMOOTH",
"411 -10 OFFCURVE",
"508 76 OFFCURVE",
"508 222 CURVE SMOOTH",
"508 351 OFFCURVE",
"415 429 OFFCURVE",
"262 429 CURVE SMOOTH"
);
}
);
width = 571;
}
);
note = five;
unicode = 0035;
},
{
glyphname = six;
lastChange = "2018-06-23 23:46:14 +0000";
layers = (
{
layerId = "A772B137-1B4D-4AF9-A163-8433B0F153CB";
paths = (
{
closed = 1;
nodes = (
"64 106 OFFCURVE",
"153 -10 OFFCURVE",
"298 -10 CURVE SMOOTH",
"432 -10 OFFCURVE",
"517 80 OFFCURVE",
"517 226 CURVE SMOOTH",
"517 360 OFFCURVE",
"438 441 OFFCURVE",
"304 441 CURVE SMOOTH",
"233 441 OFFCURVE",
"167 408 OFFCURVE",
"118 344 CURVE",
"112 344 LINE",
"123 565 OFFCURVE",
"214 684 OFFCURVE",
"375 684 CURVE SMOOTH",
"409 684 OFFCURVE",
"437 680 OFFCURVE",
"461 671 CURVE",
"461 714 LINE",
"436 721 OFFCURVE",
"408 725 OFFCURVE",
"377 725 CURVE SMOOTH",
"312 725 OFFCURVE",
"256 710 OFFCURVE",
"209 679 CURVE SMOOTH",
"117 618 OFFCURVE",
"64 490 OFFCURVE",
"64 304 CURVE SMOOTH"
);
},
{
closed = 1;
nodes = (
"265 33 OFFCURVE",
"234 43 OFFCURVE",
"207 63 CURVE SMOOTH",
"152 102 OFFCURVE",
"117 174 OFFCURVE",
"117 246 CURVE SMOOTH",
"117 271 OFFCURVE",
"125 296 OFFCURVE",
"143 321 CURVE SMOOTH",
"176 369 OFFCURVE",
"237 401 OFFCURVE",
"303 401 CURVE SMOOTH",
"404 401 OFFCURVE",
"467 336 OFFCURVE",
"467 227 CURVE SMOOTH",
"467 103 OFFCURVE",
"405 33 OFFCURVE",
"298 33 CURVE SMOOTH"
);
}
);
width = 571;
}
);
note = six;
unicode = 0036;
},
{
glyphname = seven;
lastChange = "2018-06-23 23:46:14 +0000";
layers = (
{
layerId = "A772B137-1B4D-4AF9-A163-8433B0F153CB";
paths = (
{
closed = 1;
nodes = (
"515 678 LINE",
"515 714 LINE",
"53 714 LINE",
"53 667 LINE",
"457 667 LINE",
"163 0 LINE",
"220 0 LINE"
);
}
);
width = 571;
}
);
note = seven;
unicode = 0037;
},
{
glyphname = eight;
lastChange = "2018-06-23 23:46:14 +0000";
layers = (
{
layerId = "A772B137-1B4D-4AF9-A163-8433B0F153CB";
paths = (
{
closed = 1;
nodes = (
"246 726 OFFCURVE",
"211 719 OFFCURVE",
"181 705 CURVE SMOOTH",
"118 677 OFFCURVE",
"82 624 OFFCURVE",
"82 555 CURVE SMOOTH",
"82 479 OFFCURVE",
"120 427 OFFCURVE",
"225 378 CURVE",
"112 333 OFFCURVE",
"59 269 OFFCURVE",
"59 183 CURVE SMOOTH",
"59 58 OFFCURVE",
"138 -10 OFFCURVE",
"282 -10 CURVE SMOOTH",
"421 -10 OFFCURVE",
"510 66 OFFCURVE",
"510 184 CURVE SMOOTH",
"510 271 OFFCURVE",
"465 329 OFFCURVE",
"340 380 CURVE",
"443 427 OFFCURVE",
"486 481 OFFCURVE",
"486 554 CURVE SMOOTH",
"486 660 OFFCURVE",
"405 726 OFFCURVE",
"284 726 CURVE SMOOTH"
);
},
{
closed = 1;
nodes = (
"109 260 OFFCURVE",
"154 312 OFFCURVE",
"274 358 CURVE",
"420 303 OFFCURVE",
"460 261 OFFCURVE",
"460 180 CURVE SMOOTH",
"460 90 OFFCURVE",
"389 34 OFFCURVE",
"282 34 CURVE SMOOTH",
"173 34 OFFCURVE",
"109 86 OFFCURVE",
"109 176 CURVE SMOOTH"
);
},
{
closed = 1;
nodes = (
"378 682 OFFCURVE",
"437 633 OFFCURVE",
"437 555 CURVE SMOOTH",
"437 485 OFFCURVE",
"394 439 OFFCURVE",
"288 398 CURVE",
"243 417 OFFCURVE",
"210 434 OFFCURVE",
"191 448 CURVE SMOOTH",
"152 476 OFFCURVE",
"131 510 OFFCURVE",
"131 555 CURVE SMOOTH",
"131 634 OFFCURVE",
"191 682 OFFCURVE",
"283 682 CURVE SMOOTH"
);
}
);
width = 571;
}
);
note = eight;
unicode = 0038;
},
{
glyphname = nine;
lastChange = "2018-06-23 23:46:14 +0000";
layers = (
{
layerId = "A772B137-1B4D-4AF9-A163-8433B0F153CB";
paths = (
{
closed = 1;
nodes = (
"506 476 OFFCURVE",
"497 533 OFFCURVE",
"478 580 CURVE SMOOTH",
"439 675 OFFCURVE",
"367 725 OFFCURVE",
"273 725 CURVE SMOOTH",
"144 725 OFFCURVE",
"54 628 OFFCURVE",
"54 485 CURVE SMOOTH",
"54 351 OFFCURVE",
"132 275 OFFCURVE",
"264 275 CURVE SMOOTH",
"336 275 OFFCURVE",
"405 310 OFFCURVE",
"452 372 CURVE",
"458 372 LINE",
"448 149 OFFCURVE",
"354 31 OFFCURVE",
"193 31 CURVE SMOOTH",
"172 31 OFFCURVE",
"125 36 OFFCURVE",
"97 45 CURVE",
"97 3 LINE",
"126 -5 OFFCURVE",
"157 -10 OFFCURVE",
"191 -10 CURVE SMOOTH",
"258 -10 OFFCURVE",
"314 5 OFFCURVE",
"362 36 CURVE SMOOTH",
"456 96 OFFCURVE",
"506 224 OFFCURVE",
"506 411 CURVE SMOOTH"
);
},
{
closed = 1;
nodes = (
"309 682 OFFCURVE",
"340 673 OFFCURVE",
"367 654 CURVE SMOOTH",
"421 617 OFFCURVE",
"453 545 OFFCURVE",
"453 469 CURVE SMOOTH",
"453 444 OFFCURVE",
"445 419 OFFCURVE",
"428 396 CURVE SMOOTH",
"395 347 OFFCURVE",
"334 315 OFFCURVE",
"268 315 CURVE SMOOTH",
"163 315 OFFCURVE",
"104 375 OFFCURVE",
"104 488 CURVE SMOOTH",
"104 608 OFFCURVE",
"170 682 OFFCURVE",
"273 682 CURVE SMOOTH"
);
}
);
width = 571;
}
);
note = nine;
unicode = 0039;
},
{
glyphname = colon;
lastChange = "2018-06-23 23:46:14 +0000";
layers = (
{
layerId = "A772B137-1B4D-4AF9-A163-8433B0F153CB";
paths = (
{
closed = 1;
nodes = (
"79 6 OFFCURVE",
"92 -10 OFFCURVE",
"118 -10 CURVE SMOOTH",
"145 -10 OFFCURVE",
"158 6 OFFCURVE",
"158 38 CURVE SMOOTH",
"158 70 OFFCURVE",
"145 86 OFFCURVE",
"118 86 CURVE SMOOTH",
"92 86 OFFCURVE",
"79 70 OFFCURVE",
"79 38 CURVE SMOOTH"
);
},
{
closed = 1;
nodes = (
"79 439 OFFCURVE",
"96 426 OFFCURVE",
"118 426 CURVE SMOOTH",
"141 426 OFFCURVE",
"158 439 OFFCURVE",
"158 474 CURVE SMOOTH",
"158 506 OFFCURVE",
"145 522 OFFCURVE",
"118 522 CURVE SMOOTH",
"92 522 OFFCURVE",
"79 506 OFFCURVE",
"79 474 CURVE SMOOTH"
);
}
);
width = 238;
}
);
note = colon;
unicode = 003A;
},
{
glyphname = semicolon;
lastChange = "2018-06-23 23:46:14 +0000";
layers = (
{
layerId = "A772B137-1B4D-4AF9-A163-8433B0F153CB";
paths = (
{
closed = 1;
nodes = (
"81 46 OFFCURVE",
"56 -66 OFFCURVE",
"37 -129 CURVE",
"69 -129 LINE",
"101 -59 OFFCURVE",
"129 20 OFFCURVE",
"154 106 CURVE",
"148 116 LINE",
"91 116 LINE"
);
},
{
closed = 1;
nodes = (
"79 439 OFFCURVE",
"96 426 OFFCURVE",
"118 426 CURVE SMOOTH",
"141 426 OFFCURVE",
"158 439 OFFCURVE",
"158 474 CURVE SMOOTH",
"158 506 OFFCURVE",
"145 522 OFFCURVE",
"118 522 CURVE SMOOTH",
"92 522 OFFCURVE",
"79 506 OFFCURVE",
"79 474 CURVE SMOOTH"
);
}
);
width = 238;
}
);
note = semicolon;
unicode = 003B;
},
{
glyphname = less;
lastChange = "2018-06-23 23:46:14 +0000";
layers = (
{
layerId = "A772B137-1B4D-4AF9-A163-8433B0F153CB";
paths = (
{
closed = 1;
nodes = (
"115 350 LINE",
"517 548 LINE",
"517 594 LINE",
"54 363 LINE",
"54 333 LINE",
"517 130 LINE",
"517 177 LINE"
);
}
);
width = 571;
}
);
note = less;
unicode = 003C;
},
{
glyphname = equal;
lastChange = "2018-06-23 23:46:14 +0000";
layers = (
{
layerId = "A772B137-1B4D-4AF9-A163-8433B0F153CB";
paths = (
{
closed = 1;
nodes = (
"517 472 LINE",
"54 472 LINE",
"54 432 LINE",
"517 432 LINE"
);
},
{
closed = 1;
nodes = (
"517 273 LINE",
"54 273 LINE",
"54 233 LINE",
"517 233 LINE"
);
}
);
width = 571;
}
);
note = equal;
unicode = 003D;
},
{
glyphname = greater;
lastChange = "2018-06-23 23:46:14 +0000";
layers = (
{
layerId = "A772B137-1B4D-4AF9-A163-8433B0F153CB";
paths = (
{
closed = 1;
nodes = (
"517 333 LINE",
"517 363 LINE",
"54 594 LINE",
"54 548 LINE",
"456 350 LINE",
"54 177 LINE",
"54 130 LINE"
);
}
);
width = 571;
}
);
note = greater;
unicode = 003E;
},
{
glyphname = question;
lastChange = "2018-06-23 23:46:14 +0000";
layers = (
{
layerId = "A772B137-1B4D-4AF9-A163-8433B0F153CB";
paths = (
{
closed = 1;
nodes = (
"183 191 LINE SMOOTH",
"183 223 OFFCURVE",
"186 246 OFFCURVE",
"191 262 CURVE SMOOTH",
"201 294 OFFCURVE",
"222 321 OFFCURVE",
"263 356 CURVE SMOOTH",
"300 387 OFFCURVE",
"330 412 OFFCURVE",
"352 440 CURVE SMOOTH",
"373 468 OFFCURVE",
"385 500 OFFCURVE",
"385 544 CURVE SMOOTH",
"385 656 OFFCURVE",
"312 724 OFFCURVE",
"193 724 CURVE SMOOTH",
"142 724 OFFCURVE",
"100 716 OFFCURVE",
"28 685 CURVE",
"46 646 LINE",
"98 671 OFFCURVE",
"140 682 OFFCURVE",
"191 682 CURVE SMOOTH",
"279 682 OFFCURVE",
"339 629 OFFCURVE",
"339 547 CURVE SMOOTH",
"339 496 OFFCURVE",
"320 460 OFFCURVE",
"273 420 CURVE SMOOTH",
"229 382 LINE SMOOTH",
"163 324 OFFCURVE",
"143 282 OFFCURVE",
"143 202 CURVE SMOOTH",
"143 184 LINE",
"183 184 LINE"
);
},
{
closed = 1;
nodes = (
"127 6 OFFCURVE",
"140 -10 OFFCURVE",
"166 -10 CURVE SMOOTH",
"193 -10 OFFCURVE",
"206 6 OFFCURVE",
"206 38 CURVE SMOOTH",
"206 70 OFFCURVE",
"193 86 OFFCURVE",
"166 86 CURVE SMOOTH",
"140 86 OFFCURVE",
"127 70 OFFCURVE",
"127 38 CURVE SMOOTH"
);
}
);
width = 421;
}
);
note = question;
unicode = 003F;
},
{
glyphname = at;
lastChange = "2018-06-23 23:46:14 +0000";
layers = (
{
layerId = "A772B137-1B4D-4AF9-A163-8433B0F153CB";
paths = (
{
closed = 1;
nodes = (
"831 425 OFFCURVE",
"816 487 OFFCURVE",
"788 542 CURVE SMOOTH",
"729 649 OFFCURVE",
"617 709 OFFCURVE",
"477 709 CURVE SMOOTH",
"396 709 OFFCURVE",
"323 690 OFFCURVE",
"258 654 CURVE SMOOTH",
"129 580 OFFCURVE",
"55 440 OFFCURVE",
"55 274 CURVE SMOOTH",
"55 42 OFFCURVE",
"189 -96 OFFCURVE",
"416 -96 CURVE SMOOTH",
"485 -96 OFFCURVE",
"552 -83 OFFCURVE",
"618 -57 CURVE",
"618 -9 LINE",
"530 -42 OFFCURVE",
"474 -52 OFFCURVE",
"413 -52 CURVE SMOOTH",
"213 -52 OFFCURVE",
"100 67 OFFCURVE",
"100 277 CURVE SMOOTH",
"100 354 OFFCURVE",
"116 422 OFFCURVE",
"146 481 CURVE SMOOTH",
"208 600 OFFCURVE",
"326 667 OFFCURVE",
"476 667 CURVE SMOOTH",
"537 667 OFFCURVE",
"592 654 OFFCURVE",
"640 629 CURVE SMOOTH",
"735 578 OFFCURVE",
"788 479 OFFCURVE",
"788 353 CURVE SMOOTH",
"788 231 OFFCURVE",
"741 148 OFFCURVE",
"674 148 CURVE SMOOTH",
"621 148 OFFCURVE",
"600 182 OFFCURVE",
"600 250 CURVE SMOOTH",
"600 265 LINE",
"611 491 LINE",
"563 504 OFFCURVE",
"516 511 OFFCURVE",
"471 511 CURVE SMOOTH",
"345 511 OFFCURVE",
"259 418 OFFCURVE",
"259 287 CURVE SMOOTH",
"259 174 OFFCURVE",
"314 108 OFFCURVE",
"410 108 CURVE SMOOTH",
"480 108 OFFCURVE",
"535 141 OFFCURVE",
"563 206 CURVE",
"565 206 LINE",
"571 146 OFFCURVE",
"609 108 OFFCURVE",
"667 108 CURVE SMOOTH",
"768 108 OFFCURVE",
"831 206 OFFCURVE",
"831 354 CURVE SMOOTH"
);
},
{
closed = 1;
nodes = (
"309 400 OFFCURVE",
"371 472 OFFCURVE",
"468 472 CURVE SMOOTH",
"505 472 OFFCURVE",
"536 468 OFFCURVE",
"562 459 CURVE",
"554 317 LINE SMOOTH",
"548 204 OFFCURVE",
"504 148 OFFCURVE",
"421 148 CURVE SMOOTH",
"343 148 OFFCURVE",
"309 195 OFFCURVE",
"309 288 CURVE SMOOTH"
);
}
);
width = 886;
}
);
note = at;
unicode = 0040;
},
{
glyphname = A;
lastChange = "2018-06-23 23:46:14 +0000";
layers = (
{
anchors = (
{
name = bottom;
position = "{300, 0}";
},
{
name = ogonek;
position = "{540, 5}";
},
{
name = top;
position = "{300, 714}";
}
);
layerId = "A772B137-1B4D-4AF9-A163-8433B0F153CB";
paths = (
{
closed = 1;
nodes = (
"600 0 LINE",
"319 717 LINE",
"287 717 LINE",
"0 0 LINE",
"55 0 LINE",
"155 252 LINE",
"445 252 LINE",
"544 0 LINE"
);
},
{
closed = 1;
nodes = (
"283 579 OFFCURVE",
"293 607 OFFCURVE",
"302 638 CURVE",
"313 603 OFFCURVE",
"323 574 OFFCURVE",
"331 554 CURVE SMOOTH",
"428 297 LINE",
"173 297 LINE",
"273 553 LINE SMOOTH"
);
}
);
width = 600;
}
);
note = A;
unicode = 0041;
},
{
glyphname = B;
lastChange = "2018-06-23 23:46:14 +0000";
layers = (
{
anchors = (
{
name = bottom;
position = "{313, 0}";
},
{
name = top;
position = "{313, 714}";
}
);
layerId = "A772B137-1B4D-4AF9-A163-8433B0F153CB";
paths = (
{
closed = 1;
nodes = (
"320 0 LINE SMOOTH",
"480 0 OFFCURVE",
"571 74 OFFCURVE",
"571 205 CURVE SMOOTH",
"571 303 OFFCURVE",
"519 357 OFFCURVE",
"405 374 CURVE",
"405 377 LINE",
"502 393 OFFCURVE",
"553 451 OFFCURVE",
"553 533 CURVE SMOOTH",
"553 654 OFFCURVE",
"473 714 OFFCURVE",
"297 714 CURVE SMOOTH",
"101 714 LINE",
"101 0 LINE"
);
},
{
closed = 1;
nodes = (
"295 670 LINE SMOOTH",
"431 670 OFFCURVE",
"500 629 OFFCURVE",
"500 534 CURVE SMOOTH",
"500 439 OFFCURVE",
"442 396 OFFCURVE",
"308 396 CURVE SMOOTH",
"151 396 LINE",
"151 670 LINE"
);
},
{
closed = 1;
nodes = (
"447 352 OFFCURVE",
"517 303 OFFCURVE",
"517 205 CURVE SMOOTH",
"517 98 OFFCURVE",
"451 44 OFFCURVE",
"319 44 CURVE SMOOTH",
"151 44 LINE",
"151 352 LINE",
"308 352 LINE SMOOTH"
);
}
);
width = 627;
}
);
note = B;
unicode = 0042;
},
{
glyphname = C;
lastChange = "2018-06-23 23:46:14 +0000";
layers = (
{
anchors = (
{
name = bottom;
position = "{311, 0}";
},
{
name = top;
position = "{311, 714}";
}
);
layerId = "A772B137-1B4D-4AF9-A163-8433B0F153CB";
paths = (
{
closed = 1;
nodes = (
"463 679 OFFCURVE",
"518 666 OFFCURVE",
"570 640 CURVE",
"590 685 LINE",
"535 711 OFFCURVE",
"473 724 OFFCURVE",
"403 724 CURVE SMOOTH",
"334 724 OFFCURVE",
"274 709 OFFCURVE",
"223 679 CURVE SMOOTH",
"120 619 OFFCURVE",
"63 504 OFFCURVE",
"63 359 CURVE SMOOTH",
"63 126 OFFCURVE",
"186 -10 OFFCURVE",
"386 -10 CURVE SMOOTH",
"457 -10 OFFCURVE",
"516 -1 OFFCURVE",
"563 15 CURVE",
"563 59 LINE",
"513 44 OFFCURVE",
"458 36 OFFCURVE",
"398 36 CURVE SMOOTH",
"218 36 OFFCURVE",
"117 154 OFFCURVE",
"117 358 CURVE SMOOTH",
"117 557 OFFCURVE",
"227 679 OFFCURVE",
"406 679 CURVE SMOOTH"
);
}
);
width = 621;
}
);
note = C;
unicode = 0043;
},
{
glyphname = D;
lastChange = "2018-06-23 23:46:14 +0000";
layers = (
{
anchors = (
{
name = bottom;
position = "{353, 0}";
},
{
name = center;
position = "{353, 357}";
},
{
name = top;
position = "{353, 714}";
}
);
layerId = "A772B137-1B4D-4AF9-A163-8433B0F153CB";
paths = (
{
closed = 1;
nodes = (
"643 592 OFFCURVE",
"522 714 OFFCURVE",
"294 714 CURVE SMOOTH",
"101 714 LINE",
"101 0 LINE",
"272 0 LINE SMOOTH",
"516 0 OFFCURVE",
"643 124 OFFCURVE",
"643 364 CURVE SMOOTH"
);
},
{
closed = 1;
nodes = (
"589 150 OFFCURVE",
"482 44 OFFCURVE",
"269 44 CURVE SMOOTH",
"151 44 LINE",
"151 670 LINE",
"282 670 LINE SMOOTH",
"483 670 OFFCURVE",
"589 566 OFFCURVE",
"589 362 CURVE SMOOTH"
);
}
);
width = 706;
}
);
note = D;
unicode = 0044;
},
{
glyphname = E;
lastChange = "2018-06-23 23:46:14 +0000";
layers = (
{
anchors = (
{
name = bottom;
position = "{276, 0}";
},
{
name = ogonek;
position = "{497, 5}";
},
{
name = top;
position = "{276, 714}";
},
{
name = topleft;
position = "{10, 714}";
}
);
layerId = "A772B137-1B4D-4AF9-A163-8433B0F153CB";
paths = (
{
closed = 1;
nodes = (
"151 46 LINE",
"151 352 LINE",
"472 352 LINE",
"472 398 LINE",
"151 398 LINE",
"151 668 LINE",
"491 668 LINE",
"491 714 LINE",
"101 714 LINE",
"101 0 LINE",
"491 0 LINE",
"491 46 LINE"
);
}
);
width = 552;
}
);
note = E;
unicode = 0045;
},
{
glyphname = F;
lastChange = "2018-06-23 23:46:14 +0000";
layers = (
{
anchors = (
{
name = bottom;
position = "{251, 0}";
},
{
name = top;
position = "{251, 714}";
}
);
layerId = "A772B137-1B4D-4AF9-A163-8433B0F153CB";
paths = (
{
closed = 1;
nodes = (
"473 319 LINE",
"473 365 LINE",
"151 365 LINE",
"151 668 LINE",
"492 668 LINE",
"492 714 LINE",
"101 714 LINE",
"101 0 LINE",
"151 0 LINE",
"151 319 LINE"
);
}
);
width = 502;
}
);
note = F;
unicode = 0046;
},
{
glyphname = G;
lastChange = "2018-06-23 23:46:14 +0000";
layers = (
{
anchors = (
{
name = bottom;
position = "{362, 0}";
},
{
name = top;
position = "{362, 714}";
}
);
layerId = "A772B137-1B4D-4AF9-A163-8433B0F153CB";
paths = (
{
closed = 1;
nodes = (
"594 313 LINE",
"594 62 LINE",
"548 43 OFFCURVE",
"493 34 OFFCURVE",
"427 34 CURVE SMOOTH",
"224 34 OFFCURVE",
"117 143 OFFCURVE",
"117 358 CURVE SMOOTH",
"117 555 OFFCURVE",
"236 680 OFFCURVE",
"424 680 CURVE SMOOTH",
"490 680 OFFCURVE",
"554 666 OFFCURVE",
"616 637 CURVE",
"636 682 LINE",
"574 711 OFFCURVE",
"504 725 OFFCURVE",
"427 725 CURVE SMOOTH",
"355 725 OFFCURVE",
"291 710 OFFCURVE",
"236 679 CURVE SMOOTH",
"125 618 OFFCURVE",
"63 501 OFFCURVE",
"63 356 CURVE SMOOTH",
"63 123 OFFCURVE",
"187 -10 OFFCURVE",
"412 -10 CURVE SMOOTH",
"499 -10 OFFCURVE",
"576 5 OFFCURVE",
"645 34 CURVE",
"645 360 LINE",
"382 360 LINE",
"382 313 LINE"
);
}
);
width = 723;
}
);
note = G;
unicode = 0047;
},
{
glyphname = H;
lastChange = "2018-06-23 23:46:14 +0000";
layers = (
{
anchors = (
{
name = bottom;
position = "{360, 0}";
},
{
name = center;
position = "{360, 357}";
},
{
name = top;
position = "{360, 714}";
},
{
name = topleft;
position = "{10, 714}";
}
);
layerId = "A772B137-1B4D-4AF9-A163-8433B0F153CB";
paths = (
{
closed = 1;
nodes = (
"568 714 LINE",
"568 397 LINE",
"151 397 LINE",
"151 714 LINE",
"101 714 LINE",
"101 0 LINE",
"151 0 LINE",
"151 351 LINE",
"568 351 LINE",
"568 0 LINE",
"618 0 LINE",
"618 714 LINE"
);
}
);
width = 719;
}
);
note = H;
unicode = 0048;
},
{
glyphname = I.alt;
lastChange = "2018-06-23 23:46:14 +0000";
layers = (
{
anchors = (
{
name = bottom;
position = "{152, 0}";
},
{
name = ogonek;
position = "{274, 5}";
},
{
name = top;
position = "{152, 714}";
},
{
name = topleft;
position = "{10, 714}";
}
);
layerId = "A772B137-1B4D-4AF9-A163-8433B0F153CB";
paths = (
{
closed = 1;
nodes = (
"177 42 LINE",
"177 672 LINE",
"260 682 LINE",
"260 714 LINE",
"44 714 LINE",
"44 682 LINE",
"127 672 LINE",
"127 42 LINE",
"44 32 LINE",
"44 0 LINE",
"260 0 LINE",
"260 32 LINE"
);
}
);
width = 304;
}
);
note = I.alt;
},
{
glyphname = J;
lastChange = "2018-06-23 23:46:14 +0000";
layers = (
{
anchors = (
{
name = bottom;
position = "{124, 0}";
},
{
name = top;
position = "{124, 714}";
}
);
layerId = "A772B137-1B4D-4AF9-A163-8433B0F153CB";
paths = (
{
closed = 1;
nodes = (
"95 -180 OFFCURVE",
"151 -120 OFFCURVE",
"151 0 CURVE SMOOTH",
"151 714 LINE",
"101 714 LINE",
"101 -5 LINE SMOOTH",
"101 -91 OFFCURVE",
"62 -134 OFFCURVE",
"-17 -134 CURVE SMOOTH",
"-40 -134 OFFCURVE",
"-64 -130 OFFCURVE",
"-90 -124 CURVE",
"-90 -167 LINE",
"-71 -176 OFFCURVE",
"-46 -180 OFFCURVE",
"-16 -180 CURVE SMOOTH"
);
}
);
width = 247;
}
);
note = J;
unicode = 004A;
},
{
glyphname = K;
lastChange = "2018-06-23 23:46:14 +0000";
layers = (
{
anchors = (
{
name = bottom;
position = "{291, 0}";
},
{
name = top;
position = "{291, 714}";
}
);
layerId = "A772B137-1B4D-4AF9-A163-8433B0F153CB";
paths = (
{
closed = 1;
nodes = (
"573 714 LINE",
"510 714 LINE",
"230 422 LINE",
"151 343 LINE",
"151 714 LINE",
"101 714 LINE",
"101 0 LINE",
"151 0 LINE",
"151 293 LINE",
"246 377 LINE",
"520 0 LINE",
"581 0 LINE",
"281 412 LINE"
);
}
);
width = 581;
}
);
note = K;
unicode = 004B;
},
{
glyphname = L;
lastChange = "2018-06-23 23:46:14 +0000";
layers = (
{
anchors = (
{
name = bottom;
position = "{257, 0}";
},
{
name = center;
position = "{257, 357}";
},
{
name = top;
position = "{257, 714}";
},
{
name = topright;
position = "{503, 714}";
}
);
layerId = "A772B137-1B4D-4AF9-A163-8433B0F153CB";
paths = (
{
closed = 1;
nodes = (
"491 47 LINE",
"151 47 LINE",
"151 714 LINE",
"101 714 LINE",
"101 0 LINE",
"491 0 LINE"
);
}
);
width = 513;
}
);
note = L;
unicode = 004C;
},
{
glyphname = M;
lastChange = "2018-06-23 23:46:14 +0000";
layers = (
{
anchors = (
{
name = bottom;
position = "{432, 0}";
},
{
name = top;
position = "{432, 714}";
}
);
layerId = "A772B137-1B4D-4AF9-A163-8433B0F153CB";
paths = (
{
closed = 1;
nodes = (
"714 658 LINE",
"718 658 LINE",
"714 618 OFFCURVE",
"712 579 OFFCURVE",
"712 541 CURVE SMOOTH",
"712 0 LINE",
"762 0 LINE",
"762 714 LINE",
"687 714 LINE",
"434 86 LINE",
"431 86 LINE",
"178 714 LINE",
"101 714 LINE",
"101 0 LINE",
"149 0 LINE",
"149 535 LINE SMOOTH",
"149 578 OFFCURVE",
"147 619 OFFCURVE",
"145 659 CURVE",
"149 659 LINE",
"415 0 LINE",
"447 0 LINE"
);
}
);
width = 863;
}
);
note = M;
unicode = 004D;
},
{
glyphname = N;
lastChange = "2018-06-23 23:46:14 +0000";
layers = (
{
anchors = (
{
name = bottom;
position = "{361, 0}";
},
{
name = top;
position = "{361, 714}";
}
);
layerId = "A772B137-1B4D-4AF9-A163-8433B0F153CB";
paths = (
{
closed = 1;
nodes = (
"572 714 LINE",
"572 248 LINE SMOOTH",
"572 195 OFFCURVE",
"573 140 OFFCURVE",
"576 81 CURVE",
"573 81 LINE",
"151 714 LINE",
"101 714 LINE",
"101 0 LINE",
"149 0 LINE",
"149 463 LINE SMOOTH",
"149 501 OFFCURVE",
"147 558 OFFCURVE",
"143 634 CURVE",
"147 634 LINE",
"570 0 LINE",
"620 0 LINE",
"620 714 LINE"
);
}
);
width = 721;
}
);
note = N;
unicode = 004E;
},
{
glyphname = O;
lastChange = "2018-06-23 23:46:14 +0000";
layers = (
{
anchors = (
{
name = bottom;
position = "{382, 0}";
},
{
name = center;
position = "{382, 357}";
},
{
name = ogonek;
position = "{688, 5}";
},
{
name = top;
position = "{382, 714}";
},
{
name = topleft;
position = "{10, 714}";
},
{
name = topright;
position = "{754, 714}";
}
);
layerId = "A772B137-1B4D-4AF9-A163-8433B0F153CB";
paths = (
{
closed = 1;
nodes = (
"701 585 OFFCURVE",
"582 725 OFFCURVE",
"383 725 CURVE SMOOTH",
"185 725 OFFCURVE",
"63 586 OFFCURVE",
"63 359 CURVE SMOOTH",
"63 131 OFFCURVE",
"183 -10 OFFCURVE",
"382 -10 CURVE SMOOTH",
"581 -10 OFFCURVE",
"701 131 OFFCURVE",
"701 358 CURVE SMOOTH"
);
},
{
closed = 1;
nodes = (
"117 562 OFFCURVE",
"213 677 OFFCURVE",
"383 677 CURVE SMOOTH",
"553 677 OFFCURVE",
"647 563 OFFCURVE",
"647 358 CURVE SMOOTH",
"647 151 OFFCURVE",
"554 37 OFFCURVE",
"382 37 CURVE SMOOTH",
"211 37 OFFCURVE",
"117 153 OFFCURVE",
"117 358 CURVE SMOOTH"
);
}
);
width = 764;
}
);
note = O;
unicode = 004F;
},
{
glyphname = P;
lastChange = "2018-06-23 23:46:14 +0000";
layers = (
{
anchors = (
{
name = bottom;
position = "{292, 0}";
},
{
name = top;
position = "{292, 714}";
}
);
layerId = "A772B137-1B4D-4AF9-A163-8433B0F153CB";
paths = (
{
closed = 1;
nodes = (
"531 646 OFFCURVE",
"446 714 OFFCURVE",
"276 714 CURVE SMOOTH",
"101 714 LINE",
"101 0 LINE",
"151 0 LINE",
"151 295 LINE",
"261 295 LINE SMOOTH",
"433 295 OFFCURVE",
"531 371 OFFCURVE",
"531 509 CURVE SMOOTH"
);
},
{
closed = 1;
nodes = (
"269 669 LINE SMOOTH",
"411 669 OFFCURVE",
"477 617 OFFCURVE",
"477 507 CURVE SMOOTH",
"477 388 OFFCURVE",
"410 338 OFFCURVE",
"249 338 CURVE SMOOTH",
"151 338 LINE",
"151 669 LINE"
);
}
);
width = 585;
}
);
note = P;
unicode = 0050;
},
{
glyphname = Q;
lastChange = "2018-06-23 23:46:14 +0000";
layers = (
{
anchors = (
{
name = bottom;
position = "{382, 0}";
},
{
name = top;
position = "{382, 714}";
}
);
layerId = "A772B137-1B4D-4AF9-A163-8433B0F153CB";
paths = (
{
closed = 1;
nodes = (
"701 585 OFFCURVE",
"582 725 OFFCURVE",
"383 725 CURVE SMOOTH",
"185 725 OFFCURVE",
"63 586 OFFCURVE",
"63 359 CURVE SMOOTH",
"63 131 OFFCURVE",
"183 -10 OFFCURVE",
"382 -10 CURVE SMOOTH",
"397 -10 LINE",
"413 -9 LINE",
"551 -170 LINE",
"632 -170 LINE",
"469 0 LINE",
"614 35 OFFCURVE",
"701 167 OFFCURVE",
"701 358 CURVE SMOOTH"
);
},
{
closed = 1;
nodes = (
"117 562 OFFCURVE",
"213 677 OFFCURVE",
"383 677 CURVE SMOOTH",
"553 677 OFFCURVE",
"647 563 OFFCURVE",
"647 358 CURVE SMOOTH",
"647 151 OFFCURVE",
"554 37 OFFCURVE",
"382 37 CURVE SMOOTH",
"211 37 OFFCURVE",
"117 153 OFFCURVE",
"117 358 CURVE SMOOTH"
);
}
);
width = 764;
}
);
note = Q;
unicode = 0051;
},
{
glyphname = R;
lastChange = "2018-06-23 23:46:14 +0000";
layers = (
{
anchors = (
{
name = bottom;
position = "{297, 0}";
},
{
name = top;
position = "{297, 714}";
}
);
layerId = "A772B137-1B4D-4AF9-A163-8433B0F153CB";
paths = (
{
closed = 1;
nodes = (
"512 0 LINE",
"572 0 LINE",
"378 325 LINE",
"481 354 OFFCURVE",
"531 421 OFFCURVE",
"531 517 CURVE SMOOTH",
"531 648 OFFCURVE",
"448 714 OFFCURVE",
"271 714 CURVE SMOOTH",
"101 714 LINE",
"101 0 LINE",
"151 0 LINE",
"151 311 LINE",
"328 311 LINE"
);
},
{
closed = 1;
nodes = (
"269 669 LINE SMOOTH",
"416 669 OFFCURVE",
"477 622 OFFCURVE",
"477 513 CURVE SMOOTH",
"477 408 OFFCURVE",
"408 354 OFFCURVE",
"287 354 CURVE SMOOTH",
"151 354 LINE",
"151 669 LINE"
);
}
);
width = 594;
}
);
note = R;
unicode = 0052;
},
{
glyphname = S;
lastChange = "2018-06-23 23:46:14 +0000";
layers = (
{
anchors = (
{
name = bottom;
position = "{272, 0}";
},
{
name = top;
position = "{272, 714}";
}
);
layerId = "A772B137-1B4D-4AF9-A163-8433B0F153CB";
paths = (
{
closed = 1;
nodes = (
"495 217 OFFCURVE",
"489 245 OFFCURVE",
"476 268 CURVE SMOOTH",
"450 313 OFFCURVE",
"400 346 OFFCURVE",
"289 385 CURVE SMOOTH",
"236 404 OFFCURVE",
"199 420 OFFCURVE",
"177 434 CURVE SMOOTH",
"133 460 OFFCURVE",
"115 491 OFFCURVE",
"115 544 CURVE SMOOTH",
"115 628 OFFCURVE",
"183 680 OFFCURVE",
"288 680 CURVE SMOOTH",
"342 680 OFFCURVE",
"399 668 OFFCURVE",
"458 643 CURVE",
"476 686 LINE",
"417 711 OFFCURVE",
"354 724 OFFCURVE",
"287 724 CURVE SMOOTH",
"156 724 OFFCURVE",
"63 650 OFFCURVE",
"63 543 CURVE SMOOTH",
"63 446 OFFCURVE",
"110 396 OFFCURVE",
"256 345 CURVE SMOOTH",
"306 328 OFFCURVE",
"343 313 OFFCURVE",
"369 298 CURVE SMOOTH",
"420 269 OFFCURVE",
"442 236 OFFCURVE",
"442 182 CURVE SMOOTH",
"442 95 OFFCURVE",
"368 36 OFFCURVE",
"251 36 CURVE SMOOTH",
"171 36 OFFCURVE",
"105 47 OFFCURVE",
"54 69 CURVE",
"54 19 LINE",
"101 0 OFFCURVE",
"167 -10 OFFCURVE",
"255 -10 CURVE SMOOTH",
"400 -10 OFFCURVE",
"495 65 OFFCURVE",
"495 184 CURVE SMOOTH"
);
}
);
width = 545;
}
);
note = S;
unicode = 0053;
},
{
glyphname = T;
lastChange = "2018-06-23 23:46:14 +0000";
layers = (
{
anchors = (
{
name = bottom;
position = "{262, 0}";
},
{
name = center;
position = "{262, 357}";
},
{
name = top;
position = "{262, 714}";
}
);
layerId = "A772B137-1B4D-4AF9-A163-8433B0F153CB";
paths = (
{
closed = 1;
nodes = (
"519 667 LINE",
"519 714 LINE",
"5 714 LINE",
"5 667 LINE",
"237 667 LINE",
"237 0 LINE",
"287 0 LINE",
"287 667 LINE"
);
}
);
width = 524;
}
);
note = T;
unicode = 0054;
},
{
glyphname = U;
lastChange = "2018-06-23 23:46:14 +0000";
layers = (
{
anchors = (
{
name = bottom;
position = "{360, 0}";
},
{
name = ogonek;
position = "{647, 5}";
},
{
name = top;
position = "{360, 714}";
},
{
name = topright;
position = "{709, 714}";
}
);
layerId = "A772B137-1B4D-4AF9-A163-8433B0F153CB";
paths = (
{
closed = 1;
nodes = (
"576 247 LINE SMOOTH",
"576 114 OFFCURVE",
"498 34 OFFCURVE",
"362 34 CURVE SMOOTH",
"223 34 OFFCURVE",
"143 115 OFFCURVE",
"143 252 CURVE SMOOTH",
"143 714 LINE",
"93 714 LINE",
"93 254 LINE SMOOTH",
"93 88 OFFCURVE",
"190 -10 OFFCURVE",
"356 -10 CURVE SMOOTH",
"526 -10 OFFCURVE",
"626 88 OFFCURVE",
"626 252 CURVE SMOOTH",
"626 714 LINE",
"576 714 LINE"
);
}
);
width = 719;
}
);
note = U;
unicode = 0055;
},
{
glyphname = V;
lastChange = "2018-06-23 23:46:14 +0000";
layers = (
{
anchors = (
{
name = bottom;
position = "{289, 0}";
},
{
name = top;
position = "{289, 714}";
}
);
layerId = "A772B137-1B4D-4AF9-A163-8433B0F153CB";
paths = (
{
closed = 1;
nodes = (
"308 125 OFFCURVE",
"294 87 OFFCURVE",
"288 63 CURVE",
"279 100 OFFCURVE",
"260 155 OFFCURVE",
"233 228 CURVE SMOOTH",
"53 714 LINE",
"0 714 LINE",
"266 0 LINE",
"310 0 LINE",
"577 714 LINE",
"523 714 LINE",
"327 177 LINE SMOOTH"
);
}
);
width = 577;
}
);
note = V;
unicode = 0056;
},
{
glyphname = W;
lastChange = "2018-06-23 23:46:14 +0000";
layers = (
{
anchors = (
{
name = bottom;
position = "{446, 0}";
},
{
name = top;
position = "{446, 714}";
}
);
layerId = "A772B137-1B4D-4AF9-A163-8433B0F153CB";
paths = (
{
closed = 1;
nodes = (
"817 714 LINE",
"723 366 OFFCURVE",
"673 179 OFFCURVE",
"667 153 CURVE SMOOTH",
"660 126 OFFCURVE",
"654 102 OFFCURVE",
"650 78 CURVE",
"643 113 OFFCURVE",
"631 160 OFFCURVE",
"614 217 CURVE SMOOTH",
"471 714 LINE",
"416 714 LINE",
"294 281 LINE SMOOTH",
"269 190 OFFCURVE",
"252 124 OFFCURVE",
"244 79 CURVE",
"242 92 OFFCURVE",
"239 105 OFFCURVE",
"237 118 CURVE",
"231 144 OFFCURVE",
"224 171 OFFCURVE",
"216 203 CURVE SMOOTH",
"211 218 OFFCURVE",
"207 235 OFFCURVE",
"202 254 CURVE SMOOTH",
"77 714 LINE",
"25 714 LINE",
"221 0 LINE",
"263 0 LINE",
"358 339 OFFCURVE",
"411 528 OFFCURVE",
"421 564 CURVE SMOOTH",
"430 601 OFFCURVE",
"438 634 OFFCURVE",
"443 662 CURVE",
"449 633 OFFCURVE",
"459 596 OFFCURVE",
"472 551 CURVE SMOOTH",
"629 0 LINE",
"670 0 LINE",
"867 714 LINE"
);
}
);
width = 892;
}
);
note = W;
unicode = 0057;
},
{
glyphname = X;
lastChange = "2018-06-23 23:46:14 +0000";
layers = (
{
anchors = (
{
name = bottom;
position = "{269, 0}";
},
{
name = top;
position = "{269, 714}";
}
);
layerId = "A772B137-1B4D-4AF9-A163-8433B0F153CB";
paths = (
{
closed = 1;
nodes = (
"520 714 LINE",
"467 714 LINE",
"271 408 LINE",
"78 714 LINE",
"22 714 LINE",
"240 372 LINE",
"0 0 LINE",
"55 0 LINE",
"270 333 LINE",
"481 0 LINE",
"538 0 LINE",
"299 373 LINE"
);
}
);
width = 538;
}
);
note = X;
unicode = 0058;
},
{
glyphname = Y;
lastChange = "2018-06-23 23:46:14 +0000";
layers = (
{
anchors = (
{
name = bottom;
position = "{264, 0}";
},
{
name = top;
position = "{264, 714}";
},
{
name = topleft;
position = "{10, 714}";
}
);
layerId = "A772B137-1B4D-4AF9-A163-8433B0F153CB";
paths = (
{
closed = 1;
nodes = (
"0 714 LINE",
"239 272 LINE",
"239 0 LINE",
"290 0 LINE",
"290 276 LINE",
"528 714 LINE",
"474 714 LINE",
"265 323 LINE",
"57 714 LINE"
);
}
);
width = 528;
}
);
note = Y;
unicode = 0059;
},
{
glyphname = Z;
lastChange = "2018-06-23 23:46:14 +0000";
layers = (
{
anchors = (
{
name = bottom;
position = "{288, 0}";
},
{
name = top;
position = "{288, 714}";
}
);
layerId = "A772B137-1B4D-4AF9-A163-8433B0F153CB";
paths = (
{
closed = 1;
nodes = (
"106 47 LINE",
"525 677 LINE",
"525 714 LINE",
"59 714 LINE",
"59 667 LINE",
"458 667 LINE",
"40 37 LINE",
"40 0 LINE",
"536 0 LINE",
"536 47 LINE"
);
}
);
width = 576;
}
);
note = Z;
unicode = 005A;
},
{
glyphname = bracketleft;
lastChange = "2018-06-23 23:46:14 +0000";
layers = (
{
layerId = "A772B137-1B4D-4AF9-A163-8433B0F153CB";
paths = (
{
closed = 1;
nodes = (
"133 -112 LINE",
"133 668 LINE",
"294 668 LINE",
"294 714 LINE",
"85 714 LINE",
"85 -158 LINE",
"294 -158 LINE",
"294 -112 LINE"
);
}
);
width = 319;
}
);
note = bracketleft;
unicode = 005B;
},
{
glyphname = backslash;
lastChange = "2018-06-23 23:46:14 +0000";
layers = (
{
layerId = "A772B137-1B4D-4AF9-A163-8433B0F153CB";
paths = (
{
closed = 1;
nodes = (
"279 0 LINE",
"329 0 LINE",
"62 714 LINE",
"12 714 LINE"
);
}
);
width = 341;
}
);
note = backslash;
unicode = 005C;
},
{
glyphname = bracketright;
lastChange = "2018-06-23 23:46:14 +0000";
layers = (
{
layerId = "A772B137-1B4D-4AF9-A163-8433B0F153CB";
paths = (
{
closed = 1;
nodes = (
"234 -158 LINE",
"234 714 LINE",
"25 714 LINE",
"25 668 LINE",
"186 668 LINE",
"186 -112 LINE",
"25 -112 LINE",
"25 -158 LINE"
);
}
);
width = 319;
}
);
note = bracketright;
unicode = 005D;
},
{
glyphname = asciicircum;
lastChange = "2018-06-23 23:46:14 +0000";
layers = (
{
layerId = "A772B137-1B4D-4AF9-A163-8433B0F153CB";
paths = (
{
closed = 1;
nodes = (
"286 660 LINE",
"479 274 LINE",
"528 274 LINE",
"303 719 LINE",
"270 719 LINE",
"43 274 LINE",
"92 274 LINE"
);
}
);
width = 571;
}
);
note = asciicircum;
unicode = 005E;
},
{
glyphname = underscore;
lastChange = "2018-06-23 23:46:14 +0000";
layers = (
{
layerId = "A772B137-1B4D-4AF9-A163-8433B0F153CB";
paths = (
{
closed = 1;
nodes = (
"-2 -90 LINE",
"-2 -130 LINE",
"413 -130 LINE",
"413 -90 LINE"
);
}
);
width = 411;
}
);
note = underscore;
unicode = 005F;
},
{
glyphname = grave;
lastChange = "2018-06-23 23:46:14 +0000";
layers = (
{
layerId = "A772B137-1B4D-4AF9-A163-8433B0F153CB";
paths = (
{
closed = 1;
nodes = (
"333 663 OFFCURVE",
"278 735 OFFCURVE",
"261 766 CURVE",
"192 766 LINE",
"192 758 LINE",
"213 727 OFFCURVE",
"283 657 OFFCURVE",
"345 606 CURVE",
"379 606 LINE",
"379 614 LINE"
);
}
);
width = 577;
}
);
note = grave;
unicode = 0060;
},
{
glyphname = a;
lastChange = "2018-06-23 23:46:14 +0000";
layers = (
{
anchors = (
{
name = bottom;
position = "{265, 0}";
},
{
name = ogonek;
position = "{477, 5}";
},
{
name = top;
position = "{265, 531}";
}
);
layerId = "A772B137-1B4D-4AF9-A163-8433B0F153CB";
paths = (
{
closed = 1;
nodes = (
"447 353 LINE SMOOTH",
"447 481 OFFCURVE",
"390 540 OFFCURVE",
"273 540 CURVE SMOOTH",
"216 540 OFFCURVE",
"158 526 OFFCURVE",
"100 499 CURVE",
"118 457 LINE",
"171 484 OFFCURVE",
"222 498 OFFCURVE",
"271 498 CURVE SMOOTH",
"362 498 OFFCURVE",
"401 446 OFFCURVE",
"401 345 CURVE SMOOTH",
"401 310 LINE",
"300 307 LINE SMOOTH",
"136 304 OFFCURVE",
"48 245 OFFCURVE",
"48 141 CURVE SMOOTH",
"48 47 OFFCURVE",
"109 -10 OFFCURVE",
"213 -10 CURVE SMOOTH",
"290 -10 OFFCURVE",
"342 16 OFFCURVE",
"395 84 CURVE",
"399 84 LINE",
"411 0 LINE",
"447 0 LINE"
);
},
{
closed = 1;
nodes = (
"142 34 OFFCURVE",
"99 73 OFFCURVE",
"99 139 CURVE SMOOTH",
"99 223 OFFCURVE",
"157 259 OFFCURVE",
"306 266 CURVE SMOOTH",
"399 270 LINE",
"399 218 LINE SMOOTH",
"399 103 OFFCURVE",
"329 34 OFFCURVE",
"216 34 CURVE SMOOTH"
);
}
);
width = 530;
}
);
note = a;
unicode = 0061;
},
{
glyphname = b;
lastChange = "2018-06-23 23:46:14 +0000";
layers = (
{
anchors = (
{
name = bottom;
position = "{298, 0}";
},
{
name = top;
position = "{298, 531}";
}
);
layerId = "A772B137-1B4D-4AF9-A163-8433B0F153CB";
paths = (
{
closed = 1;
nodes = (
"233 541 OFFCURVE",
"178 512 OFFCURVE",
"137 448 CURVE",
"134 448 LINE",
"135 490 LINE SMOOTH",
"137 514 OFFCURVE",
"137 540 OFFCURVE",
"137 569 CURVE SMOOTH",
"137 760 LINE",
"89 760 LINE",
"89 0 LINE",
"119 0 LINE",
"133 80 LINE",
"137 80 LINE",
"172 23 OFFCURVE",
"235 -10 OFFCURVE",
"311 -10 CURVE SMOOTH",
"454 -10 OFFCURVE",
"537 90 OFFCURVE",
"537 266 CURVE SMOOTH",
"537 446 OFFCURVE",
"461 541 OFFCURVE",
"313 541 CURVE SMOOTH"
);
},
{
closed = 1;
nodes = (
"428 497 OFFCURVE",
"486 420 OFFCURVE",
"486 267 CURVE SMOOTH",
"486 117 OFFCURVE",
"427 33 OFFCURVE",
"311 33 CURVE SMOOTH",
"192 33 OFFCURVE",
"137 98 OFFCURVE",
"137 258 CURVE SMOOTH",
"137 266 LINE SMOOTH",
"137 431 OFFCURVE",
"187 497 OFFCURVE",
"312 497 CURVE SMOOTH"
);
}
);
width = 595;
}
);
note = b;
unicode = 0062;
},
{
glyphname = c;
lastChange = "2018-06-23 23:46:14 +0000";
layers = (
{
anchors = (
{
name = bottom;
position = "{238, 0}";
},
{
name = top;
position = "{288, 531}";
}
);
layerId = "A772B137-1B4D-4AF9-A163-8433B0F153CB";
paths = (
{
closed = 1;
nodes = (
"356 -10 OFFCURVE",
"400 -1 OFFCURVE",
"434 15 CURVE",
"434 60 LINE",
"393 43 OFFCURVE",
"348 34 OFFCURVE",
"300 34 CURVE SMOOTH",
"179 34 OFFCURVE",
"109 120 OFFCURVE",
"109 263 CURVE SMOOTH",
"109 414 OFFCURVE",
"177 497 OFFCURVE",
"307 497 CURVE SMOOTH",
"341 497 OFFCURVE",
"381 489 OFFCURVE",
"427 474 CURVE",
"440 517 LINE",
"398 533 OFFCURVE",
"354 541 OFFCURVE",
"308 541 CURVE SMOOTH",
"153 541 OFFCURVE",
"58 438 OFFCURVE",
"58 262 CURVE SMOOTH",
"58 91 OFFCURVE",
"149 -10 OFFCURVE",
"301 -10 CURVE SMOOTH"
);
}
);
width = 475;
}
);
note = c;
unicode = 0063;
},
{
glyphname = d;
lastChange = "2018-06-23 23:46:14 +0000";
layers = (
{
anchors = (
{
name = bottom;
position = "{298, 0}";
},
{
name = center;
position = "{298, 266}";
},
{
name = top;
position = "{298, 531}";
},
{
name = topright;
position = "{585, 531}";
}
);
layerId = "A772B137-1B4D-4AF9-A163-8433B0F153CB";
paths = (
{
closed = 1;
nodes = (
"137 541 OFFCURVE",
"58 441 OFFCURVE",
"58 258 CURVE SMOOTH",
"58 83 OFFCURVE",
"138 -10 OFFCURVE",
"284 -10 CURVE SMOOTH",
"360 -10 OFFCURVE",
"417 21 OFFCURVE",
"458 81 CURVE",
"462 81 LINE",
"474 0 LINE",
"506 0 LINE",
"506 760 LINE",
"458 760 LINE",
"458 569 LINE SMOOTH",
"458 529 OFFCURVE",
"459 489 OFFCURVE",
"461 448 CURVE",
"458 448 LINE",
"414 516 OFFCURVE",
"360 541 OFFCURVE",
"283 541 CURVE SMOOTH"
);
},
{
closed = 1;
nodes = (
"406 497 OFFCURVE",
"458 430 OFFCURVE",
"458 266 CURVE SMOOTH",
"458 258 LINE SMOOTH",
"458 98 OFFCURVE",
"404 33 OFFCURVE",
"284 33 CURVE SMOOTH",
"167 33 OFFCURVE",
"109 108 OFFCURVE",
"109 259 CURVE SMOOTH",
"109 414 OFFCURVE",
"167 497 OFFCURVE",
"283 497 CURVE SMOOTH"
);
}
);
width = 595;
}
);
note = d;
unicode = 0064;
},
{
glyphname = e;
lastChange = "2018-06-23 23:46:14 +0000";
layers = (
{
anchors = (
{
name = bottom;
position = "{274, 0}";
},
{
name = ogonek;
position = "{494, 5}";
},
{
name = top;
position = "{274, 531}";
}
);
layerId = "A772B137-1B4D-4AF9-A163-8433B0F153CB";
paths = (
{
closed = 1;
nodes = (
"364 -10 OFFCURVE",
"410 -2 OFFCURVE",
"470 24 CURVE",
"470 68 LINE",
"400 40 OFFCURVE",
"364 34 OFFCURVE",
"303 34 CURVE SMOOTH",
"179 34 OFFCURVE",
"110 113 OFFCURVE",
"109 259 CURVE",
"491 259 LINE",
"491 298 LINE SMOOTH",
"491 448 OFFCURVE",
"414 541 OFFCURVE",
"289 541 CURVE SMOOTH",
"148 541 OFFCURVE",
"58 431 OFFCURVE",
"58 261 CURVE SMOOTH",
"58 90 OFFCURVE",
"149 -10 OFFCURVE",
"303 -10 CURVE SMOOTH"
);
},
{
closed = 1;
nodes = (
"383 498 OFFCURVE",
"440 425 OFFCURVE",
"440 302 CURVE",
"112 302 LINE",
"122 429 OFFCURVE",
"187 498 OFFCURVE",
"289 498 CURVE SMOOTH"
);
}
);
width = 549;
}
);
note = e;
unicode = 0065;
},
{
glyphname = f;
lastChange = "2018-06-23 23:46:14 +0000";
layers = (
{
anchors = (
{
name = bottom;
position = "{150, 0}";
},
{
name = top;
position = "{150, 531}";
}
);
layerId = "A772B137-1B4D-4AF9-A163-8433B0F153CB";
paths = (
{
closed = 1;
nodes = (
"161 531 LINE",
"161 580 LINE SMOOTH",
"161 680 OFFCURVE",
"189 722 OFFCURVE",
"265 722 CURVE SMOOTH",
"291 722 OFFCURVE",
"317 718 OFFCURVE",
"343 710 CURVE",
"354 752 LINE",
"325 761 OFFCURVE",
"295 765 OFFCURVE",
"266 765 CURVE SMOOTH",
"157 765 OFFCURVE",
"113 707 OFFCURVE",
"113 576 CURVE SMOOTH",
"113 535 LINE",
"14 517 LINE",
"14 489 LINE",
"113 489 LINE",
"113 0 LINE",
"161 0 LINE",
"161 489 LINE",
"286 489 LINE",
"286 531 LINE"
);
}
);
width = 300;
}
);
note = f;
unicode = 0066;
},
{
glyphname = g;
lastChange = "2018-06-23 23:46:14 +0000";
layers = (
{
anchors = (
{
name = bottom;
position = "{262, 0}";
},
{
name = top;
position = "{262, 531}";
}
);
layerId = "A772B137-1B4D-4AF9-A163-8433B0F153CB";
paths = (
{
closed = 1;
nodes = (
"314 538 OFFCURVE",
"287 541 OFFCURVE",
"252 541 CURVE SMOOTH",
"137 541 OFFCURVE",
"65 471 OFFCURVE",
"65 365 CURVE SMOOTH",
"65 295 OFFCURVE",
"101 237 OFFCURVE",
"163 212 CURVE",
"118 185 OFFCURVE",
"95 154 OFFCURVE",
"95 118 CURVE SMOOTH",
"95 85 OFFCURVE",
"116 60 OFFCURVE",
"148 46 CURVE",
"70 28 OFFCURVE",
"22 -21 OFFCURVE",
"22 -94 CURVE SMOOTH",
"22 -186 OFFCURVE",
"99 -240 OFFCURVE",
"232 -240 CURVE SMOOTH",
"400 -240 OFFCURVE",
"494 -177 OFFCURVE",
"494 -65 CURVE SMOOTH",
"494 26 OFFCURVE",
"431 73 OFFCURVE",
"316 73 CURVE SMOOTH",
"223 73 LINE SMOOTH",
"163 73 OFFCURVE",
"139 88 OFFCURVE",
"139 122 CURVE SMOOTH",
"139 153 OFFCURVE",
"160 181 OFFCURVE",
"198 201 CURVE",
"208 199 OFFCURVE",
"225 198 OFFCURVE",
"249 198 CURVE SMOOTH",
"364 198 OFFCURVE",
"437 268 OFFCURVE",
"437 370 CURVE SMOOTH",
"437 414 OFFCURVE",
"422 454 OFFCURVE",
"393 490 CURVE",
"503 497 LINE",
"503 531 LINE",
"333 531 LINE"
);
},
{
closed = 1;
nodes = (
"73 -13 OFFCURVE",
"122 25 OFFCURVE",
"219 25 CURVE SMOOTH",
"306 25 LINE SMOOTH",
"404 25 OFFCURVE",
"445 -2 OFFCURVE",
"445 -66 CURVE SMOOTH",
"445 -155 OFFCURVE",
"375 -199 OFFCURVE",
"236 -199 CURVE SMOOTH",
"127 -199 OFFCURVE",
"73 -163 OFFCURVE",
"73 -90 CURVE SMOOTH"
);
},
{
closed = 1;
nodes = (
"114 452 OFFCURVE",
"166 503 OFFCURVE",
"250 503 CURVE SMOOTH",
"337 503 OFFCURVE",
"388 458 OFFCURVE",
"388 367 CURVE SMOOTH",
"388 282 OFFCURVE",
"339 236 OFFCURVE",
"251 236 CURVE SMOOTH",
"167 236 OFFCURVE",
"114 283 OFFCURVE",
"114 365 CURVE SMOOTH"
);
}
);
width = 523;
}
);
note = g;
unicode = 0067;
},
{
glyphname = h;
lastChange = "2018-06-23 23:46:14 +0000";
layers = (
{
anchors = (
{
name = bottom;
position = "{295, 0}";
},
{
name = center;
position = "{295, 266}";
},
{
name = top;
position = "{295, 531}";
}
);
layerId = "A772B137-1B4D-4AF9-A163-8433B0F153CB";
paths = (
{
closed = 1;
nodes = (
"507 347 LINE SMOOTH",
"507 477 OFFCURVE",
"447 541 OFFCURVE",
"326 541 CURVE SMOOTH",
"236 541 OFFCURVE",
"178 514 OFFCURVE",
"138 450 CURVE",
"135 450 LINE",
"137 518 LINE",
"137 760 LINE",
"89 760 LINE",
"89 0 LINE",
"137 0 LINE",
"137 293 LINE SMOOTH",
"137 437 OFFCURVE",
"194 497 OFFCURVE",
"321 497 CURVE SMOOTH",
"415 497 OFFCURVE",
"459 451 OFFCURVE",
"459 344 CURVE SMOOTH",
"459 0 LINE",
"507 0 LINE"
);
}
);
width = 590;
}
);
note = h;
unicode = 0068;
},
{
glyphname = i;
lastChange = "2018-06-23 23:46:14 +0000";
layers = (
{
anchors = (
{
name = bottom;
position = "{113, 0}";
}
);
layerId = "A772B137-1B4D-4AF9-A163-8433B0F153CB";
paths = (
{
closed = 1;
nodes = (
"89 531 LINE",
"89 0 LINE",
"137 0 LINE",
"137 531 LINE"
);
},
{
closed = 1;
nodes = (
"82 646 OFFCURVE",
"92 631 OFFCURVE",
"113 631 CURVE SMOOTH",
"133 631 OFFCURVE",
"145 649 OFFCURVE",
"145 678 CURVE SMOOTH",
"145 708 OFFCURVE",
"133 725 OFFCURVE",
"113 725 CURVE SMOOTH",
"92 725 OFFCURVE",
"82 709 OFFCURVE",
"82 678 CURVE SMOOTH"
);
}
);
width = 226;
}
);
note = i;
unicode = 0069;
},
{
glyphname = j;
lastChange = "2018-06-23 23:46:14 +0000";
layers = (
{
layerId = "A772B137-1B4D-4AF9-A163-8433B0F153CB";
paths = (
{
closed = 1;
nodes = (
"94 -240 OFFCURVE",
"137 -191 OFFCURVE",
"137 -103 CURVE SMOOTH",
"137 531 LINE",
"89 531 LINE",
"89 -110 LINE SMOOTH",
"89 -167 OFFCURVE",
"64 -196 OFFCURVE",
"15 -196 CURVE SMOOTH",
"-4 -196 OFFCURVE",
"-25 -192 OFFCURVE",
"-48 -186 CURVE",
"-48 -228 LINE",
"-30 -236 OFFCURVE",
"-8 -240 OFFCURVE",
"18 -240 CURVE SMOOTH"
);
},
{
closed = 1;
nodes = (
"82 646 OFFCURVE",
"92 631 OFFCURVE",
"113 631 CURVE SMOOTH",
"133 631 OFFCURVE",
"145 649 OFFCURVE",
"145 678 CURVE SMOOTH",
"145 708 OFFCURVE",
"133 725 OFFCURVE",
"113 725 CURVE SMOOTH",
"92 725 OFFCURVE",
"82 709 OFFCURVE",
"82 678 CURVE SMOOTH"
);
}
);
width = 226;
}
);
note = j;
unicode = 006A;
},
{
glyphname = k;
lastChange = "2018-06-23 23:46:14 +0000";
layers = (
{
anchors = (
{
name = bottom;
position = "{242, 0}";
},
{
name = top;
position = "{283, 531}";
}
);
guideLines = (
{
angle = 90;
position = "{525, 673}";
}
);
layerId = "A772B137-1B4D-4AF9-A163-8433B0F153CB";
paths = (
{
closed = 1;
nodes = (
"137 379 LINE",
"137 760 LINE",
"89 760 LINE",
"89 0 LINE",
"137 0 LINE",
"137 189 LINE",
"224 268 LINE",
"426 0 LINE",
"484 0 LINE",
"257 304 LINE",
"466 531 LINE",
"407 531 LINE",
"136 233 LINE",
"134 233 LINE"
);
}
);
width = 484;
}
);
note = k;
unicode = 006B;
},
{
glyphname = l;
lastChange = "2018-06-23 23:46:14 +0000";
layers = (
{
anchors = (
{
name = bottom;
position = "{113, 0}";
},
{
name = center;
position = "{113, 266}";
},
{
name = top;
position = "{276, 531}";
},
{
name = topright;
position = "{216, 531}";
}
);
layerId = "A772B137-1B4D-4AF9-A163-8433B0F153CB";
paths = (
{
closed = 1;
nodes = (
"89 760 LINE",
"89 0 LINE",
"137 0 LINE",
"137 760 LINE"
);
}
);
width = 226;
}
);
note = l;
unicode = 006C;
},
{
glyphname = m;
lastChange = "2018-06-23 23:46:14 +0000";
layers = (
{
anchors = (
{
name = bottom;
position = "{441, 0}";
},
{
name = top;
position = "{441, 531}";
}
);
layerId = "A772B137-1B4D-4AF9-A163-8433B0F153CB";
paths = (
{
closed = 1;
nodes = (
"800 347 LINE SMOOTH",
"800 482 OFFCURVE",
"742 541 OFFCURVE",
"626 541 CURVE SMOOTH",
"552 541 OFFCURVE",
"492 507 OFFCURVE",
"457 447 CURVE",
"455 447 LINE",
"431 510 OFFCURVE",
"377 541 OFFCURVE",
"294 541 CURVE SMOOTH",
"229 541 OFFCURVE",
"171 511 OFFCURVE",
"142 458 CURVE",
"139 458 LINE",
"129 531 LINE",
"89 531 LINE",
"89 0 LINE",
"137 0 LINE",
"137 293 LINE SMOOTH",
"137 436 OFFCURVE",
"186 497 OFFCURVE",
"297 497 CURVE SMOOTH",
"379 497 OFFCURVE",
"420 452 OFFCURVE",
"420 363 CURVE SMOOTH",
"420 0 LINE",
"469 0 LINE",
"469 311 LINE SMOOTH",
"469 439 OFFCURVE",
"520 497 OFFCURVE",
"629 497 CURVE SMOOTH",
"712 497 OFFCURVE",
"752 452 OFFCURVE",
"752 348 CURVE SMOOTH",
"752 0 LINE",
"800 0 LINE"
);
}
);
width = 883;
}
);
note = m;
unicode = 006D;
},
{
glyphname = n;
lastChange = "2018-06-23 23:46:14 +0000";
layers = (
{
anchors = (
{
name = bottom;
position = "{295, 0}";
},
{
name = top;
position = "{295, 531}";
}
);
layerId = "A772B137-1B4D-4AF9-A163-8433B0F153CB";
paths = (
{
closed = 1;
nodes = (
"507 347 LINE SMOOTH",
"507 477 OFFCURVE",
"447 541 OFFCURVE",
"326 541 CURVE SMOOTH",
"238 541 OFFCURVE",
"177 513 OFFCURVE",
"142 458 CURVE",
"139 458 LINE",
"130 531 LINE",
"89 531 LINE",
"89 0 LINE",
"137 0 LINE",
"137 293 LINE SMOOTH",
"137 437 OFFCURVE",
"194 497 OFFCURVE",
"321 497 CURVE SMOOTH",
"415 497 OFFCURVE",
"459 451 OFFCURVE",
"459 344 CURVE SMOOTH",
"459 0 LINE",
"507 0 LINE"
);
}
);
width = 590;
}
);
note = n;
unicode = 006E;
},
{
glyphname = o;
lastChange = "2018-06-23 23:46:14 +0000";
layers = (
{
anchors = (
{
name = bottom;
position = "{293, 0}";
},
{
name = center;
position = "{293, 266}";
},
{
name = ogonek;
position = "{527, 5}";
},
{
name = top;
position = "{293, 531}";
},
{
name = topright;
position = "{576, 531}";
}
);
layerId = "A772B137-1B4D-4AF9-A163-8433B0F153CB";
paths = (
{
closed = 1;
nodes = (
"528 437 OFFCURVE",
"440 541 OFFCURVE",
"294 541 CURVE SMOOTH",
"147 541 OFFCURVE",
"58 439 OFFCURVE",
"58 266 CURVE SMOOTH",
"58 211 OFFCURVE",
"67 163 OFFCURVE",
"86 121 CURVE SMOOTH",
"124 37 OFFCURVE",
"198 -10 OFFCURVE",
"291 -10 CURVE SMOOTH",
"439 -10 OFFCURVE",
"528 93 OFFCURVE",
"528 266 CURVE SMOOTH"
);
},
{
closed = 1;
nodes = (
"109 413 OFFCURVE",
"175 497 OFFCURVE",
"292 497 CURVE SMOOTH",
"409 497 OFFCURVE",
"477 413 OFFCURVE",
"477 266 CURVE SMOOTH",
"477 120 OFFCURVE",
"410 34 OFFCURVE",
"293 34 CURVE SMOOTH",
"176 34 OFFCURVE",
"109 120 OFFCURVE",
"109 266 CURVE SMOOTH"
);
}
);
width = 586;
}
);
note = o;
unicode = 006F;
},
{
glyphname = p;
lastChange = "2018-06-23 23:46:14 +0000";
layers = (
{
anchors = (
{
name = bottom;
position = "{298, 0}";
},
{
name = top;
position = "{298, 531}";
}
);
layerId = "A772B137-1B4D-4AF9-A163-8433B0F153CB";
paths = (
{
closed = 1;
nodes = (
"453 -10 OFFCURVE",
"537 91 OFFCURVE",
"537 265 CURVE SMOOTH",
"537 445 OFFCURVE",
"460 541 OFFCURVE",
"317 541 CURVE SMOOTH",
"237 541 OFFCURVE",
"179 512 OFFCURVE",
"142 455 CURVE",
"139 455 LINE",
"130 531 LINE",
"89 531 LINE",
"89 -240 LINE",
"137 -240 LINE",
"137 -38 LINE SMOOTH",
"137 -9 OFFCURVE",
"137 17 OFFCURVE",
"135 41 CURVE SMOOTH",
"134 82 LINE",
"137 82 LINE",
"175 21 OFFCURVE",
"234 -10 OFFCURVE",
"316 -10 CURVE SMOOTH"
);
},
{
closed = 1;
nodes = (
"189 33 OFFCURVE",
"137 98 OFFCURVE",
"137 264 CURVE SMOOTH",
"137 280 LINE SMOOTH",
"137 434 OFFCURVE",
"193 497 OFFCURVE",
"317 497 CURVE SMOOTH",
"430 497 OFFCURVE",
"486 419 OFFCURVE",
"486 263 CURVE SMOOTH",
"486 118 OFFCURVE",
"424 33 OFFCURVE",
"315 33 CURVE SMOOTH"
);
}
);
width = 595;
}
);
note = p;
unicode = 0070;
},
{
glyphname = q;
lastChange = "2018-06-23 23:46:14 +0000";
layers = (
{
anchors = (
{
name = bottom;
position = "{298, 0}";
},
{
name = top;
position = "{298, 531}";
}
);
layerId = "A772B137-1B4D-4AF9-A163-8433B0F153CB";
paths = (
{
closed = 1;
nodes = (
"359 -10 OFFCURVE",
"419 21 OFFCURVE",
"458 83 CURVE",
"461 83 LINE",
"459 42 OFFCURVE",
"458 1 OFFCURVE",
"458 -38 CURVE SMOOTH",
"458 -240 LINE",
"506 -240 LINE",
"506 531 LINE",
"465 531 LINE",
"456 456 LINE",
"453 456 LINE",
"415 513 OFFCURVE",
"357 541 OFFCURVE",
"281 541 CURVE SMOOTH",
"138 541 OFFCURVE",
"58 439 OFFCURVE",
"58 260 CURVE SMOOTH",
"58 85 OFFCURVE",
"139 -10 OFFCURVE",
"278 -10 CURVE SMOOTH"
);
},
{
closed = 1;
nodes = (
"169 33 OFFCURVE",
"109 110 OFFCURVE",
"109 259 CURVE SMOOTH",
"109 415 OFFCURVE",
"169 497 OFFCURVE",
"284 497 CURVE SMOOTH",
"405 497 OFFCURVE",
"458 431 OFFCURVE",
"458 271 CURVE SMOOTH",
"458 265 LINE SMOOTH",
"458 98 OFFCURVE",
"408 33 OFFCURVE",
"279 33 CURVE SMOOTH"
);
}
);
width = 595;
}
);
note = q;
unicode = 0071;
},
{
glyphname = r;
lastChange = "2018-06-23 23:46:14 +0000";
layers = (
{
anchors = (
{
name = bottom;
position = "{195, 0}";
},
{
name = top;
position = "{195, 531}";
}
);
layerId = "A772B137-1B4D-4AF9-A163-8433B0F153CB";
paths = (
{
closed = 1;
nodes = (
"228 541 OFFCURVE",
"182 513 OFFCURVE",
"138 435 CURVE",
"135 435 LINE",
"130 531 LINE",
"89 531 LINE",
"89 0 LINE",
"137 0 LINE",
"137 293 LINE SMOOTH",
"137 410 OFFCURVE",
"202 496 OFFCURVE",
"292 496 CURVE SMOOTH",
"316 496 OFFCURVE",
"339 493 OFFCURVE",
"361 488 CURVE",
"370 534 LINE",
"344 539 OFFCURVE",
"320 541 OFFCURVE",
"298 541 CURVE SMOOTH"
);
}
);
width = 389;
}
);
note = r;
unicode = 0072;
},
{
glyphname = s;
lastChange = "2018-06-23 23:46:14 +0000";
layers = (
{
anchors = (
{
name = bottom;
position = "{233, 0}";
},
{
name = top;
position = "{233, 531}";
}
);
layerId = "A772B137-1B4D-4AF9-A163-8433B0F153CB";
paths = (
{
closed = 1;
nodes = (
"418 162 OFFCURVE",
"413 183 OFFCURVE",
"402 200 CURVE SMOOTH",
"380 235 OFFCURVE",
"344 259 OFFCURVE",
"248 294 CURVE SMOOTH",
"191 314 OFFCURVE",
"152 333 OFFCURVE",
"133 350 CURVE SMOOTH",
"113 366 OFFCURVE",
"103 388 OFFCURVE",
"103 416 CURVE SMOOTH",
"103 467 OFFCURVE",
"158 497 OFFCURVE",
"244 497 CURVE SMOOTH",
"289 497 OFFCURVE",
"337 486 OFFCURVE",
"389 465 CURVE",
"407 509 LINE",
"356 530 OFFCURVE",
"301 541 OFFCURVE",
"244 541 CURVE SMOOTH",
"125 541 OFFCURVE",
"54 492 OFFCURVE",
"54 412 CURVE SMOOTH",
"54 362 OFFCURVE",
"76 329 OFFCURVE",
"119 302 CURVE SMOOTH",
"141 288 OFFCURVE",
"178 271 OFFCURVE",
"231 252 CURVE SMOOTH",
"330 217 OFFCURVE",
"370 184 OFFCURVE",
"370 131 CURVE SMOOTH",
"370 73 OFFCURVE",
"315 35 OFFCURVE",
"210 35 CURVE SMOOTH",
"151 35 OFFCURVE",
"94 48 OFFCURVE",
"41 75 CURVE",
"41 23 LINE",
"83 1 OFFCURVE",
"139 -10 OFFCURVE",
"210 -10 CURVE SMOOTH",
"343 -10 OFFCURVE",
"418 43 OFFCURVE",
"418 138 CURVE SMOOTH"
);
}
);
width = 466;
}
);
note = s;
unicode = 0073;
},
{
glyphname = t;
lastChange = "2018-06-23 23:46:14 +0000";
layers = (
{
anchors = (
{
name = bottom;
position = "{167, 0}";
},
{
name = center;
position = "{167, 266}";
},
{
name = top;
position = "{244, 531}";
},
{
name = topright;
position = "{325, 531}";
}
);
layerId = "A772B137-1B4D-4AF9-A163-8433B0F153CB";
paths = (
{
closed = 1;
nodes = (
"168 33 OFFCURVE",
"140 71 OFFCURVE",
"140 153 CURVE SMOOTH",
"140 489 LINE",
"296 489 LINE",
"296 531 LINE",
"140 531 LINE",
"140 659 LINE",
"115 659 LINE",
"91 539 LINE",
"12 517 LINE",
"12 489 LINE",
"91 489 LINE",
"91 146 LINE SMOOTH",
"91 39 OFFCURVE",
"134 -10 OFFCURVE",
"228 -10 CURVE SMOOTH",
"259 -10 OFFCURVE",
"286 -6 OFFCURVE",
"309 2 CURVE",
"309 41 LINE",
"286 36 OFFCURVE",
"260 33 OFFCURVE",
"229 33 CURVE SMOOTH"
);
}
);
width = 335;
}
);
note = t;
unicode = 0074;
},
{
glyphname = u;
lastChange = "2018-06-23 23:46:14 +0000";
layers = (
{
anchors = (
{
name = bottom;
position = "{295, 0}";
},
{
name = ogonek;
position = "{531, 5}";
},
{
name = top;
position = "{295, 531}";
},
{
name = topright;
position = "{580, 531}";
}
);
layerId = "A772B137-1B4D-4AF9-A163-8433B0F153CB";
paths = (
{
closed = 1;
nodes = (
"83 184 LINE SMOOTH",
"83 55 OFFCURVE",
"144 -10 OFFCURVE",
"264 -10 CURVE SMOOTH",
"353 -10 OFFCURVE",
"414 18 OFFCURVE",
"448 73 CURVE",
"451 73 LINE",
"460 0 LINE",
"501 0 LINE",
"501 531 LINE",
"453 531 LINE",
"453 238 LINE SMOOTH",
"453 94 OFFCURVE",
"396 34 OFFCURVE",
"269 34 CURVE SMOOTH",
"175 34 OFFCURVE",
"131 80 OFFCURVE",
"131 187 CURVE SMOOTH",
"131 531 LINE",
"83 531 LINE"
);
}
);
width = 590;
}
);
note = u;
unicode = 0075;
},
{
glyphname = v;
lastChange = "2018-06-23 23:46:14 +0000";
layers = (
{
anchors = (
{
name = bottom;
position = "{229, 0}";
},
{
name = top;
position = "{229, 531}";
}
);
layerId = "A772B137-1B4D-4AF9-A163-8433B0F153CB";
paths = (
{
closed = 1;
nodes = (
"459 531 LINE",
"409 531 LINE",
"272 171 LINE SMOOTH",
"258 134 OFFCURVE",
"244 93 OFFCURVE",
"231 49 CURVE",
"228 49 LINE",
"219 83 OFFCURVE",
"205 124 OFFCURVE",
"187 170 CURVE SMOOTH",
"50 531 LINE",
"0 531 LINE",
"205 0 LINE",
"254 0 LINE"
);
}
);
width = 459;
}
);
note = v;
unicode = 0076;
},
{
glyphname = w;
lastChange = "2018-06-23 23:46:14 +0000";
layers = (
{
anchors = (
{
name = bottom;
position = "{362, 0}";
},
{
name = top;
position = "{362, 531}";
}
);
layerId = "A772B137-1B4D-4AF9-A163-8433B0F153CB";
paths = (
{
closed = 1;
nodes = (
"708 531 LINE",
"659 531 LINE",
"578 226 LINE SMOOTH",
"555 134 OFFCURVE",
"542 77 OFFCURVE",
"539 56 CURVE",
"536 56 LINE",
"531 81 OFFCURVE",
"517 131 OFFCURVE",
"493 208 CURVE SMOOTH",
"389 531 LINE",
"345 531 LINE",
"236 207 LINE SMOOTH",
"227 182 OFFCURVE",
"213 131 OFFCURVE",
"194 55 CURVE",
"191 55 LINE",
"185 91 OFFCURVE",
"172 147 OFFCURVE",
"152 223 CURVE SMOOTH",
"67 531 LINE",
"15 531 LINE",
"167 0 LINE",
"215 0 LINE",
"333 354 LINE",
"355 425 LINE",
"365 461 LINE",
"368 461 LINE",
"380 415 OFFCURVE",
"390 379 OFFCURVE",
"397 355 CURVE SMOOTH",
"513 0 LINE",
"564 0 LINE"
);
}
);
width = 723;
}
);
note = w;
unicode = 0077;
},
{
glyphname = x;
lastChange = "2018-06-23 23:46:14 +0000";
layers = (
{
anchors = (
{
name = bottom;
position = "{249, 0}";
},
{
name = top;
position = "{249, 531}";
}
);
layerId = "A772B137-1B4D-4AF9-A163-8433B0F153CB";
paths = (
{
closed = 1;
nodes = (
"80 0 LINE",
"248 237 LINE",
"415 0 LINE",
"471 0 LINE",
"276 273 LINE",
"458 531 LINE",
"405 531 LINE",
"248 307 LINE",
"90 531 LINE",
"34 531 LINE",
"219 273 LINE",
"27 0 LINE"
);
}
);
width = 498;
}
);
note = x;
unicode = 0078;
},
{
glyphname = y;
lastChange = "2018-06-23 23:46:14 +0000";
layers = (
{
anchors = (
{
name = bottom;
position = "{229, 0}";
},
{
name = top;
position = "{229, 531}";
}
);
layerId = "A772B137-1B4D-4AF9-A163-8433B0F153CB";
paths = (
{
closed = 1;
nodes = (
"195 -21 OFFCURVE",
"162 -115 OFFCURVE",
"142 -147 CURVE SMOOTH",
"121 -181 OFFCURVE",
"96 -196 OFFCURVE",
"63 -196 CURVE SMOOTH",
"41 -196 OFFCURVE",
"21 -193 OFFCURVE",
"2 -188 CURVE",
"2 -230 LINE",
"25 -237 OFFCURVE",
"45 -240 OFFCURVE",
"64 -240 CURVE SMOOTH",
"113 -240 OFFCURVE",
"147 -223 OFFCURVE",
"173 -188 CURVE SMOOTH",
"186 -170 OFFCURVE",
"202 -136 OFFCURVE",
"221 -86 CURVE SMOOTH",
"459 531 LINE",
"409 531 LINE",
"297 236 LINE SMOOTH",
"266 152 OFFCURVE",
"244 90 OFFCURVE",
"230 48 CURVE",
"227 48 LINE",
"218 80 OFFCURVE",
"196 142 OFFCURVE",
"162 233 CURVE SMOOTH",
"50 531 LINE",
"0 531 LINE",
"203 0 LINE"
);
}
);
width = 459;
}
);
note = y;
unicode = 0079;
},
{
glyphname = z;
lastChange = "2018-06-23 23:46:14 +0000";
layers = (
{
anchors = (
{
name = bottom;
position = "{230, 0}";
},
{
name = top;
position = "{230, 531}";
}
);
layerId = "A772B137-1B4D-4AF9-A163-8433B0F153CB";
paths = (
{
closed = 1;
nodes = (
"101 43 LINE",
"418 500 LINE",
"418 531 LINE",
"63 531 LINE",
"63 488 LINE",
"355 488 LINE",
"40 31 LINE",
"40 0 LINE",
"419 0 LINE",
"419 43 LINE"
);
}
);
width = 461;
}
);
note = z;
unicode = 007A;
},
{
glyphname = braceleft;
lastChange = "2018-06-23 23:46:14 +0000";
layers = (
{
layerId = "A772B137-1B4D-4AF9-A163-8433B0F153CB";
paths = (
{
closed = 1;
nodes = (
"190 224 OFFCURVE",
"162 263 OFFCURVE",
"99 276 CURVE",
"99 280 LINE",
"163 293 OFFCURVE",
"190 332 OFFCURVE",
"190 416 CURVE SMOOTH",
"190 565 LINE SMOOTH",
"190 633 OFFCURVE",
"228 667 OFFCURVE",
"318 670 CURVE",
"318 714 LINE",
"201 712 OFFCURVE",
"142 662 OFFCURVE",
"142 565 CURVE SMOOTH",
"142 394 LINE SMOOTH",
"142 330 OFFCURVE",
"109 298 OFFCURVE",
"30 297 CURVE",
"30 258 LINE",
"104 256 OFFCURVE",
"142 223 OFFCURVE",
"142 156 CURVE SMOOTH",
"142 -9 LINE SMOOTH",
"142 -110 OFFCURVE",
"191 -158 OFFCURVE",
"318 -158 CURVE",
"318 -114 LINE",
"225 -112 OFFCURVE",
"190 -80 OFFCURVE",
"190 -13 CURVE SMOOTH",
"190 144 LINE SMOOTH"
);
}
);
width = 353;
}
);
note = braceleft;
unicode = 007B;
},
{
glyphname = bar;
lastChange = "2018-06-23 23:46:14 +0000";
layers = (
{
layerId = "A772B137-1B4D-4AF9-A163-8433B0F153CB";
paths = (
{
closed = 1;
nodes = (
"293 -247 LINE",
"293 762 LINE",
"248 762 LINE",
"248 -247 LINE"
);
}
);
width = 541;
}
);
note = bar;
unicode = 007C;
},
{
glyphname = braceright;
lastChange = "2018-06-23 23:46:14 +0000";
layers = (
{
layerId = "A772B137-1B4D-4AF9-A163-8433B0F153CB";
paths = (
{
closed = 1;
nodes = (
"163 -80 OFFCURVE",
"127 -112 OFFCURVE",
"35 -114 CURVE",
"35 -158 LINE",
"162 -158 OFFCURVE",
"211 -110 OFFCURVE",
"211 -9 CURVE SMOOTH",
"211 156 LINE SMOOTH",
"211 223 OFFCURVE",
"249 256 OFFCURVE",
"323 258 CURVE",
"323 297 LINE",
"245 298 OFFCURVE",
"211 329 OFFCURVE",
"211 394 CURVE SMOOTH",
"211 565 LINE SMOOTH",
"211 663 OFFCURVE",
"148 714 OFFCURVE",
"35 714 CURVE",
"35 670 LINE",
"125 667 OFFCURVE",
"163 632 OFFCURVE",
"163 565 CURVE SMOOTH",
"163 416 LINE SMOOTH",
"163 331 OFFCURVE",
"191 293 OFFCURVE",
"254 280 CURVE",
"254 276 LINE",
"191 263 OFFCURVE",
"163 224 OFFCURVE",
"163 144 CURVE SMOOTH",
"163 -13 LINE SMOOTH"
);
}
);
width = 353;
}
);
note = braceright;
unicode = 007D;
},
{
glyphname = asciitilde;
lastChange = "2018-06-23 23:46:14 +0000";
layers = (
{
layerId = "A772B137-1B4D-4AF9-A163-8433B0F153CB";
paths = (
{
closed = 1;
nodes = (
"195 364 OFFCURVE",
"230 354 OFFCURVE",
"271 336 CURVE SMOOTH",
"321 313 OFFCURVE",
"365 301 OFFCURVE",
"403 301 CURVE SMOOTH",
"450 301 OFFCURVE",
"486 324 OFFCURVE",
"517 356 CURVE",
"517 403 LINE",
"477 361 OFFCURVE",
"444 342 OFFCURVE",
"407 342 CURVE SMOOTH",
"376 342 OFFCURVE",
"341 351 OFFCURVE",
"300 370 CURVE SMOOTH",
"234 399 OFFCURVE",
"208 405 OFFCURVE",
"168 405 CURVE SMOOTH",
"127 405 OFFCURVE",
"89 387 OFFCURVE",
"54 351 CURVE",
"54 305 LINE",
"91 344 OFFCURVE",
"131 364 OFFCURVE",
"163 364 CURVE SMOOTH"
);
}
);
width = 571;
}
);
note = asciitilde;
unicode = 007E;
},
{
glyphname = exclamdown;
lastChange = "2018-06-23 23:46:14 +0000";
layers = (
{
layerId = "A772B137-1B4D-4AF9-A163-8433B0F153CB";
paths = (
{
closed = 1;
nodes = (
"149 -183 LINE",
"135 347 LINE",
"105 347 LINE",
"91 -183 LINE"
);
},
{
closed = 1;
nodes = (
"81 458 OFFCURVE",
"98 445 OFFCURVE",
"120 445 CURVE SMOOTH",
"143 445 OFFCURVE",
"160 458 OFFCURVE",
"160 493 CURVE SMOOTH",
"160 525 OFFCURVE",
"147 541 OFFCURVE",
"120 541 CURVE SMOOTH",
"94 541 OFFCURVE",
"81 525 OFFCURVE",
"81 493 CURVE SMOOTH"
);
}
);
width = 240;
}
);
note = exclamdown;
unicode = 00A1;
},
{
glyphname = cent;
lastChange = "2018-06-23 23:46:14 +0000";
layers = (
{
layerId = "A772B137-1B4D-4AF9-A163-8433B0F153CB";
paths = (
{
closed = 1;
nodes = (
"334 -10 LINE",
"334 90 LINE",
"340 90 LINE SMOOTH",
"391 90 OFFCURVE",
"435 99 OFFCURVE",
"470 117 CURVE",
"470 162 LINE",
"426 143 OFFCURVE",
"382 134 OFFCURVE",
"340 134 CURVE SMOOTH",
"223 134 OFFCURVE",
"154 219 OFFCURVE",
"154 365 CURVE SMOOTH",
"154 519 OFFCURVE",
"223 600 OFFCURVE",
"344 600 CURVE SMOOTH",
"378 600 OFFCURVE",
"417 592 OFFCURVE",
"460 575 CURVE",
"475 616 LINE",
"428 634 OFFCURVE",
"383 643 OFFCURVE",
"341 643 CURVE SMOOTH",
"334 643 LINE",
"334 724 LINE",
"294 724 LINE",
"294 639 LINE",
"173 618 OFFCURVE",
"103 515 OFFCURVE",
"103 364 CURVE SMOOTH",
"103 211 OFFCURVE",
"173 112 OFFCURVE",
"294 93 CURVE",
"294 -10 LINE"
);
}
);
width = 571;
}
);
note = cent;
unicode = 00A2;
},
{
glyphname = sterling;
lastChange = "2018-06-23 23:46:14 +0000";
layers = (
{
layerId = "A772B137-1B4D-4AF9-A163-8433B0F153CB";
paths = (
{
closed = 1;
nodes = (
"402 370 LINE",
"201 370 LINE",
"201 517 LINE SMOOTH",
"201 629 OFFCURVE",
"245 680 OFFCURVE",
"337 680 CURVE SMOOTH",
"382 680 OFFCURVE",
"430 669 OFFCURVE",
"481 648 CURVE",
"498 690 LINE",
"448 712 OFFCURVE",
"394 723 OFFCURVE",
"337 723 CURVE SMOOTH",
"218 723 OFFCURVE",
"152 648 OFFCURVE",
"152 515 CURVE SMOOTH",
"152 370 LINE",
"49 370 LINE",
"49 330 LINE",
"152 330 LINE",
"152 204 LINE SMOOTH",
"152 116 OFFCURVE",
"110 55 OFFCURVE",
"38 41 CURVE",
"38 0 LINE",
"524 0 LINE",
"524 47 LINE",
"129 47 LINE",
"180 78 OFFCURVE",
"201 129 OFFCURVE",
"201 205 CURVE SMOOTH",
"201 330 LINE",
"402 330 LINE"
);
}
);
width = 571;
}
);
note = sterling;
unicode = 00A3;
},
{
glyphname = currency;
lastChange = "2018-06-23 23:46:14 +0000";
layers = (
{
layerId = "A772B137-1B4D-4AF9-A163-8433B0F153CB";
paths = (
{
closed = 1;
nodes = (
"484 401 OFFCURVE",
"469 443 OFFCURVE",
"440 479 CURVE",
"508 548 LINE",
"479 577 LINE",
"412 508 LINE",
"378 538 OFFCURVE",
"335 553 OFFCURVE",
"285 553 CURVE SMOOTH",
"234 553 OFFCURVE",
"192 538 OFFCURVE",
"158 508 CURVE",
"91 577 LINE",
"62 548 LINE",
"130 479 LINE",
"101 443 OFFCURVE",
"86 401 OFFCURVE",
"86 353 CURVE SMOOTH",
"86 304 OFFCURVE",
"101 263 OFFCURVE",
"130 228 CURVE",
"62 159 LINE",
"91 130 LINE",
"158 199 LINE",
"193 169 OFFCURVE",
"235 154 OFFCURVE",
"285 154 CURVE SMOOTH",
"334 154 OFFCURVE",
"376 169 OFFCURVE",
"412 199 CURVE",
"479 130 LINE",
"508 159 LINE",
"440 228 LINE",
"469 262 OFFCURVE",
"484 304 OFFCURVE",
"484 353 CURVE SMOOTH"
);
},
{
closed = 1;
nodes = (
"197 193 OFFCURVE",
"127 265 OFFCURVE",
"127 353 CURVE SMOOTH",
"127 441 OFFCURVE",
"198 514 OFFCURVE",
"285 514 CURVE SMOOTH",
"372 514 OFFCURVE",
"443 441 OFFCURVE",
"443 353 CURVE SMOOTH",
"443 264 OFFCURVE",
"373 193 OFFCURVE",
"285 193 CURVE SMOOTH"
);
}
);
width = 571;
}
);
note = currency;
unicode = 00A4;
},
{
glyphname = yen;
lastChange = "2018-06-23 23:46:14 +0000";
layers = (
{
layerId = "A772B137-1B4D-4AF9-A163-8433B0F153CB";
paths = (
{
closed = 1;
nodes = (
"21 714 LINE",
"231 329 LINE",
"95 329 LINE",
"95 289 LINE",
"260 289 LINE",
"260 189 LINE",
"95 189 LINE",
"95 149 LINE",
"260 149 LINE",
"260 0 LINE",
"311 0 LINE",
"311 149 LINE",
"476 149 LINE",
"476 189 LINE",
"311 189 LINE",
"311 289 LINE",
"476 289 LINE",
"476 329 LINE",
"338 329 LINE",
"549 714 LINE",
"495 714 LINE",
"286 325 LINE",
"78 714 LINE"
);
}
);
width = 571;
}
);
note = yen;
unicode = 00A5;
},
{
glyphname = brokenbar;
lastChange = "2018-06-23 23:46:14 +0000";
layers = (
{
layerId = "A772B137-1B4D-4AF9-A163-8433B0F153CB";
paths = (
{
closed = 1;
nodes = (
"293 389 LINE",
"293 762 LINE",
"248 762 LINE",
"248 389 LINE"
);
},
{
closed = 1;
nodes = (
"293 -247 LINE",
"293 126 LINE",
"248 126 LINE",
"248 -247 LINE"
);
}
);
width = 541;
}
);
note = brokenbar;
unicode = 00A6;
},
{
glyphname = section;
lastChange = "2018-06-23 23:46:14 +0000";
layers = (
{
layerId = "A772B137-1B4D-4AF9-A163-8433B0F153CB";
paths = (
{
closed = 1;
nodes = (
"71 331 OFFCURVE",
"108 292 OFFCURVE",
"239 245 CURVE SMOOTH",
"280 230 OFFCURVE",
"311 217 OFFCURVE",
"332 207 CURVE SMOOTH",
"373 185 OFFCURVE",
"387 167 OFFCURVE",
"387 132 CURVE SMOOTH",
"387 73 OFFCURVE",
"331 39 OFFCURVE",
"225 39 CURVE SMOOTH",
"176 39 OFFCURVE",
"122 52 OFFCURVE",
"63 77 CURVE",
"63 31 LINE",
"119 7 OFFCURVE",
"167 -2 OFFCURVE",
"227 -2 CURVE SMOOTH",
"356 -2 OFFCURVE",
"434 47 OFFCURVE",
"434 135 CURVE SMOOTH",
"434 188 OFFCURVE",
"406 221 OFFCURVE",
"350 248 CURVE",
"411 281 OFFCURVE",
"441 326 OFFCURVE",
"441 382 CURVE SMOOTH",
"441 448 OFFCURVE",
"402 488 OFFCURVE",
"277 530 CURVE SMOOTH",
"235 544 OFFCURVE",
"205 556 OFFCURVE",
"185 566 CURVE SMOOTH",
"146 586 OFFCURVE",
"131 606 OFFCURVE",
"131 641 CURVE SMOOTH",
"131 690 OFFCURVE",
"179 721 OFFCURVE",
"266 721 CURVE SMOOTH",
"316 721 OFFCURVE",
"355 714 OFFCURVE",
"414 692 CURVE",
"431 731 LINE",
"379 752 OFFCURVE",
"324 762 OFFCURVE",
"267 762 CURVE SMOOTH",
"154 762 OFFCURVE",
"83 716 OFFCURVE",
"83 640 CURVE SMOOTH",
"83 587 OFFCURVE",
"107 555 OFFCURVE",
"163 524 CURVE",
"106 499 OFFCURVE",
"71 451 OFFCURVE",
"71 397 CURVE SMOOTH"
);
},
{
closed = 1;
nodes = (
"120 450 OFFCURVE",
"155 489 OFFCURVE",
"208 504 CURVE",
"260 488 OFFCURVE",
"299 474 OFFCURVE",
"324 461 CURVE SMOOTH",
"374 438 OFFCURVE",
"392 415 OFFCURVE",
"392 374 CURVE SMOOTH",
"392 333 OFFCURVE",
"362 294 OFFCURVE",
"309 267 CURVE",
"252 288 OFFCURVE",
"211 304 OFFCURVE",
"187 315 CURVE SMOOTH",
"139 339 OFFCURVE",
"120 360 OFFCURVE",
"120 403 CURVE SMOOTH"
);
}
);
width = 516;
}
);
note = section;
unicode = 00A7;
},
{
glyphname = dieresis;
lastChange = "2018-06-23 23:46:14 +0000";
layers = (
{
layerId = "A772B137-1B4D-4AF9-A163-8433B0F153CB";
paths = (
{
closed = 1;
nodes = (
"164 650 OFFCURVE",
"174 636 OFFCURVE",
"195 636 CURVE SMOOTH",
"216 636 OFFCURVE",
"226 650 OFFCURVE",
"226 678 CURVE SMOOTH",
"226 706 OFFCURVE",
"216 720 OFFCURVE",
"195 720 CURVE SMOOTH",
"174 720 OFFCURVE",
"164 708 OFFCURVE",
"164 678 CURVE SMOOTH"
);
},
{
closed = 1;
nodes = (
"350 650 OFFCURVE",
"360 636 OFFCURVE",
"381 636 CURVE SMOOTH",
"402 636 OFFCURVE",
"412 650 OFFCURVE",
"412 678 CURVE SMOOTH",
"412 706 OFFCURVE",
"402 720 OFFCURVE",
"381 720 CURVE SMOOTH",
"360 720 OFFCURVE",
"350 708 OFFCURVE",
"350 678 CURVE SMOOTH"
);
}
);
width = 577;
}
);
note = dieresis;
unicode = 00A8;
},
{
glyphname = copyright;
lastChange = "2018-06-23 23:46:14 +0000";
layers = (
{
layerId = "A772B137-1B4D-4AF9-A163-8433B0F153CB";
paths = (
{
closed = 1;
nodes = (
"468 533 OFFCURVE",
"499 526 OFFCURVE",
"531 511 CURVE",
"549 552 LINE",
"514 569 OFFCURVE",
"477 577 OFFCURVE",
"438 577 CURVE SMOOTH",
"317 577 OFFCURVE",
"239 489 OFFCURVE",
"239 354 CURVE SMOOTH",
"239 213 OFFCURVE",
"308 136 OFFCURVE",
"429 136 CURVE SMOOTH",
"464 136 OFFCURVE",
"498 144 OFFCURVE",
"531 158 CURVE",
"531 201 LINE",
"494 187 OFFCURVE",
"461 180 OFFCURVE",
"434 180 CURVE SMOOTH",
"339 180 OFFCURVE",
"290 237 OFFCURVE",
"290 358 CURVE SMOOTH",
"290 469 OFFCURVE",
"346 533 OFFCURVE",
"438 533 CURVE SMOOTH"
);
},
{
closed = 1;
nodes = (
"49 292 OFFCURVE",
"65 232 OFFCURVE",
"97 176 CURVE SMOOTH",
"160 63 OFFCURVE",
"281 -10 OFFCURVE",
"416 -10 CURVE SMOOTH",
"484 -10 OFFCURVE",
"546 7 OFFCURVE",
"603 41 CURVE SMOOTH",
"717 109 OFFCURVE",
"783 229 OFFCURVE",
"783 357 CURVE SMOOTH",
"783 423 OFFCURVE",
"767 484 OFFCURVE",
"734 541 CURVE SMOOTH",
"668 655 OFFCURVE",
"546 724 OFFCURVE",
"416 724 CURVE SMOOTH",
"350 724 OFFCURVE",
"289 708 OFFCURVE",
"232 675 CURVE SMOOTH",
"118 609 OFFCURVE",
"49 487 OFFCURVE",
"49 357 CURVE SMOOTH"
);
},
{
closed = 1;
nodes = (
"94 414 OFFCURVE",
"109 467 OFFCURVE",
"138 518 CURVE SMOOTH",
"196 618 OFFCURVE",
"301 679 OFFCURVE",
"416 679 CURVE SMOOTH",
"475 679 OFFCURVE",
"529 664 OFFCURVE",
"580 634 CURVE SMOOTH",
"679 574 OFFCURVE",
"738 470 OFFCURVE",
"738 357 CURVE SMOOTH",
"738 299 OFFCURVE",
"723 245 OFFCURVE",
"694 196 CURVE SMOOTH",
"636 97 OFFCURVE",
"532 35 OFFCURVE",
"416 35 CURVE SMOOTH",
"358 35 OFFCURVE",
"304 50 OFFCURVE",
"255 79 CURVE SMOOTH",
"156 137 OFFCURVE",
"94 241 OFFCURVE",
"94 357 CURVE SMOOTH"
);
}
);
width = 832;
}
);
note = copyright;
unicode = 00A9;
},
{
glyphname = ordfeminine;
lastChange = "2018-06-23 23:46:14 +0000";
layers = (
{
layerId = "A772B137-1B4D-4AF9-A163-8433B0F153CB";
paths = (
{
closed = 1;
nodes = (
"283 617 LINE SMOOTH",
"283 687 OFFCURVE",
"246 722 OFFCURVE",
"172 722 CURVE SMOOTH",
"135 722 OFFCURVE",
"97 713 OFFCURVE",
"59 695 CURVE",
"75 659 LINE",
"111 675 OFFCURVE",
"143 683 OFFCURVE",
"171 683 CURVE SMOOTH",
"215 683 OFFCURVE",
"241 659 OFFCURVE",
"241 609 CURVE SMOOTH",
"241 588 LINE",
"195 586 LINE SMOOTH",
"90 581 OFFCURVE",
"38 548 OFFCURVE",
"38 483 CURVE SMOOTH",
"38 424 OFFCURVE",
"77 391 OFFCURVE",
"139 391 CURVE SMOOTH",
"178 391 OFFCURVE",
"210 405 OFFCURVE",
"238 432 CURVE",
"250 397 LINE",
"283 397 LINE"
);
},
{
closed = 1;
nodes = (
"82 529 OFFCURVE",
"123 547 OFFCURVE",
"198 551 CURVE SMOOTH",
"241 553 LINE",
"241 522 LINE SMOOTH",
"241 462 OFFCURVE",
"205 428 OFFCURVE",
"146 428 CURVE SMOOTH",
"106 428 OFFCURVE",
"82 450 OFFCURVE",
"82 485 CURVE SMOOTH"
);
}
);
width = 335;
}
);
note = ordfeminine;
unicode = 00AA;
},
{
glyphname = guillemotleft;
lastChange = "2018-06-23 23:46:14 +0000";
layers = (
{
layerId = "A772B137-1B4D-4AF9-A163-8433B0F153CB";
paths = (
{
closed = 1;
nodes = (
"191 61 LINE",
"221 82 LINE",
"97 259 LINE",
"221 436 LINE",
"191 457 LINE",
"40 265 LINE",
"40 252 LINE"
);
},
{
closed = 1;
nodes = (
"367 61 LINE",
"397 82 LINE",
"273 259 LINE",
"397 436 LINE",
"367 457 LINE",
"216 265 LINE",
"216 252 LINE"
);
}
);
width = 432;
}
);
note = guillemotleft;
unicode = 00AB;
},
{
glyphname = logicalnot;
lastChange = "2018-06-23 23:46:14 +0000";
layers = (
{
layerId = "A772B137-1B4D-4AF9-A163-8433B0F153CB";
paths = (
{
closed = 1;
nodes = (
"54 333 LINE",
"467 333 LINE",
"467 132 LINE",
"507 132 LINE",
"507 373 LINE",
"54 373 LINE"
);
}
);
width = 571;
}
);
note = logicalnot;
unicode = 00AC;
},
{
glyphname = registered;
lastChange = "2018-06-23 23:46:14 +0000";
layers = (
{
layerId = "A772B137-1B4D-4AF9-A163-8433B0F153CB";
paths = (
{
closed = 1;
nodes = (
"400 530 LINE SMOOTH",
"464 530 OFFCURVE",
"496 502 OFFCURVE",
"496 446 CURVE SMOOTH",
"496 388 OFFCURVE",
"460 357 OFFCURVE",
"401 357 CURVE SMOOTH",
"346 357 LINE",
"346 530 LINE"
);
},
{
closed = 1;
nodes = (
"547 532 OFFCURVE",
"493 572 OFFCURVE",
"400 572 CURVE SMOOTH",
"297 572 LINE",
"297 142 LINE",
"346 142 LINE",
"346 318 LINE",
"428 318 LINE",
"531 142 LINE",
"590 142 LINE",
"474 334 LINE",
"521 356 OFFCURVE",
"547 397 OFFCURVE",
"547 448 CURVE SMOOTH"
);
},
{
closed = 1;
nodes = (
"49 292 OFFCURVE",
"65 232 OFFCURVE",
"97 176 CURVE SMOOTH",
"160 63 OFFCURVE",
"281 -10 OFFCURVE",
"416 -10 CURVE SMOOTH",
"484 -10 OFFCURVE",
"546 7 OFFCURVE",
"603 41 CURVE SMOOTH",
"717 109 OFFCURVE",
"783 229 OFFCURVE",
"783 357 CURVE SMOOTH",
"783 423 OFFCURVE",
"767 484 OFFCURVE",
"734 541 CURVE SMOOTH",
"668 655 OFFCURVE",
"546 724 OFFCURVE",
"416 724 CURVE SMOOTH",
"350 724 OFFCURVE",
"289 708 OFFCURVE",
"232 675 CURVE SMOOTH",
"118 609 OFFCURVE",
"49 487 OFFCURVE",
"49 357 CURVE SMOOTH"
);
},
{
closed = 1;
nodes = (
"94 414 OFFCURVE",
"109 467 OFFCURVE",
"138 518 CURVE SMOOTH",
"196 618 OFFCURVE",
"301 679 OFFCURVE",
"416 679 CURVE SMOOTH",
"475 679 OFFCURVE",
"529 664 OFFCURVE",
"580 634 CURVE SMOOTH",
"679 574 OFFCURVE",
"738 470 OFFCURVE",
"738 357 CURVE SMOOTH",
"738 299 OFFCURVE",
"723 245 OFFCURVE",
"694 196 CURVE SMOOTH",
"636 97 OFFCURVE",
"532 35 OFFCURVE",
"416 35 CURVE SMOOTH",
"358 35 OFFCURVE",
"304 50 OFFCURVE",
"255 79 CURVE SMOOTH",
"156 137 OFFCURVE",
"94 241 OFFCURVE",
"94 357 CURVE SMOOTH"
);
}
);
width = 832;
}
);
note = registered;
unicode = 00AE;
},
{
glyphname = overscore;
lastChange = "2018-06-23 23:46:14 +0000";
layers = (
{
layerId = "A772B137-1B4D-4AF9-A163-8433B0F153CB";
paths = (
{
closed = 1;
nodes = (
"-3 800 LINE",
"-3 760 LINE",
"503 760 LINE",
"503 800 LINE"
);
}
);
width = 500;
}
);
note = overscore;
unicode = 00AF;
},
{
glyphname = degree;
lastChange = "2018-06-23 23:46:14 +0000";
layers = (
{
layerId = "A772B137-1B4D-4AF9-A163-8433B0F153CB";
paths = (
{
closed = 1;
nodes = (
"68 492 OFFCURVE",
"129 432 OFFCURVE",
"214 432 CURVE SMOOTH",
"296 432 OFFCURVE",
"360 492 OFFCURVE",
"360 578 CURVE SMOOTH",
"360 664 OFFCURVE",
"296 724 OFFCURVE",
"214 724 CURVE SMOOTH",
"132 724 OFFCURVE",
"68 664 OFFCURVE",
"68 578 CURVE SMOOTH"
);
},
{
closed = 1;
nodes = (
"112 636 OFFCURVE",
"155 684 OFFCURVE",
"214 684 CURVE SMOOTH",
"272 684 OFFCURVE",
"316 638 OFFCURVE",
"316 578 CURVE SMOOTH",
"316 518 OFFCURVE",
"270 472 OFFCURVE",
"214 472 CURVE SMOOTH",
"157 472 OFFCURVE",
"112 519 OFFCURVE",
"112 578 CURVE SMOOTH"
);
}
);
width = 428;
}
);
note = degree;
unicode = 00B0;
},
{
glyphname = twosuperior;
lastChange = "2018-06-23 23:46:14 +0000";
layers = (
{
layerId = "A772B137-1B4D-4AF9-A163-8433B0F153CB";
paths = (
{
closed = 1;
nodes = (
"89 329 LINE",
"176 414 OFFCURVE",
"226 464 OFFCURVE",
"240 479 CURVE SMOOTH",
"253 494 OFFCURVE",
"264 509 OFFCURVE",
"273 523 CURVE SMOOTH",
"291 551 OFFCURVE",
"299 577 OFFCURVE",
"299 608 CURVE SMOOTH",
"299 680 OFFCURVE",
"250 724 OFFCURVE",
"170 724 CURVE SMOOTH",
"121 724 OFFCURVE",
"77 708 OFFCURVE",
"38 674 CURVE",
"62 642 LINE",
"98 669 OFFCURVE",
"133 682 OFFCURVE",
"168 682 CURVE SMOOTH",
"218 682 OFFCURVE",
"251 653 OFFCURVE",
"251 607 CURVE SMOOTH",
"251 557 OFFCURVE",
"226 519 OFFCURVE",
"144 440 CURVE SMOOTH",
"26 324 LINE",
"26 286 LINE",
"307 286 LINE",
"307 329 LINE"
);
}
);
width = 336;
}
);
note = twosuperior;
unicode = 00B2;
},
{
glyphname = threesuperior;
lastChange = "2018-06-23 23:46:14 +0000";
layers = (
{
layerId = "A772B137-1B4D-4AF9-A163-8433B0F153CB";
paths = (
{
closed = 1;
nodes = (
"301 682 OFFCURVE",
"250 724 OFFCURVE",
"168 724 CURVE SMOOTH",
"115 724 OFFCURVE",
"67 709 OFFCURVE",
"25 678 CURVE",
"48 644 LINE",
"86 669 OFFCURVE",
"126 682 OFFCURVE",
"168 682 CURVE SMOOTH",
"220 682 OFFCURVE",
"253 653 OFFCURVE",
"253 610 CURVE SMOOTH",
"253 560 OFFCURVE",
"218 530 OFFCURVE",
"150 530 CURVE SMOOTH",
"84 530 LINE",
"84 489 LINE",
"148 489 LINE SMOOTH",
"226 489 OFFCURVE",
"264 464 OFFCURVE",
"264 410 CURVE SMOOTH",
"264 354 OFFCURVE",
"225 320 OFFCURVE",
"150 320 CURVE SMOOTH",
"107 320 OFFCURVE",
"64 330 OFFCURVE",
"20 350 CURVE",
"20 307 LINE",
"59 288 OFFCURVE",
"102 278 OFFCURVE",
"149 278 CURVE SMOOTH",
"252 278 OFFCURVE",
"313 327 OFFCURVE",
"313 411 CURVE SMOOTH",
"313 465 OFFCURVE",
"283 500 OFFCURVE",
"222 514 CURVE",
"270 528 OFFCURVE",
"301 564 OFFCURVE",
"301 615 CURVE SMOOTH"
);
}
);
width = 336;
}
);
note = threesuperior;
unicode = 00B3;
},
{
glyphname = acute;
lastChange = "2018-06-23 23:46:14 +0000";
layers = (
{
layerId = "A772B137-1B4D-4AF9-A163-8433B0F153CB";
paths = (
{
closed = 1;
nodes = (
"226 606 LINE",
"294 663 OFFCURVE",
"355 724 OFFCURVE",
"379 758 CURVE",
"379 766 LINE",
"310 766 LINE",
"293 735 OFFCURVE",
"239 665 OFFCURVE",
"192 614 CURVE",
"192 606 LINE"
);
}
);
width = 577;
}
);
note = acute;
unicode = 00B4;
},
{
glyphname = mu;
lastChange = "2018-06-23 23:46:14 +0000";
layers = (
{
layerId = "A772B137-1B4D-4AF9-A163-8433B0F153CB";
paths = (
{
closed = 1;
nodes = (
"89 -240 LINE",
"137 -240 LINE",
"137 -38 LINE SMOOTH",
"137 -13 OFFCURVE",
"136 15 OFFCURVE",
"135 45 CURVE",
"168 8 OFFCURVE",
"210 -10 OFFCURVE",
"275 -10 CURVE SMOOTH",
"351 -10 OFFCURVE",
"421 23 OFFCURVE",
"454 73 CURVE",
"457 73 LINE",
"466 0 LINE",
"507 0 LINE",
"507 531 LINE",
"459 531 LINE",
"459 238 LINE SMOOTH",
"459 94 OFFCURVE",
"401 34 OFFCURVE",
"275 34 CURVE SMOOTH",
"181 34 OFFCURVE",
"137 80 OFFCURVE",
"137 187 CURVE SMOOTH",
"137 531 LINE",
"89 531 LINE"
);
}
);
width = 596;
}
);
note = mu;
unicode = 00B5;
},
{
glyphname = paragraph;
lastChange = "2018-06-23 23:46:14 +0000";
layers = (
{
layerId = "A772B137-1B4D-4AF9-A163-8433B0F153CB";
paths = (
{
closed = 1;
nodes = (
"275 760 LINE SMOOTH",
"124 760 OFFCURVE",
"55 678 OFFCURVE",
"55 509 CURVE SMOOTH",
"55 345 OFFCURVE",
"119 264 OFFCURVE",
"260 264 CURVE SMOOTH",
"287 264 OFFCURVE",
"310 267 OFFCURVE",
"331 273 CURVE",
"331 -127 LINE",
"380 -127 LINE",
"380 714 LINE",
"491 714 LINE",
"491 -127 LINE",
"540 -127 LINE",
"540 760 LINE"
);
}
);
width = 655;
}
);
note = paragraph;
unicode = 00B6;
},
{
glyphname = cedilla;
lastChange = "2018-06-23 23:46:14 +0000";
layers = (
{
layerId = "A772B137-1B4D-4AF9-A163-8433B0F153CB";
paths = (
{
closed = 1;
nodes = (
"192 -98 OFFCURVE",
"165 -69 OFFCURVE",
"110 -57 CURVE",
"142 0 LINE",
"95 0 LINE",
"50 -85 LINE",
"113 -94 OFFCURVE",
"144 -113 OFFCURVE",
"144 -144 CURVE SMOOTH",
"144 -178 OFFCURVE",
"117 -197 OFFCURVE",
"66 -197 CURVE SMOOTH",
"46 -197 OFFCURVE",
"31 -195 OFFCURVE",
"21 -192 CURVE",
"21 -235 LINE",
"29 -238 OFFCURVE",
"45 -240 OFFCURVE",
"67 -240 CURVE SMOOTH",
"146 -240 OFFCURVE",
"192 -207 OFFCURVE",
"192 -142 CURVE SMOOTH"
);
}
);
width = 205;
}
);
note = cedilla;
unicode = 00B8;
},
{
glyphname = onesuperior;
lastChange = "2018-06-23 23:46:14 +0000";
layers = (
{
layerId = "A772B137-1B4D-4AF9-A163-8433B0F153CB";
paths = (
{
closed = 1;
nodes = (
"60 596 LINE",
"127 636 OFFCURVE",
"166 660 OFFCURVE",
"174 667 CURVE",
"170 624 OFFCURVE",
"168 585 OFFCURVE",
"168 553 CURVE SMOOTH",
"168 286 LINE",
"216 286 LINE",
"216 714 LINE",
"171 714 LINE",
"37 634 LINE"
);
}
);
width = 336;
}
);
note = onesuperior;
unicode = 00B9;
},
{
glyphname = ordmasculine;
lastChange = "2018-06-23 23:46:14 +0000";
layers = (
{
layerId = "A772B137-1B4D-4AF9-A163-8433B0F153CB";
paths = (
{
closed = 1;
nodes = (
"327 664 OFFCURVE",
"273 722 OFFCURVE",
"181 722 CURVE SMOOTH",
"87 722 OFFCURVE",
"34 663 OFFCURVE",
"34 557 CURVE SMOOTH",
"34 448 OFFCURVE",
"86 391 OFFCURVE",
"179 391 CURVE SMOOTH",
"272 391 OFFCURVE",
"327 452 OFFCURVE",
"327 557 CURVE SMOOTH"
);
},
{
closed = 1;
nodes = (
"78 643 OFFCURVE",
"109 683 OFFCURVE",
"180 683 CURVE SMOOTH",
"251 683 OFFCURVE",
"282 643 OFFCURVE",
"282 557 CURVE SMOOTH",
"282 471 OFFCURVE",
"248 428 OFFCURVE",
"180 428 CURVE SMOOTH",
"112 428 OFFCURVE",
"78 471 OFFCURVE",
"78 557 CURVE SMOOTH"
);
}
);
width = 361;
}
);
note = ordmasculine;
unicode = 00BA;
},
{
glyphname = guillemotright;
lastChange = "2018-06-23 23:46:14 +0000";
layers = (
{
layerId = "A772B137-1B4D-4AF9-A163-8433B0F153CB";
paths = (
{
closed = 1;
nodes = (
"241 457 LINE",
"211 436 LINE",
"335 259 LINE",
"211 82 LINE",
"241 61 LINE",
"392 253 LINE",
"392 266 LINE"
);
},
{
closed = 1;
nodes = (
"65 457 LINE",
"35 436 LINE",
"159 259 LINE",
"35 82 LINE",
"65 61 LINE",
"216 253 LINE",
"216 266 LINE"
);
}
);
width = 432;
}
);
note = guillemotright;
unicode = 00BB;
},
{
glyphname = onequarter;
lastChange = "2018-06-23 23:46:14 +0000";
layers = (
{
layerId = "A772B137-1B4D-4AF9-A163-8433B0F153CB";
paths = (
{
closed = 1;
nodes = (
"60 596 LINE",
"127 636 OFFCURVE",
"166 660 OFFCURVE",
"174 667 CURVE",
"170 624 OFFCURVE",
"168 585 OFFCURVE",
"168 553 CURVE SMOOTH",
"168 286 LINE",
"216 286 LINE",
"216 714 LINE",
"171 714 LINE",
"37 634 LINE"
);
},
{
closed = 1;
nodes = (
"174 0 LINE",
"220 0 LINE",
"616 714 LINE",
"570 714 LINE"
);
},
{
closed = 1;
nodes = (
"714 156 LINE",
"714 431 LINE",
"667 431 LINE",
"468 147 LINE",
"468 118 LINE",
"670 118 LINE",
"670 0 LINE",
"714 0 LINE",
"714 118 LINE",
"777 118 LINE",
"777 156 LINE"
);
},
{
closed = 1;
nodes = (
"610 284 OFFCURVE",
"658 352 OFFCURVE",
"664 360 CURVE SMOOTH",
"668 367 OFFCURVE",
"672 373 OFFCURVE",
"674 377 CURVE",
"671 344 OFFCURVE",
"670 307 OFFCURVE",
"670 264 CURVE SMOOTH",
"670 156 LINE",
"519 156 LINE"
);
}
);
width = 792;
}
);
note = onequarter;
unicode = 00BC;
},
{
glyphname = onehalf;
lastChange = "2018-06-23 23:46:14 +0000";
layers = (
{
layerId = "A772B137-1B4D-4AF9-A163-8433B0F153CB";
paths = (
{
closed = 1;
nodes = (
"60 596 LINE",
"127 636 OFFCURVE",
"166 660 OFFCURVE",
"174 667 CURVE",
"170 624 OFFCURVE",
"168 585 OFFCURVE",
"168 553 CURVE SMOOTH",
"168 286 LINE",
"216 286 LINE",
"216 714 LINE",
"171 714 LINE",
"37 634 LINE"
);
},
{
closed = 1;
nodes = (
"174 0 LINE",
"220 0 LINE",
"616 714 LINE",
"570 714 LINE"
);
},
{
closed = 1;
nodes = (
"545 43 LINE",
"632 127 OFFCURVE",
"682 178 OFFCURVE",
"696 193 CURVE SMOOTH",
"709 208 OFFCURVE",
"720 223 OFFCURVE",
"729 237 CURVE SMOOTH",
"747 265 OFFCURVE",
"755 291 OFFCURVE",
"755 322 CURVE SMOOTH",
"755 394 OFFCURVE",
"707 438 OFFCURVE",
"626 438 CURVE SMOOTH",
"577 438 OFFCURVE",
"533 421 OFFCURVE",
"494 388 CURVE",
"518 356 LINE",
"554 383 OFFCURVE",
"589 396 OFFCURVE",
"624 396 CURVE SMOOTH",
"674 396 OFFCURVE",
"707 367 OFFCURVE",
"707 321 CURVE SMOOTH",
"707 271 OFFCURVE",
"682 232 OFFCURVE",
"600 154 CURVE SMOOTH",
"482 38 LINE",
"482 0 LINE",
"763 0 LINE",
"763 43 LINE"
);
}
);
width = 792;
}
);
note = onehalf;
unicode = 00BD;
},
{
glyphname = threequarters;
lastChange = "2018-06-23 23:46:14 +0000";
layers = (
{
layerId = "A772B137-1B4D-4AF9-A163-8433B0F153CB";
paths = (
{
closed = 1;
nodes = (
"328 682 OFFCURVE",
"277 724 OFFCURVE",
"195 724 CURVE SMOOTH",
"142 724 OFFCURVE",
"94 709 OFFCURVE",
"52 678 CURVE",
"75 644 LINE",
"113 669 OFFCURVE",
"153 682 OFFCURVE",
"195 682 CURVE SMOOTH",
"247 682 OFFCURVE",
"280 653 OFFCURVE",
"280 610 CURVE SMOOTH",
"280 560 OFFCURVE",
"245 530 OFFCURVE",
"177 530 CURVE SMOOTH",
"111 530 LINE",
"111 489 LINE",
"175 489 LINE SMOOTH",
"252 489 OFFCURVE",
"291 464 OFFCURVE",
"291 410 CURVE SMOOTH",
"291 354 OFFCURVE",
"251 320 OFFCURVE",
"177 320 CURVE SMOOTH",
"134 320 OFFCURVE",
"91 330 OFFCURVE",
"47 350 CURVE",
"47 307 LINE",
"86 288 OFFCURVE",
"129 278 OFFCURVE",
"176 278 CURVE SMOOTH",
"279 278 OFFCURVE",
"340 327 OFFCURVE",
"340 411 CURVE SMOOTH",
"340 465 OFFCURVE",
"310 500 OFFCURVE",
"249 514 CURVE",
"296 528 OFFCURVE",
"328 564 OFFCURVE",
"328 615 CURVE SMOOTH"
);
},
{
closed = 1;
nodes = (
"206 0 LINE",
"252 0 LINE",
"648 714 LINE",
"602 714 LINE"
);
},
{
closed = 1;
nodes = (
"682 156 LINE",
"682 431 LINE",
"635 431 LINE",
"437 147 LINE",
"437 118 LINE",
"638 118 LINE",
"638 0 LINE",
"682 0 LINE",
"682 118 LINE",
"745 118 LINE",
"745 156 LINE"
);
},
{
closed = 1;
nodes = (
"579 284 OFFCURVE",
"626 352 OFFCURVE",
"632 360 CURVE SMOOTH",
"637 367 OFFCURVE",
"640 373 OFFCURVE",
"642 377 CURVE",
"640 344 OFFCURVE",
"638 307 OFFCURVE",
"638 264 CURVE SMOOTH",
"638 156 LINE",
"487 156 LINE"
);
}
);
width = 792;
}
);
note = threequarters;
unicode = 00BE;
},
{
glyphname = questiondown;
lastChange = "2018-06-23 23:46:14 +0000";
layers = (
{
layerId = "A772B137-1B4D-4AF9-A163-8433B0F153CB";
paths = (
{
closed = 1;
nodes = (
"238 340 LINE SMOOTH",
"238 308 OFFCURVE",
"235 285 OFFCURVE",
"230 269 CURVE SMOOTH",
"221 237 OFFCURVE",
"200 209 OFFCURVE",
"158 175 CURVE SMOOTH",
"115 139 OFFCURVE",
"87 113 OFFCURVE",
"75 97 CURVE SMOOTH",
"49 66 OFFCURVE",
"36 32 OFFCURVE",
"36 -13 CURVE SMOOTH",
"36 -124 OFFCURVE",
"108 -193 OFFCURVE",
"228 -193 CURVE SMOOTH",
"279 -193 OFFCURVE",
"321 -185 OFFCURVE",
"393 -154 CURVE",
"375 -115 LINE",
"344 -128 LINE SMOOTH",
"309 -144 OFFCURVE",
"271 -151 OFFCURVE",
"230 -151 CURVE SMOOTH",
"140 -151 OFFCURVE",
"82 -97 OFFCURVE",
"82 -16 CURVE SMOOTH",
"82 35 OFFCURVE",
"101 71 OFFCURVE",
"148 110 CURVE SMOOTH",
"192 149 LINE SMOOTH",
"255 204 OFFCURVE",
"278 248 OFFCURVE",
"278 329 CURVE SMOOTH",
"278 347 LINE",
"238 347 LINE"
);
},
{
closed = 1;
nodes = (
"215 458 OFFCURVE",
"232 445 OFFCURVE",
"254 445 CURVE SMOOTH",
"277 445 OFFCURVE",
"294 458 OFFCURVE",
"294 493 CURVE SMOOTH",
"294 525 OFFCURVE",
"281 541 OFFCURVE",
"254 541 CURVE SMOOTH",
"228 541 OFFCURVE",
"215 525 OFFCURVE",
"215 493 CURVE SMOOTH"
);
}
);
width = 421;
}
);
note = questiondown;
unicode = 00BF;
},
{
glyphname = AE;
lastChange = "2018-06-23 23:46:14 +0000";
layers = (
{
anchors = (
{
name = bottom;
position = "{404, 0}";
},
{
name = top;
position = "{404, 714}";
}
);
layerId = "A772B137-1B4D-4AF9-A163-8433B0F153CB";
paths = (
{
closed = 1;
nodes = (
"446 46 LINE",
"446 352 LINE",
"727 352 LINE",
"727 398 LINE",
"446 398 LINE",
"446 668 LINE",
"746 668 LINE",
"746 714 LINE",
"318 714 LINE",
"-1 0 LINE",
"53 0 LINE",
"164 252 LINE",
"396 252 LINE",
"396 0 LINE",
"746 0 LINE",
"746 46 LINE"
);
},
{
closed = 1;
nodes = (
"396 668 LINE",
"396 297 LINE",
"184 297 LINE",
"347 668 LINE"
);
}
);
width = 807;
}
);
note = AE;
unicode = 00C6;
},
{
glyphname = Eth;
lastChange = "2018-06-23 23:46:14 +0000";
layers = (
{
layerId = "A772B137-1B4D-4AF9-A163-8433B0F153CB";
paths = (
{
closed = 1;
nodes = (
"643 592 OFFCURVE",
"522 714 OFFCURVE",
"294 714 CURVE SMOOTH",
"101 714 LINE",
"101 377 LINE",
"23 377 LINE",
"23 331 LINE",
"101 331 LINE",
"101 0 LINE",
"272 0 LINE SMOOTH",
"516 0 OFFCURVE",
"643 124 OFFCURVE",
"643 364 CURVE SMOOTH"
);
},
{
closed = 1;
nodes = (
"589 150 OFFCURVE",
"482 44 OFFCURVE",
"269 44 CURVE SMOOTH",
"151 44 LINE",
"151 331 LINE",
"349 331 LINE",
"349 377 LINE",
"151 377 LINE",
"151 670 LINE",
"282 670 LINE SMOOTH",
"483 670 OFFCURVE",
"589 566 OFFCURVE",
"589 362 CURVE SMOOTH"
);
}
);
width = 716;
}
);
note = Eth;
unicode = 00D0;
},
{
glyphname = multiply;
lastChange = "2018-06-23 23:46:14 +0000";
layers = (
{
layerId = "A772B137-1B4D-4AF9-A163-8433B0F153CB";
paths = (
{
closed = 1;
nodes = (
"58 552 LINE",
"257 353 LINE",
"59 154 LINE",
"87 126 LINE",
"285 325 LINE",
"484 126 LINE",
"512 154 LINE",
"314 353 LINE",
"513 552 LINE",
"485 580 LINE",
"285 381 LINE",
"86 580 LINE"
);
}
);
width = 571;
}
);
note = multiply;
unicode = 00D7;
},
{
glyphname = Oslash;
lastChange = "2018-06-23 23:46:14 +0000";
layers = (
{
anchors = (
{
name = bottom;
position = "{382, 0}";
},
{
name = top;
position = "{382, 714}";
}
);
layerId = "A772B137-1B4D-4AF9-A163-8433B0F153CB";
paths = (
{
closed = 1;
nodes = (
"701 476 OFFCURVE",
"670 569 OFFCURVE",
"608 636 CURVE",
"662 711 LINE",
"627 740 LINE",
"574 666 LINE",
"522 706 OFFCURVE",
"458 725 OFFCURVE",
"383 725 CURVE SMOOTH",
"185 725 OFFCURVE",
"63 586 OFFCURVE",
"63 359 CURVE SMOOTH",
"63 239 OFFCURVE",
"94 146 OFFCURVE",
"155 81 CURVE",
"111 19 LINE",
"147 -10 LINE",
"189 49 LINE",
"241 10 OFFCURVE",
"305 -10 OFFCURVE",
"382 -10 CURVE SMOOTH",
"581 -10 OFFCURVE",
"701 131 OFFCURVE",
"701 358 CURVE SMOOTH"
);
},
{
closed = 1;
nodes = (
"647 151 OFFCURVE",
"554 37 OFFCURVE",
"382 37 CURVE SMOOTH",
"315 37 OFFCURVE",
"260 54 OFFCURVE",
"217 89 CURVE",
"579 595 LINE",
"625 540 OFFCURVE",
"647 460 OFFCURVE",
"647 358 CURVE SMOOTH"
);
},
{
closed = 1;
nodes = (
"117 562 OFFCURVE",
"213 677 OFFCURVE",
"383 677 CURVE SMOOTH",
"448 677 OFFCURVE",
"502 660 OFFCURVE",
"546 627 CURVE",
"185 122 LINE",
"140 178 OFFCURVE",
"117 256 OFFCURVE",
"117 358 CURVE SMOOTH"
);
}
);
width = 764;
}
);
note = Oslash;
unicode = 00D8;
},
{
glyphname = Thorn;
lastChange = "2018-06-23 23:46:14 +0000";
layers = (
{
anchors = (
{
name = bottom;
position = "{292, 0}";
},
{
name = top;
position = "{292, 714}";
}
);
layerId = "A772B137-1B4D-4AF9-A163-8433B0F153CB";
paths = (
{
closed = 1;
nodes = (
"531 517 OFFCURVE",
"446 585 OFFCURVE",
"276 585 CURVE SMOOTH",
"151 585 LINE",
"151 714 LINE",
"101 714 LINE",
"101 0 LINE",
"151 0 LINE",
"151 166 LINE",
"261 166 LINE SMOOTH",
"433 166 OFFCURVE",
"531 242 OFFCURVE",
"531 380 CURVE SMOOTH"
);
},
{
closed = 1;
nodes = (
"269 540 LINE SMOOTH",
"411 540 OFFCURVE",
"477 488 OFFCURVE",
"477 378 CURVE SMOOTH",
"477 259 OFFCURVE",
"410 209 OFFCURVE",
"249 209 CURVE SMOOTH",
"151 209 LINE",
"151 540 LINE"
);
}
);
width = 585;
}
);
note = Thorn;
unicode = 00DE;
},
{
glyphname = germandbls;
lastChange = "2018-06-23 23:46:14 +0000";
layers = (
{
anchors = (
{
name = bottom;
position = "{292, 0}";
},
{
name = top;
position = "{292, 531}";
}
);
layerId = "A772B137-1B4D-4AF9-A163-8433B0F153CB";
paths = (
{
closed = 1;
nodes = (
"469 717 OFFCURVE",
"405 765 OFFCURVE",
"282 765 CURVE SMOOTH",
"159 765 OFFCURVE",
"89 702 OFFCURVE",
"89 589 CURVE SMOOTH",
"89 0 LINE",
"137 0 LINE",
"137 593 LINE SMOOTH",
"137 675 OFFCURVE",
"193 722 OFFCURVE",
"287 722 CURVE SMOOTH",
"373 722 OFFCURVE",
"420 688 OFFCURVE",
"420 628 CURVE SMOOTH",
"420 590 OFFCURVE",
"400 562 OFFCURVE",
"352 524 CURVE SMOOTH",
"304 487 OFFCURVE",
"284 457 OFFCURVE",
"284 418 CURVE SMOOTH",
"284 362 OFFCURVE",
"311 332 OFFCURVE",
"393 275 CURVE SMOOTH",
"465 226 OFFCURVE",
"485 192 OFFCURVE",
"485 138 CURVE SMOOTH",
"485 69 OFFCURVE",
"444 33 OFFCURVE",
"370 33 CURVE SMOOTH",
"325 33 OFFCURVE",
"266 50 OFFCURVE",
"223 75 CURVE",
"223 23 LINE",
"254 3 OFFCURVE",
"308 -10 OFFCURVE",
"370 -10 CURVE SMOOTH",
"473 -10 OFFCURVE",
"533 48 OFFCURVE",
"533 150 CURVE SMOOTH",
"533 172 OFFCURVE",
"530 191 OFFCURVE",
"522 209 CURVE SMOOTH",
"508 244 OFFCURVE",
"484 271 OFFCURVE",
"415 320 CURVE SMOOTH",
"394 334 OFFCURVE",
"377 347 OFFCURVE",
"365 358 CURVE SMOOTH",
"341 379 OFFCURVE",
"333 390 OFFCURVE",
"333 419 CURVE SMOOTH",
"333 432 OFFCURVE",
"338 444 OFFCURVE",
"348 456 CURVE SMOOTH",
"357 468 OFFCURVE",
"375 484 OFFCURVE",
"401 505 CURVE SMOOTH",
"447 541 OFFCURVE",
"469 582 OFFCURVE",
"469 627 CURVE SMOOTH"
);
}
);
width = 583;
}
);
note = germandbls;
unicode = 00DF;
},
{
glyphname = ae;
lastChange = "2018-06-23 23:46:14 +0000";
layers = (
{
anchors = (
{
name = bottom;
position = "{423, 0}";
},
{
name = top;
position = "{423, 531}";
}
);
layerId = "A772B137-1B4D-4AF9-A163-8433B0F153CB";
paths = (
{
closed = 1;
nodes = (
"664 -10 OFFCURVE",
"706 -3 OFFCURVE",
"766 24 CURVE",
"766 68 LINE",
"695 39 OFFCURVE",
"663 34 OFFCURVE",
"608 34 CURVE SMOOTH",
"495 34 OFFCURVE",
"438 109 OFFCURVE",
"438 259 CURVE",
"787 259 LINE",
"787 298 LINE SMOOTH",
"787 447 OFFCURVE",
"714 541 OFFCURVE",
"594 541 CURVE SMOOTH",
"518 541 OFFCURVE",
"461 506 OFFCURVE",
"425 437 CURVE",
"404 506 OFFCURVE",
"351 540 OFFCURVE",
"266 540 CURVE SMOOTH",
"210 540 OFFCURVE",
"153 526 OFFCURVE",
"97 499 CURVE",
"115 457 LINE",
"167 484 OFFCURVE",
"216 498 OFFCURVE",
"264 498 CURVE SMOOTH",
"354 498 OFFCURVE",
"391 446 OFFCURVE",
"391 345 CURVE SMOOTH",
"391 310 LINE",
"293 307 LINE SMOOTH",
"129 302 OFFCURVE",
"48 241 OFFCURVE",
"48 141 CURVE SMOOTH",
"48 47 OFFCURVE",
"106 -10 OFFCURVE",
"208 -10 CURVE SMOOTH",
"307 -10 OFFCURVE",
"369 29 OFFCURVE",
"413 115 CURVE",
"446 32 OFFCURVE",
"511 -10 OFFCURVE",
"607 -10 CURVE SMOOTH"
);
},
{
closed = 1;
nodes = (
"141 34 OFFCURVE",
"99 73 OFFCURVE",
"99 139 CURVE SMOOTH",
"99 223 OFFCURVE",
"155 259 OFFCURVE",
"298 266 CURVE SMOOTH",
"389 270 LINE",
"389 218 LINE SMOOTH",
"389 103 OFFCURVE",
"322 34 OFFCURVE",
"212 34 CURVE SMOOTH"
);
},
{
closed = 1;
nodes = (
"682 498 OFFCURVE",
"736 424 OFFCURVE",
"736 302 CURVE",
"441 302 LINE",
"451 433 OFFCURVE",
"502 498 OFFCURVE",
"594 498 CURVE SMOOTH"
);
}
);
width = 845;
}
);
note = ae;
unicode = 00E6;
},
{
glyphname = eth;
lastChange = "2018-06-23 23:46:14 +0000";
layers = (
{
layerId = "A772B137-1B4D-4AF9-A163-8433B0F153CB";
paths = (
{
closed = 1;
nodes = (
"515 422 OFFCURVE",
"465 558 OFFCURVE",
"365 656 CURVE",
"464 715 LINE",
"440 756 LINE",
"330 689 LINE",
"297 714 OFFCURVE",
"257 737 OFFCURVE",
"209 760 CURVE",
"187 720 LINE",
"224 702 OFFCURVE",
"256 682 OFFCURVE",
"284 662 CURVE",
"165 591 LINE",
"189 553 LINE",
"321 630 LINE",
"388 568 OFFCURVE",
"431 494 OFFCURVE",
"452 406 CURVE",
"450 405 LINE",
"405 446 OFFCURVE",
"356 468 OFFCURVE",
"286 468 CURVE SMOOTH",
"146 468 OFFCURVE",
"57 378 OFFCURVE",
"57 230 CURVE SMOOTH",
"57 80 OFFCURVE",
"145 -10 OFFCURVE",
"284 -10 CURVE SMOOTH",
"431 -10 OFFCURVE",
"515 93 OFFCURVE",
"515 273 CURVE SMOOTH"
);
},
{
closed = 1;
nodes = (
"464 115 OFFCURVE",
"402 34 OFFCURVE",
"285 34 CURVE SMOOTH",
"172 34 OFFCURVE",
"108 105 OFFCURVE",
"108 226 CURVE SMOOTH",
"108 359 OFFCURVE",
"166 424 OFFCURVE",
"286 424 CURVE SMOOTH",
"397 424 OFFCURVE",
"464 367 OFFCURVE",
"464 272 CURVE SMOOTH"
);
}
);
width = 573;
}
);
note = eth;
unicode = 00F0;
},
{
glyphname = divide;
lastChange = "2018-06-23 23:46:14 +0000";
layers = (
{
layerId = "A772B137-1B4D-4AF9-A163-8433B0F153CB";
paths = (
{
closed = 1;
nodes = (
"517 373 LINE",
"54 373 LINE",
"54 333 LINE",
"517 333 LINE"
);
},
{
closed = 1;
nodes = (
"246 491 OFFCURVE",
"263 477 OFFCURVE",
"285 477 CURVE SMOOTH",
"308 477 OFFCURVE",
"325 491 OFFCURVE",
"325 525 CURVE SMOOTH",
"325 557 OFFCURVE",
"312 573 OFFCURVE",
"285 573 CURVE SMOOTH",
"259 573 OFFCURVE",
"246 557 OFFCURVE",
"246 525 CURVE SMOOTH"
);
},
{
closed = 1;
nodes = (
"246 146 OFFCURVE",
"263 133 OFFCURVE",
"285 133 CURVE SMOOTH",
"308 133 OFFCURVE",
"325 146 OFFCURVE",
"325 181 CURVE SMOOTH",
"325 213 OFFCURVE",
"312 229 OFFCURVE",
"285 229 CURVE SMOOTH",
"259 229 OFFCURVE",
"246 213 OFFCURVE",
"246 181 CURVE SMOOTH"
);
}
);
width = 571;
}
);
note = divide;
unicode = 00F7;
},
{
glyphname = oslash;
lastChange = "2018-06-23 23:46:14 +0000";
layers = (
{
anchors = (
{
name = top;
position = "{293, 531}";
}
);
layerId = "A772B137-1B4D-4AF9-A163-8433B0F153CB";
paths = (
{
closed = 1;
nodes = (
"528 346 OFFCURVE",
"510 409 OFFCURVE",
"473 457 CURVE",
"524 524 LINE",
"488 551 LINE",
"441 490 LINE",
"401 524 OFFCURVE",
"352 541 OFFCURVE",
"294 541 CURVE SMOOTH",
"147 541 OFFCURVE",
"58 439 OFFCURVE",
"58 266 CURVE SMOOTH",
"58 185 OFFCURVE",
"78 120 OFFCURVE",
"117 70 CURVE",
"72 11 LINE",
"107 -17 LINE",
"149 38 LINE",
"188 6 OFFCURVE",
"235 -10 OFFCURVE",
"291 -10 CURVE SMOOTH",
"439 -10 OFFCURVE",
"528 93 OFFCURVE",
"528 266 CURVE SMOOTH"
);
},
{
closed = 1;
nodes = (
"109 413 OFFCURVE",
"175 497 OFFCURVE",
"292 497 CURVE SMOOTH",
"340 497 OFFCURVE",
"380 482 OFFCURVE",
"412 453 CURVE",
"147 109 LINE",
"122 148 OFFCURVE",
"109 201 OFFCURVE",
"109 266 CURVE SMOOTH"
);
},
{
closed = 1;
nodes = (
"477 120 OFFCURVE",
"410 34 OFFCURVE",
"293 34 CURVE SMOOTH",
"246 34 OFFCURVE",
"208 47 OFFCURVE",
"177 74 CURVE",
"442 417 LINE",
"465 378 OFFCURVE",
"477 328 OFFCURVE",
"477 266 CURVE SMOOTH"
);
}
);
width = 586;
}
);
note = oslash;
unicode = 00F8;
},
{
glyphname = thorn;
lastChange = "2018-06-23 23:46:14 +0000";
layers = (
{
anchors = (
{
name = bottom;
position = "{298, 0}";
},
{
name = top;
position = "{298, 531}";
}
);
layerId = "A772B137-1B4D-4AF9-A163-8433B0F153CB";
paths = (
{
closed = 1;
nodes = (
"137 569 LINE",
"137 760 LINE",
"89 760 LINE",
"89 -240 LINE",
"137 -240 LINE",
"137 -38 LINE SMOOTH",
"137 -9 OFFCURVE",
"137 17 OFFCURVE",
"135 41 CURVE SMOOTH",
"134 82 LINE",
"137 82 LINE",
"175 21 OFFCURVE",
"234 -10 OFFCURVE",
"316 -10 CURVE SMOOTH",
"453 -10 OFFCURVE",
"537 91 OFFCURVE",
"537 265 CURVE SMOOTH",
"537 445 OFFCURVE",
"460 541 OFFCURVE",
"317 541 CURVE SMOOTH",
"234 541 OFFCURVE",
"174 510 OFFCURVE",
"137 448 CURVE",
"134 448 LINE"
);
},
{
closed = 1;
nodes = (
"189 33 OFFCURVE",
"137 98 OFFCURVE",
"137 264 CURVE SMOOTH",
"137 273 LINE SMOOTH",
"137 435 OFFCURVE",
"190 497 OFFCURVE",
"316 497 CURVE SMOOTH",
"429 497 OFFCURVE",
"486 419 OFFCURVE",
"486 263 CURVE SMOOTH",
"486 118 OFFCURVE",
"424 33 OFFCURVE",
"315 33 CURVE SMOOTH"
);
}
);
width = 595;
}
);
note = thorn;
unicode = 00FE;
},
{
glyphname = aogonek;
lastChange = "2018-06-23 23:46:14 +0000";
layers = (
{
layerId = "A772B137-1B4D-4AF9-A163-8433B0F153CB";
paths = (
{
closed = 1;
nodes = (
"377 -74 OFFCURVE",
"400 -41 OFFCURVE",
"447 0 CURVE",
"447 353 LINE SMOOTH",
"447 481 OFFCURVE",
"390 540 OFFCURVE",
"273 540 CURVE SMOOTH",
"216 540 OFFCURVE",
"158 526 OFFCURVE",
"100 499 CURVE",
"118 457 LINE",
"171 484 OFFCURVE",
"222 498 OFFCURVE",
"271 498 CURVE SMOOTH",
"362 498 OFFCURVE",
"401 446 OFFCURVE",
"401 345 CURVE SMOOTH",
"401 310 LINE",
"300 307 LINE SMOOTH",
"136 304 OFFCURVE",
"48 245 OFFCURVE",
"48 141 CURVE SMOOTH",
"48 47 OFFCURVE",
"109 -10 OFFCURVE",
"213 -10 CURVE SMOOTH",
"290 -10 OFFCURVE",
"342 16 OFFCURVE",
"395 84 CURVE",
"399 84 LINE",
"410 6 LINE",
"352 -40 OFFCURVE",
"329 -83 OFFCURVE",
"329 -129 CURVE SMOOTH",
"329 -186 OFFCURVE",
"363 -218 OFFCURVE",
"418 -218 CURVE SMOOTH",
"439 -218 OFFCURVE",
"456 -215 OFFCURVE",
"469 -210 CURVE",
"469 -169 LINE",
"458 -173 OFFCURVE",
"445 -175 OFFCURVE",
"429 -175 CURVE SMOOTH",
"394 -175 OFFCURVE",
"377 -157 OFFCURVE",
"377 -121 CURVE SMOOTH"
);
},
{
closed = 1;
nodes = (
"142 34 OFFCURVE",
"99 73 OFFCURVE",
"99 139 CURVE SMOOTH",
"99 223 OFFCURVE",
"157 259 OFFCURVE",
"306 266 CURVE SMOOTH",
"399 270 LINE",
"399 218 LINE SMOOTH",
"399 103 OFFCURVE",
"329 34 OFFCURVE",
"216 34 CURVE SMOOTH"
);
}
);
width = 530;
}
);
note = aogonek;
unicode = 0105;
},
{
glyphname = dcroat;
lastChange = "2018-06-23 23:46:14 +0000";
layers = (
{
layerId = "A772B137-1B4D-4AF9-A163-8433B0F153CB";
paths = (
{
closed = 1;
nodes = (
"137 541 OFFCURVE",
"58 441 OFFCURVE",
"58 258 CURVE SMOOTH",
"58 83 OFFCURVE",
"138 -10 OFFCURVE",
"284 -10 CURVE SMOOTH",
"360 -10 OFFCURVE",
"417 21 OFFCURVE",
"458 81 CURVE",
"462 81 LINE",
"474 0 LINE",
"506 0 LINE",
"506 621 LINE",
"582 621 LINE",
"582 661 LINE",
"506 661 LINE",
"506 760 LINE",
"458 760 LINE",
"458 661 LINE",
"227 661 LINE",
"227 621 LINE",
"458 621 LINE",
"458 569 LINE SMOOTH",
"458 529 OFFCURVE",
"459 489 OFFCURVE",
"461 448 CURVE",
"458 448 LINE",
"414 516 OFFCURVE",
"360 541 OFFCURVE",
"283 541 CURVE SMOOTH"
);
},
{
closed = 1;
nodes = (
"406 497 OFFCURVE",
"458 430 OFFCURVE",
"458 266 CURVE SMOOTH",
"458 258 LINE SMOOTH",
"458 98 OFFCURVE",
"404 33 OFFCURVE",
"284 33 CURVE SMOOTH",
"167 33 OFFCURVE",
"109 108 OFFCURVE",
"109 259 CURVE SMOOTH",
"109 414 OFFCURVE",
"167 497 OFFCURVE",
"283 497 CURVE SMOOTH"
);
}
);
width = 595;
}
);
note = dcroat;
unicode = 0111;
},
{
glyphname = Hbar;
lastChange = "2018-06-23 23:46:14 +0000";
layers = (
{
layerId = "A772B137-1B4D-4AF9-A163-8433B0F153CB";
paths = (
{
closed = 1;
nodes = (
"0 536 LINE",
"101 536 LINE",
"101 0 LINE",
"151 0 LINE",
"151 351 LINE",
"568 351 LINE",
"568 0 LINE",
"618 0 LINE",
"618 536 LINE",
"719 536 LINE",
"719 582 LINE",
"618 582 LINE",
"618 714 LINE",
"568 714 LINE",
"568 582 LINE",
"151 582 LINE",
"151 714 LINE",
"101 714 LINE",
"101 582 LINE",
"0 582 LINE"
);
},
{
closed = 1;
nodes = (
"151 536 LINE",
"568 536 LINE",
"568 397 LINE",
"151 397 LINE"
);
}
);
width = 719;
}
);
note = Hbar;
unicode = 0126;
},
{
glyphname = hbar;
lastChange = "2018-06-23 23:46:14 +0000";
layers = (
{
layerId = "A772B137-1B4D-4AF9-A163-8433B0F153CB";
paths = (
{
closed = 1;
nodes = (
"507 332 LINE SMOOTH",
"507 461 OFFCURVE",
"447 526 OFFCURVE",
"326 526 CURVE SMOOTH",
"236 526 OFFCURVE",
"178 499 OFFCURVE",
"138 435 CURVE",
"135 435 LINE",
"137 503 LINE",
"137 621 LINE",
"368 621 LINE",
"368 661 LINE",
"137 661 LINE",
"137 760 LINE",
"89 760 LINE",
"89 661 LINE",
"13 661 LINE",
"13 621 LINE",
"89 621 LINE",
"89 0 LINE",
"137 0 LINE",
"137 278 LINE SMOOTH",
"137 422 OFFCURVE",
"192 482 OFFCURVE",
"321 482 CURVE SMOOTH",
"415 482 OFFCURVE",
"459 436 OFFCURVE",
"459 329 CURVE SMOOTH",
"459 0 LINE",
"507 0 LINE"
);
}
);
width = 590;
}
);
note = hbar;
unicode = 0127;
},
{
glyphname = dotlessi;
lastChange = "2018-06-23 23:46:14 +0000";
layers = (
{
anchors = (
{
name = bottom;
position = "{113, 0}";
},
{
name = ogonek;
position = "{204, 5}";
},
{
name = top;
position = "{113, 531}";
}
);
layerId = "A772B137-1B4D-4AF9-A163-8433B0F153CB";
paths = (
{
closed = 1;
nodes = (
"89 531 LINE",
"89 0 LINE",
"137 0 LINE",
"137 531 LINE"
);
}
);
width = 226;
}
);
note = dotlessi;
unicode = 0131;
},
{
glyphname = kgreenlandic;
lastChange = "2018-06-23 23:46:14 +0000";
layers = (
{
anchors = (
{
name = bottom;
position = "{242, 0}";
},
{
name = top;
position = "{242, 531}";
}
);
layerId = "A772B137-1B4D-4AF9-A163-8433B0F153CB";
paths = (
{
closed = 1;
nodes = (
"137 379 LINE",
"137 531 LINE",
"89 531 LINE",
"89 0 LINE",
"137 0 LINE",
"137 189 LINE",
"224 268 LINE",
"426 0 LINE",
"484 0 LINE",
"257 304 LINE",
"466 531 LINE",
"407 531 LINE",
"136 233 LINE",
"134 233 LINE"
);
}
);
width = 484;
}
);
note = kgreenlandic;
unicode = 0138;
},
{
glyphname = Lslash;
lastChange = "2018-06-23 23:46:14 +0000";
layers = (
{
layerId = "A772B137-1B4D-4AF9-A163-8433B0F153CB";
paths = (
{
closed = 1;
nodes = (
"491 47 LINE",
"151 47 LINE",
"151 300 LINE",
"332 412 LINE",
"309 449 LINE",
"151 349 LINE",
"151 714 LINE",
"101 714 LINE",
"101 318 LINE",
"14 263 LINE",
"34 227 LINE",
"101 269 LINE",
"101 0 LINE",
"491 0 LINE"
);
}
);
width = 513;
}
);
note = Lslash;
unicode = 0141;
},
{
glyphname = lslash;
lastChange = "2018-06-23 23:46:14 +0000";
layers = (
{
layerId = "A772B137-1B4D-4AF9-A163-8433B0F153CB";
paths = (
{
closed = 1;
nodes = (
"89 760 LINE",
"89 368 LINE",
"4 312 LINE",
"26 277 LINE",
"89 319 LINE",
"89 0 LINE",
"137 0 LINE",
"137 351 LINE",
"233 415 LINE",
"212 449 LINE",
"137 399 LINE",
"137 760 LINE"
);
}
);
width = 226;
}
);
note = lslash;
unicode = 0142;
},
{
glyphname = Eng;
lastChange = "2018-06-23 23:46:14 +0000";
layers = (
{
layerId = "A772B137-1B4D-4AF9-A163-8433B0F153CB";
paths = (
{
closed = 1;
nodes = (
"572 714 LINE",
"572 248 LINE SMOOTH",
"572 195 OFFCURVE",
"573 140 OFFCURVE",
"576 81 CURVE",
"573 81 LINE",
"151 714 LINE",
"101 714 LINE",
"101 0 LINE",
"149 0 LINE",
"149 463 LINE SMOOTH",
"149 501 OFFCURVE",
"147 558 OFFCURVE",
"143 634 CURVE",
"147 634 LINE",
"570 0 LINE",
"570 -5 LINE SMOOTH",
"570 -91 OFFCURVE",
"531 -134 OFFCURVE",
"452 -134 CURVE SMOOTH",
"429 -134 OFFCURVE",
"404 -130 OFFCURVE",
"379 -124 CURVE",
"379 -167 LINE",
"398 -176 OFFCURVE",
"423 -180 OFFCURVE",
"453 -180 CURVE SMOOTH",
"564 -180 OFFCURVE",
"620 -120 OFFCURVE",
"620 0 CURVE SMOOTH",
"620 714 LINE"
);
}
);
width = 721;
}
);
note = Eng;
unicode = 014A;
},
{
glyphname = eng;
lastChange = "2018-06-23 23:46:14 +0000";
layers = (
{
layerId = "A772B137-1B4D-4AF9-A163-8433B0F153CB";
paths = (
{
closed = 1;
nodes = (
"465 -240 OFFCURVE",
"507 -190 OFFCURVE",
"507 -103 CURVE SMOOTH",
"507 347 LINE SMOOTH",
"507 477 OFFCURVE",
"445 541 OFFCURVE",
"314 541 CURVE SMOOTH",
"241 541 OFFCURVE",
"177 515 OFFCURVE",
"142 458 CURVE",
"139 458 LINE",
"130 531 LINE",
"89 531 LINE",
"89 0 LINE",
"137 0 LINE",
"137 293 LINE SMOOTH",
"137 436 OFFCURVE",
"191 497 OFFCURVE",
"314 497 CURVE SMOOTH",
"413 497 OFFCURVE",
"459 451 OFFCURVE",
"459 344 CURVE SMOOTH",
"459 -110 LINE SMOOTH",
"459 -167 OFFCURVE",
"434 -196 OFFCURVE",
"385 -196 CURVE SMOOTH",
"365 -196 OFFCURVE",
"344 -192 OFFCURVE",
"322 -186 CURVE",
"322 -228 LINE",
"340 -236 OFFCURVE",
"362 -240 OFFCURVE",
"388 -240 CURVE SMOOTH"
);
}
);
width = 590;
}
);
note = eng;
unicode = 014B;
},
{
glyphname = OE;
lastChange = "2018-06-23 23:46:14 +0000";
layers = (
{
anchors = (
{
name = bottom;
position = "{449, 0}";
},
{
name = top;
position = "{449, 714}";
}
);
layerId = "A772B137-1B4D-4AF9-A163-8433B0F153CB";
paths = (
{
closed = 1;
nodes = (
"517 46 LINE",
"517 352 LINE",
"818 352 LINE",
"818 398 LINE",
"517 398 LINE",
"517 668 LINE",
"837 668 LINE",
"837 714 LINE",
"472 714 LINE",
"438 719 OFFCURVE",
"408 722 OFFCURVE",
"383 722 CURVE SMOOTH",
"184 722 OFFCURVE",
"63 585 OFFCURVE",
"63 359 CURVE SMOOTH",
"63 130 OFFCURVE",
"183 -8 OFFCURVE",
"382 -8 CURVE SMOOTH",
"415 -8 OFFCURVE",
"443 -5 OFFCURVE",
"468 0 CURVE",
"837 0 LINE",
"837 46 LINE"
);
},
{
closed = 1;
nodes = (
"212 39 OFFCURVE",
"117 153 OFFCURVE",
"117 358 CURVE SMOOTH",
"117 561 OFFCURVE",
"212 674 OFFCURVE",
"383 674 CURVE SMOOTH",
"418 674 OFFCURVE",
"447 671 OFFCURVE",
"467 666 CURVE",
"467 48 LINE",
"446 42 OFFCURVE",
"417 39 OFFCURVE",
"382 39 CURVE SMOOTH"
);
}
);
width = 898;
}
);
note = OE;
unicode = 0152;
},
{
glyphname = oe;
lastChange = "2018-06-23 23:46:14 +0000";
layers = (
{
anchors = (
{
name = bottom;
position = "{474, 0}";
},
{
name = top;
position = "{474, 531}";
}
);
layerId = "A772B137-1B4D-4AF9-A163-8433B0F153CB";
paths = (
{
closed = 1;
nodes = (
"763 -10 OFFCURVE",
"809 -2 OFFCURVE",
"869 24 CURVE",
"869 68 LINE",
"799 40 OFFCURVE",
"763 34 OFFCURVE",
"702 34 CURVE SMOOTH",
"586 34 OFFCURVE",
"520 109 OFFCURVE",
"518 259 CURVE",
"890 259 LINE",
"890 298 LINE SMOOTH",
"890 448 OFFCURVE",
"813 541 OFFCURVE",
"688 541 CURVE SMOOTH",
"594 541 OFFCURVE",
"529 496 OFFCURVE",
"493 405 CURVE",
"456 495 OFFCURVE",
"392 541 OFFCURVE",
"294 541 CURVE SMOOTH",
"147 541 OFFCURVE",
"58 439 OFFCURVE",
"58 266 CURVE SMOOTH",
"58 211 OFFCURVE",
"67 163 OFFCURVE",
"86 121 CURVE SMOOTH",
"124 37 OFFCURVE",
"198 -10 OFFCURVE",
"291 -10 CURVE SMOOTH",
"391 -10 OFFCURVE",
"453 37 OFFCURVE",
"491 120 CURVE",
"527 35 OFFCURVE",
"601 -10 OFFCURVE",
"702 -10 CURVE SMOOTH"
);
},
{
closed = 1;
nodes = (
"109 413 OFFCURVE",
"175 497 OFFCURVE",
"292 497 CURVE SMOOTH",
"404 497 OFFCURVE",
"467 412 OFFCURVE",
"467 266 CURVE SMOOTH",
"467 116 OFFCURVE",
"406 34 OFFCURVE",
"293 34 CURVE SMOOTH",
"176 34 OFFCURVE",
"109 120 OFFCURVE",
"109 266 CURVE SMOOTH"
);
},
{
closed = 1;
nodes = (
"782 498 OFFCURVE",
"839 425 OFFCURVE",
"839 302 CURVE",
"520 302 LINE",
"530 428 OFFCURVE",
"587 498 OFFCURVE",
"688 498 CURVE SMOOTH"
);
}
);
width = 948;
}
);
note = oe;
unicode = 0153;
},
{
glyphname = Tbar;
lastChange = "2018-06-23 23:46:14 +0000";
layers = (
{
layerId = "A772B137-1B4D-4AF9-A163-8433B0F153CB";
paths = (
{
closed = 1;
nodes = (
"519 667 LINE",
"519 714 LINE",
"5 714 LINE",
"5 667 LINE",
"237 667 LINE",
"237 387 LINE",
"62 387 LINE",
"62 341 LINE",
"237 341 LINE",
"237 0 LINE",
"287 0 LINE",
"287 341 LINE",
"460 341 LINE",
"460 387 LINE",
"287 387 LINE",
"287 667 LINE"
);
}
);
width = 524;
}
);
note = Tbar;
unicode = 0166;
},
{
glyphname = tbar;
lastChange = "2018-06-23 23:46:14 +0000";
layers = (
{
layerId = "A772B137-1B4D-4AF9-A163-8433B0F153CB";
paths = (
{
closed = 1;
nodes = (
"91 294 LINE",
"91 146 LINE SMOOTH",
"91 39 OFFCURVE",
"134 -10 OFFCURVE",
"228 -10 CURVE SMOOTH",
"259 -10 OFFCURVE",
"286 -6 OFFCURVE",
"309 2 CURVE",
"309 41 LINE",
"286 36 OFFCURVE",
"260 33 OFFCURVE",
"229 33 CURVE SMOOTH",
"168 33 OFFCURVE",
"140 71 OFFCURVE",
"140 153 CURVE SMOOTH",
"140 294 LINE",
"291 294 LINE",
"291 336 LINE",
"140 336 LINE",
"140 489 LINE",
"296 489 LINE",
"296 531 LINE",
"140 531 LINE",
"140 659 LINE",
"115 659 LINE",
"91 539 LINE",
"12 517 LINE",
"12 489 LINE",
"91 489 LINE",
"91 336 LINE",
"20 336 LINE",
"20 294 LINE"
);
}
);
width = 335;
}
);
note = tbar;
unicode = 0167;
},
{
glyphname = uogonek;
lastChange = "2018-06-23 23:46:14 +0000";
layers = (
{
layerId = "A772B137-1B4D-4AF9-A163-8433B0F153CB";
paths = (
{
closed = 1;
nodes = (
"83 184 LINE SMOOTH",
"83 55 OFFCURVE",
"143 -10 OFFCURVE",
"264 -10 CURVE SMOOTH",
"353 -10 OFFCURVE",
"414 18 OFFCURVE",
"448 73 CURVE",
"451 73 LINE",
"459 2 LINE",
"409 -37 OFFCURVE",
"383 -83 OFFCURVE",
"383 -129 CURVE SMOOTH",
"383 -186 OFFCURVE",
"417 -218 OFFCURVE",
"472 -218 CURVE SMOOTH",
"493 -218 OFFCURVE",
"510 -215 OFFCURVE",
"523 -210 CURVE",
"523 -169 LINE",
"512 -173 OFFCURVE",
"499 -175 OFFCURVE",
"483 -175 CURVE SMOOTH",
"448 -175 OFFCURVE",
"431 -157 OFFCURVE",
"431 -121 CURVE SMOOTH",
"431 -74 OFFCURVE",
"454 -41 OFFCURVE",
"501 0 CURVE",
"501 531 LINE",
"453 531 LINE",
"453 238 LINE SMOOTH",
"453 94 OFFCURVE",
"396 34 OFFCURVE",
"269 34 CURVE SMOOTH",
"175 34 OFFCURVE",
"131 80 OFFCURVE",
"131 187 CURVE SMOOTH",
"131 531 LINE",
"83 531 LINE"
);
}
);
width = 590;
}
);
note = uogonek;
unicode = 0173;
},
{
glyphname = longs;
lastChange = "2018-06-23 23:46:14 +0000";
layers = (
{
anchors = (
{
name = bottom;
position = "{153, 0}";
},
{
name = top;
position = "{153, 531}";
}
);
layerId = "A772B137-1B4D-4AF9-A163-8433B0F153CB";
paths = (
{
closed = 1;
nodes = (
"137 680 OFFCURVE",
"166 722 OFFCURVE",
"241 722 CURVE SMOOTH",
"267 722 OFFCURVE",
"293 718 OFFCURVE",
"319 710 CURVE",
"330 752 LINE",
"301 761 OFFCURVE",
"271 765 OFFCURVE",
"242 765 CURVE SMOOTH",
"135 765 OFFCURVE",
"89 708 OFFCURVE",
"89 576 CURVE SMOOTH",
"89 0 LINE",
"137 0 LINE",
"137 580 LINE SMOOTH"
);
}
);
width = 306;
}
);
note = longs;
unicode = 017F;
},
{
glyphname = florin;
lastChange = "2018-06-23 23:46:14 +0000";
layers = (
{
layerId = "A772B137-1B4D-4AF9-A163-8433B0F153CB";
paths = (
{
closed = 1;
nodes = (
"249 -90 LINE SMOOTH",
"249 -161 OFFCURVE",
"220 -196 OFFCURVE",
"163 -196 CURVE SMOOTH",
"142 -196 OFFCURVE",
"118 -193 OFFCURVE",
"93 -187 CURVE",
"93 -231 LINE",
"111 -237 OFFCURVE",
"133 -240 OFFCURVE",
"161 -240 CURVE SMOOTH",
"250 -240 OFFCURVE",
"297 -186 OFFCURVE",
"297 -85 CURVE SMOOTH",
"297 417 LINE",
"434 417 LINE",
"434 460 LINE",
"297 460 LINE",
"297 539 LINE SMOOTH",
"297 641 OFFCURVE",
"328 681 OFFCURVE",
"403 681 CURVE SMOOTH",
"426 681 OFFCURVE",
"452 676 OFFCURVE",
"481 667 CURVE",
"493 709 LINE",
"460 719 OFFCURVE",
"431 724 OFFCURVE",
"404 724 CURVE SMOOTH",
"297 724 OFFCURVE",
"249 666 OFFCURVE",
"249 535 CURVE SMOOTH",
"249 464 LINE",
"148 446 LINE",
"148 417 LINE",
"249 417 LINE"
);
}
);
width = 571;
}
);
note = florin;
unicode = 0192;
},
{
glyphname = Aringacute;
lastChange = "2018-06-23 23:46:14 +0000";
layers = (
{
layerId = "A772B137-1B4D-4AF9-A163-8433B0F153CB";
paths = (
{
closed = 1;
nodes = (
"408 751 OFFCURVE",
"366 792 OFFCURVE",
"302 792 CURVE SMOOTH",
"239 792 OFFCURVE",
"196 750 OFFCURVE",
"196 689 CURVE SMOOTH",
"196 634 OFFCURVE",
"226 600 OFFCURVE",
"270 589 CURVE",
"-6 0 LINE",
"48 0 LINE",
"150 218 LINE",
"451 218 LINE",
"549 0 LINE",
"605 0 LINE",
"335 589 LINE",
"379 602 OFFCURVE",
"408 636 OFFCURVE",
"408 689 CURVE SMOOTH"
);
},
{
closed = 1;
nodes = (
"271 482 LINE SMOOTH",
"284 511 OFFCURVE",
"294 537 OFFCURVE",
"302 560 CURVE",
"313 527 OFFCURVE",
"323 502 OFFCURVE",
"331 485 CURVE SMOOTH",
"432 263 LINE",
"169 263 LINE"
);
},
{
closed = 1;
nodes = (
"235 730 OFFCURVE",
"263 757 OFFCURVE",
"302 757 CURVE SMOOTH",
"341 757 OFFCURVE",
"369 730 OFFCURVE",
"369 689 CURVE SMOOTH",
"369 646 OFFCURVE",
"342 620 OFFCURVE",
"302 620 CURVE SMOOTH",
"262 620 OFFCURVE",
"235 646 OFFCURVE",
"235 689 CURVE SMOOTH"
);
},
{
closed = 1;
nodes = (
"308 817 LINE",
"349 851 OFFCURVE",
"407 911 OFFCURVE",
"436 950 CURVE",
"436 958 LINE",
"367 958 LINE",
"338 906 OFFCURVE",
"308 861 OFFCURVE",
"274 825 CURVE",
"274 817 LINE"
);
}
);
width = 600;
}
);
note = Aringacute;
unicode = 01FA;
},
{
glyphname = aringacute;
lastChange = "2018-06-23 23:46:14 +0000";
layers = (
{
layerId = "A772B137-1B4D-4AF9-A163-8433B0F153CB";
paths = (
{
closed = 1;
nodes = (
"447 353 LINE SMOOTH",
"447 481 OFFCURVE",
"390 540 OFFCURVE",
"273 540 CURVE SMOOTH",
"216 540 OFFCURVE",
"158 526 OFFCURVE",
"100 499 CURVE",
"118 457 LINE",
"171 484 OFFCURVE",
"222 498 OFFCURVE",
"271 498 CURVE SMOOTH",
"362 498 OFFCURVE",
"401 446 OFFCURVE",
"401 345 CURVE SMOOTH",
"401 310 LINE",
"300 307 LINE SMOOTH",
"136 304 OFFCURVE",
"48 245 OFFCURVE",
"48 141 CURVE SMOOTH",
"48 47 OFFCURVE",
"109 -10 OFFCURVE",
"213 -10 CURVE SMOOTH",
"290 -10 OFFCURVE",
"342 16 OFFCURVE",
"395 84 CURVE",
"399 84 LINE",
"411 0 LINE",
"447 0 LINE"
);
},
{
closed = 1;
nodes = (
"142 34 OFFCURVE",
"99 73 OFFCURVE",
"99 139 CURVE SMOOTH",
"99 223 OFFCURVE",
"157 259 OFFCURVE",
"306 266 CURVE SMOOTH",
"399 270 LINE",
"399 218 LINE SMOOTH",
"399 103 OFFCURVE",
"329 34 OFFCURVE",
"216 34 CURVE SMOOTH"
);
},
{
closed = 1;
nodes = (
"261 830 LINE",
"306 865 OFFCURVE",
"364 922 OFFCURVE",
"387 951 CURVE",
"387 958 LINE",
"320 958 LINE",
"298 923 OFFCURVE",
"259 869 OFFCURVE",
"228 836 CURVE",
"228 830 LINE"
);
},
{
closed = 1;
nodes = (
"370 750 OFFCURVE",
"327 793 OFFCURVE",
"264 793 CURVE SMOOTH",
"201 793 OFFCURVE",
"158 751 OFFCURVE",
"158 690 CURVE SMOOTH",
"158 627 OFFCURVE",
"201 586 OFFCURVE",
"264 586 CURVE SMOOTH",
"327 586 OFFCURVE",
"370 627 OFFCURVE",
"370 690 CURVE SMOOTH"
);
},
{
closed = 1;
nodes = (
"197 731 OFFCURVE",
"225 758 OFFCURVE",
"264 758 CURVE SMOOTH",
"303 758 OFFCURVE",
"331 731 OFFCURVE",
"331 690 CURVE SMOOTH",
"331 647 OFFCURVE",
"305 621 OFFCURVE",
"264 621 CURVE SMOOTH",
"224 621 OFFCURVE",
"197 647 OFFCURVE",
"197 690 CURVE SMOOTH"
);
}
);
width = 530;
}
);
note = aringacute;
unicode = 01FB;
},
{
glyphname = circumflex;
lastChange = "2018-06-23 23:46:14 +0000";
layers = (
{
layerId = "A772B137-1B4D-4AF9-A163-8433B0F153CB";
paths = (
{
closed = 1;
nodes = (
"180 606 LINE",
"217 636 OFFCURVE",
"253 670 OFFCURVE",
"288 707 CURVE",
"320 672 OFFCURVE",
"356 639 OFFCURVE",
"396 606 CURVE",
"430 606 LINE",
"430 614 LINE",
"374 676 OFFCURVE",
"334 727 OFFCURVE",
"312 766 CURVE",
"264 766 LINE",
"237 723 OFFCURVE",
"187 657 OFFCURVE",
"146 614 CURVE",
"146 606 LINE"
);
}
);
width = 577;
}
);
note = circumflex;
unicode = 02C6;
},
{
glyphname = caron;
lastChange = "2018-06-23 23:46:14 +0000";
layers = (
{
layerId = "A772B137-1B4D-4AF9-A163-8433B0F153CB";
paths = (
{
closed = 1;
nodes = (
"396 766 LINE",
"359 736 OFFCURVE",
"323 702 OFFCURVE",
"288 665 CURVE",
"253 702 OFFCURVE",
"217 735 OFFCURVE",
"180 766 CURVE",
"146 766 LINE",
"146 758 LINE",
"200 698 OFFCURVE",
"239 647 OFFCURVE",
"264 606 CURVE",
"312 606 LINE",
"335 646 OFFCURVE",
"375 697 OFFCURVE",
"430 758 CURVE",
"430 766 LINE"
);
}
);
width = 577;
}
);
note = caron;
unicode = 02C7;
},
{
glyphname = macron;
lastChange = "2018-06-23 23:46:14 +0000";
layers = (
{
layerId = "A772B137-1B4D-4AF9-A163-8433B0F153CB";
paths = (
{
closed = 1;
nodes = (
"414 611 LINE",
"414 651 LINE",
"143 651 LINE",
"143 611 LINE"
);
}
);
width = 557;
}
);
note = macron;
unicode = 02C9;
},
{
glyphname = breve;
lastChange = "2018-06-23 23:46:14 +0000";
layers = (
{
layerId = "A772B137-1B4D-4AF9-A163-8433B0F153CB";
paths = (
{
closed = 1;
nodes = (
"367 606 OFFCURVE",
"412 646 OFFCURVE",
"422 726 CURVE",
"383 726 LINE",
"373 669 OFFCURVE",
"344 647 OFFCURVE",
"287 647 CURVE SMOOTH",
"230 647 OFFCURVE",
"201 669 OFFCURVE",
"192 726 CURVE",
"152 726 LINE",
"159 646 OFFCURVE",
"204 606 OFFCURVE",
"286 606 CURVE SMOOTH"
);
}
);
width = 577;
}
);
note = breve;
unicode = 02D8;
},
{
glyphname = dotaccent;
lastChange = "2018-06-23 23:46:14 +0000";
layers = (
{
layerId = "A772B137-1B4D-4AF9-A163-8433B0F153CB";
paths = (
{
closed = 1;
nodes = (
"87 646 OFFCURVE",
"97 631 OFFCURVE",
"118 631 CURVE SMOOTH",
"138 631 OFFCURVE",
"150 649 OFFCURVE",
"150 678 CURVE SMOOTH",
"150 708 OFFCURVE",
"138 725 OFFCURVE",
"118 725 CURVE SMOOTH",
"97 725 OFFCURVE",
"87 709 OFFCURVE",
"87 678 CURVE SMOOTH"
);
}
);
width = 236;
}
);
note = dotaccent;
unicode = 02D9;
},
{
glyphname = ring;
lastChange = "2018-06-23 23:46:14 +0000";
layers = (
{
layerId = "A772B137-1B4D-4AF9-A163-8433B0F153CB";
paths = (
{
closed = 1;
nodes = (
"393 771 OFFCURVE",
"350 814 OFFCURVE",
"287 814 CURVE SMOOTH",
"224 814 OFFCURVE",
"181 772 OFFCURVE",
"181 711 CURVE SMOOTH",
"181 648 OFFCURVE",
"224 607 OFFCURVE",
"287 607 CURVE SMOOTH",
"350 607 OFFCURVE",
"393 648 OFFCURVE",
"393 711 CURVE SMOOTH"
);
},
{
closed = 1;
nodes = (
"220 752 OFFCURVE",
"247 779 OFFCURVE",
"287 779 CURVE SMOOTH",
"326 779 OFFCURVE",
"354 752 OFFCURVE",
"354 711 CURVE SMOOTH",
"354 668 OFFCURVE",
"328 642 OFFCURVE",
"287 642 CURVE SMOOTH",
"247 642 OFFCURVE",
"220 668 OFFCURVE",
"220 711 CURVE SMOOTH"
);
}
);
width = 577;
}
);
note = ring;
unicode = 02DA;
},
{
glyphname = ogonek;
lastChange = "2018-06-23 23:46:14 +0000";
layers = (
{
layerId = "A772B137-1B4D-4AF9-A163-8433B0F153CB";
paths = (
{
closed = 1;
nodes = (
"79 -74 OFFCURVE",
"102 -41 OFFCURVE",
"149 0 CURVE",
"105 0 LINE",
"58 -37 OFFCURVE",
"31 -83 OFFCURVE",
"31 -129 CURVE SMOOTH",
"31 -186 OFFCURVE",
"65 -218 OFFCURVE",
"120 -218 CURVE SMOOTH",
"141 -218 OFFCURVE",
"158 -215 OFFCURVE",
"171 -210 CURVE",
"171 -169 LINE",
"160 -173 OFFCURVE",
"147 -175 OFFCURVE",
"131 -175 CURVE SMOOTH",
"96 -175 OFFCURVE",
"79 -157 OFFCURVE",
"79 -121 CURVE SMOOTH"
);
}
);
width = 174;
}
);
note = ogonek;
unicode = 02DB;
},
{
glyphname = tilde;
lastChange = "2018-06-23 23:46:14 +0000";
layers = (
{
layerId = "A772B137-1B4D-4AF9-A163-8433B0F153CB";
paths = (
{
closed = 1;
nodes = (
"432 607 OFFCURVE",
"469 647 OFFCURVE",
"479 723 CURVE",
"442 723 LINE",
"431 669 OFFCURVE",
"411 647 OFFCURVE",
"381 647 CURVE SMOOTH",
"362 647 OFFCURVE",
"341 664 OFFCURVE",
"319 682 CURVE SMOOTH",
"292 704 OFFCURVE",
"267 723 OFFCURVE",
"236 723 CURVE SMOOTH",
"181 723 OFFCURVE",
"145 679 OFFCURVE",
"138 607 CURVE",
"174 607 LINE",
"186 664 OFFCURVE",
"205 683 OFFCURVE",
"234 683 CURVE SMOOTH",
"255 683 OFFCURVE",
"274 668 OFFCURVE",
"295 651 CURVE SMOOTH",
"335 616 OFFCURVE",
"357 607 OFFCURVE",
"381 607 CURVE SMOOTH"
);
}
);
width = 577;
}
);
note = tilde;
unicode = 02DC;
},
{
glyphname = hungarumlaut;
lastChange = "2018-06-23 23:46:14 +0000";
layers = (
{
layerId = "A772B137-1B4D-4AF9-A163-8433B0F153CB";
paths = (
{
closed = 1;
nodes = (
"160 606 LINE",
"199 642 OFFCURVE",
"240 692 OFFCURVE",
"284 758 CURVE",
"284 766 LINE",
"218 766 LINE",
"190 712 OFFCURVE",
"170 676 OFFCURVE",
"159 658 CURVE SMOOTH",
"147 639 OFFCURVE",
"136 625 OFFCURVE",
"126 614 CURVE",
"126 606 LINE"
);
},
{
closed = 1;
nodes = (
"325 606 LINE",
"364 642 OFFCURVE",
"405 692 OFFCURVE",
"449 758 CURVE",
"449 766 LINE",
"383 766 LINE",
"355 712 OFFCURVE",
"335 676 OFFCURVE",
"324 658 CURVE SMOOTH",
"312 639 OFFCURVE",
"301 625 OFFCURVE",
"291 614 CURVE",
"291 606 LINE"
);
}
);
width = 577;
}
);
note = hungarumlaut;
unicode = 02DD;
},
{
glyphname = tonos;
lastChange = "2018-06-23 23:46:14 +0000";
layers = (
{
anchors = (
{
name = _top;
position = "{312, 531}";
}
);
layerId = "A772B137-1B4D-4AF9-A163-8433B0F153CB";
paths = (
{
closed = 1;
nodes = (
"287 606 LINE",
"321 663 OFFCURVE",
"354 748 OFFCURVE",
"365 798 CURVE",
"365 806 LINE",
"307 806 LINE",
"298 740 OFFCURVE",
"278 663 OFFCURVE",
"259 614 CURVE",
"259 606 LINE"
);
}
);
width = 577;
}
);
note = tonos;
unicode = 0384;
},
{
glyphname = dieresistonos;
lastChange = "2018-06-23 23:46:14 +0000";
layers = (
{
anchors = (
{
name = _top;
position = "{289, 531}";
}
);
layerId = "A772B137-1B4D-4AF9-A163-8433B0F153CB";
paths = (
{
closed = 1;
nodes = (
"285 678 LINE",
"318 725 OFFCURVE",
"356 795 OFFCURVE",
"370 829 CURVE",
"370 838 LINE",
"313 838 LINE",
"300 790 OFFCURVE",
"281 739 OFFCURVE",
"257 686 CURVE",
"257 678 LINE"
);
},
{
closed = 1;
nodes = (
"151 650 OFFCURVE",
"161 636 OFFCURVE",
"182 636 CURVE SMOOTH",
"203 636 OFFCURVE",
"213 650 OFFCURVE",
"213 678 CURVE SMOOTH",
"213 706 OFFCURVE",
"203 720 OFFCURVE",
"182 720 CURVE SMOOTH",
"161 720 OFFCURVE",
"151 706 OFFCURVE",
"151 678 CURVE SMOOTH"
);
},
{
closed = 1;
nodes = (
"364 650 OFFCURVE",
"374 636 OFFCURVE",
"395 636 CURVE SMOOTH",
"416 636 OFFCURVE",
"426 650 OFFCURVE",
"426 678 CURVE SMOOTH",
"426 706 OFFCURVE",
"416 720 OFFCURVE",
"395 720 CURVE SMOOTH",
"374 720 OFFCURVE",
"364 706 OFFCURVE",
"364 678 CURVE SMOOTH"
);
}
);
width = 577;
}
);
note = dieresistonos;
unicode = 0385;
},
{
glyphname = Gamma;
lastChange = "2018-06-23 23:46:14 +0000";
layers = (
{
layerId = "A772B137-1B4D-4AF9-A163-8433B0F153CB";
paths = (
{
closed = 1;
nodes = (
"492 668 LINE",
"492 714 LINE",
"101 714 LINE",
"101 0 LINE",
"151 0 LINE",
"151 668 LINE"
);
}
);
width = 502;
}
);
note = Gamma;
unicode = 0393;
},
{
glyphname = Theta;
lastChange = "2018-06-23 23:46:14 +0000";
layers = (
{
layerId = "A772B137-1B4D-4AF9-A163-8433B0F153CB";
paths = (
{
closed = 1;
nodes = (
"544 341 LINE",
"544 387 LINE",
"219 387 LINE",
"219 341 LINE"
);
},
{
closed = 1;
nodes = (
"701 585 OFFCURVE",
"582 725 OFFCURVE",
"383 725 CURVE SMOOTH",
"185 725 OFFCURVE",
"63 586 OFFCURVE",
"63 359 CURVE SMOOTH",
"63 131 OFFCURVE",
"183 -10 OFFCURVE",
"382 -10 CURVE SMOOTH",
"581 -10 OFFCURVE",
"701 131 OFFCURVE",
"701 358 CURVE SMOOTH"
);
},
{
closed = 1;
nodes = (
"117 562 OFFCURVE",
"213 677 OFFCURVE",
"383 677 CURVE SMOOTH",
"553 677 OFFCURVE",
"647 563 OFFCURVE",
"647 358 CURVE SMOOTH",
"647 151 OFFCURVE",
"554 37 OFFCURVE",
"382 37 CURVE SMOOTH",
"211 37 OFFCURVE",
"117 153 OFFCURVE",
"117 358 CURVE SMOOTH"
);
}
);
width = 764;
}
);
note = Theta;
unicode = 0398;
},
{
glyphname = Lambda;
lastChange = "2018-06-23 23:46:14 +0000";
layers = (
{
layerId = "A772B137-1B4D-4AF9-A163-8433B0F153CB";
paths = (
{
closed = 1;
nodes = (
"283 570 OFFCURVE",
"292 598 OFFCURVE",
"302 631 CURVE",
"314 594 OFFCURVE",
"324 566 OFFCURVE",
"331 547 CURVE SMOOTH",
"544 0 LINE",
"600 0 LINE",
"315 717 LINE",
"291 717 LINE",
"0 0 LINE",
"55 0 LINE",
"273 546 LINE SMOOTH"
);
}
);
width = 600;
}
);
note = Lambda;
unicode = 039B;
},
{
glyphname = Xi;
lastChange = "2018-06-23 23:46:14 +0000";
layers = (
{
layerId = "A772B137-1B4D-4AF9-A163-8433B0F153CB";
paths = (
{
closed = 1;
nodes = (
"451 352 LINE",
"451 398 LINE",
"80 398 LINE",
"80 352 LINE"
);
},
{
closed = 1;
nodes = (
"491 668 LINE",
"491 714 LINE",
"40 714 LINE",
"40 668 LINE"
);
},
{
closed = 1;
nodes = (
"20 0 LINE",
"511 0 LINE",
"511 46 LINE",
"20 46 LINE"
);
}
);
width = 531;
}
);
note = Xi;
unicode = 039E;
},
{
glyphname = Pi;
lastChange = "2018-06-23 23:46:14 +0000";
layers = (
{
layerId = "A772B137-1B4D-4AF9-A163-8433B0F153CB";
paths = (
{
closed = 1;
nodes = (
"101 714 LINE",
"101 0 LINE",
"151 0 LINE",
"151 667 LINE",
"563 667 LINE",
"563 0 LINE",
"613 0 LINE",
"613 714 LINE"
);
}
);
width = 714;
}
);
note = Pi;
unicode = 03A0;
},
{
glyphname = Sigma;
lastChange = "2018-06-23 23:46:14 +0000";
layers = (
{
layerId = "A772B137-1B4D-4AF9-A163-8433B0F153CB";
paths = (
{
closed = 1;
nodes = (
"536 46 LINE",
"94 46 LINE",
"353 374 LINE",
"102 669 LINE",
"191 668 LINE",
"507 668 LINE",
"507 714 LINE",
"36 714 LINE",
"36 674 LINE",
"290 371 LINE",
"30 41 LINE",
"30 0 LINE",
"536 0 LINE"
);
}
);
width = 551;
}
);
note = Sigma;
unicode = 03A3;
},
{
glyphname = Phi;
lastChange = "2018-06-23 23:46:14 +0000";
layers = (
{
layerId = "A772B137-1B4D-4AF9-A163-8433B0F153CB";
paths = (
{
closed = 1;
nodes = (
"338 636 LINE SMOOTH",
"280 636 OFFCURVE",
"229 625 OFFCURVE",
"187 603 CURVE SMOOTH",
"101 558 OFFCURVE",
"54 472 OFFCURVE",
"54 370 CURVE SMOOTH",
"54 314 OFFCURVE",
"65 267 OFFCURVE",
"88 227 CURVE SMOOTH",
"133 146 OFFCURVE",
"222 100 OFFCURVE",
"347 100 CURVE SMOOTH",
"356 100 LINE",
"356 -10 LINE",
"406 -10 LINE",
"406 100 LINE",
"411 100 LINE SMOOTH",
"475 100 OFFCURVE",
"529 111 OFFCURVE",
"574 134 CURVE SMOOTH",
"663 178 OFFCURVE",
"708 263 OFFCURVE",
"708 376 CURVE SMOOTH",
"708 540 OFFCURVE",
"606 636 OFFCURVE",
"427 636 CURVE SMOOTH",
"406 636 LINE",
"406 724 LINE",
"356 724 LINE",
"356 636 LINE"
);
},
{
closed = 1;
nodes = (
"427 595 LINE SMOOTH",
"573 595 OFFCURVE",
"654 517 OFFCURVE",
"654 374 CURVE SMOOTH",
"654 226 OFFCURVE",
"567 141 OFFCURVE",
"413 141 CURVE SMOOTH",
"406 141 LINE",
"406 595 LINE"
);
},
{
closed = 1;
nodes = (
"348 141 LINE SMOOTH",
"195 141 OFFCURVE",
"108 225 OFFCURVE",
"108 373 CURVE SMOOTH",
"108 510 OFFCURVE",
"193 595 OFFCURVE",
"336 595 CURVE SMOOTH",
"356 595 LINE",
"356 141 LINE"
);
}
);
width = 762;
}
);
note = Phi;
unicode = 03A6;
},
{
glyphname = Psi;
lastChange = "2018-06-23 23:46:14 +0000";
layers = (
{
layerId = "A772B137-1B4D-4AF9-A163-8433B0F153CB";
paths = (
{
closed = 1;
nodes = (
"415 221 LINE SMOOTH",
"597 221 OFFCURVE",
"694 306 OFFCURVE",
"694 478 CURVE SMOOTH",
"694 714 LINE",
"644 714 LINE",
"644 480 LINE SMOOTH",
"644 333 OFFCURVE",
"569 265 OFFCURVE",
"413 265 CURVE SMOOTH",
"402 265 LINE",
"402 714 LINE",
"352 714 LINE",
"352 265 LINE",
"341 265 LINE SMOOTH",
"185 265 OFFCURVE",
"110 333 OFFCURVE",
"110 480 CURVE SMOOTH",
"110 714 LINE",
"60 714 LINE",
"60 478 LINE SMOOTH",
"60 306 OFFCURVE",
"157 221 OFFCURVE",
"339 221 CURVE SMOOTH",
"352 221 LINE",
"352 0 LINE",
"402 0 LINE",
"402 221 LINE"
);
}
);
width = 764;
}
);
note = Psi;
unicode = 03A8;
},
{
glyphname = uni03A9;
lastChange = "2018-06-23 23:46:14 +0000";
layers = (
{
anchors = (
{
name = bottom;
position = "{388, 0}";
},
{
name = topleft;
position = "{10, 714}";
}
);
layerId = "A772B137-1B4D-4AF9-A163-8433B0F153CB";
paths = (
{
closed = 1;
nodes = (
"554 680 OFFCURVE",
"655 574 OFFCURVE",
"655 404 CURVE SMOOTH",
"655 254 OFFCURVE",
"599 149 OFFCURVE",
"459 35 CURVE",
"459 0 LINE",
"735 0 LINE",
"735 46 LINE",
"538 46 LINE",
"661 157 OFFCURVE",
"709 266 OFFCURVE",
"709 402 CURVE SMOOTH",
"709 606 OFFCURVE",
"590 725 OFFCURVE",
"387 725 CURVE SMOOTH",
"322 725 OFFCURVE",
"266 712 OFFCURVE",
"217 686 CURVE SMOOTH",
"120 633 OFFCURVE",
"66 531 OFFCURVE",
"66 401 CURVE SMOOTH",
"66 354 OFFCURVE",
"72 310 OFFCURVE",
"84 269 CURVE SMOOTH",
"109 187 OFFCURVE",
"152 123 OFFCURVE",
"239 46 CURVE",
"40 46 LINE",
"40 0 LINE",
"317 0 LINE",
"317 35 LINE",
"172 158 OFFCURVE",
"120 258 OFFCURVE",
"120 405 CURVE SMOOTH",
"120 575 OFFCURVE",
"224 680 OFFCURVE",
"387 680 CURVE SMOOTH"
);
}
);
width = 775;
}
);
note = uni03A9;
unicode = 03A9;
},
{
glyphname = alpha;
lastChange = "2018-06-23 23:46:14 +0000";
layers = (
{
anchors = (
{
name = top;
position = "{295, 531}";
}
);
layerId = "A772B137-1B4D-4AF9-A163-8433B0F153CB";
paths = (
{
closed = 1;
nodes = (
"167 33 OFFCURVE",
"109 110 OFFCURVE",
"109 264 CURVE SMOOTH",
"109 414 OFFCURVE",
"171 497 OFFCURVE",
"281 497 CURVE SMOOTH",
"399 497 OFFCURVE",
"453 430 OFFCURVE",
"453 276 CURVE SMOOTH",
"453 259 LINE SMOOTH",
"453 99 OFFCURVE",
"399 33 OFFCURVE",
"282 33 CURVE SMOOTH"
);
},
{
closed = 1;
nodes = (
"357 -10 OFFCURVE",
"411 18 OFFCURVE",
"452 82 CURVE",
"456 82 LINE",
"462 21 OFFCURVE",
"489 -10 OFFCURVE",
"536 -10 CURVE SMOOTH",
"553 -10 OFFCURVE",
"567 -7 OFFCURVE",
"576 -1 CURVE",
"576 34 LINE",
"567 31 OFFCURVE",
"557 29 OFFCURVE",
"545 29 CURVE SMOOTH",
"516 29 OFFCURVE",
"501 52 OFFCURVE",
"501 98 CURVE SMOOTH",
"501 340 LINE SMOOTH",
"501 423 OFFCURVE",
"508 487 OFFCURVE",
"521 531 CURVE",
"485 531 LINE",
"479 514 OFFCURVE",
"466 460 OFFCURVE",
"464 427 CURVE",
"461 427 LINE",
"426 505 OFFCURVE",
"370 541 OFFCURVE",
"286 541 CURVE SMOOTH",
"139 541 OFFCURVE",
"58 442 OFFCURVE",
"58 263 CURVE SMOOTH",
"58 85 OFFCURVE",
"135 -10 OFFCURVE",
"282 -10 CURVE SMOOTH"
);
}
);
width = 590;
}
);
note = alpha;
unicode = 03B1;
},
{
glyphname = beta;
lastChange = "2018-06-23 23:46:14 +0000";
layers = (
{
layerId = "A772B137-1B4D-4AF9-A163-8433B0F153CB";
paths = (
{
closed = 1;
nodes = (
"170 765 OFFCURVE",
"89 680 OFFCURVE",
"89 534 CURVE SMOOTH",
"89 -240 LINE",
"137 -240 LINE",
"137 43 LINE",
"199 10 OFFCURVE",
"259 -6 OFFCURVE",
"319 -6 CURVE SMOOTH",
"466 -6 OFFCURVE",
"558 71 OFFCURVE",
"558 202 CURVE SMOOTH",
"558 324 OFFCURVE",
"504 387 OFFCURVE",
"389 403 CURVE",
"389 406 LINE",
"481 423 OFFCURVE",
"529 486 OFFCURVE",
"529 577 CURVE SMOOTH",
"529 695 OFFCURVE",
"450 765 OFFCURVE",
"317 765 CURVE SMOOTH"
);
},
{
closed = 1;
nodes = (
"419 722 OFFCURVE",
"478 668 OFFCURVE",
"478 578 CURVE SMOOTH",
"478 476 OFFCURVE",
"422 422 OFFCURVE",
"315 422 CURVE SMOOTH",
"263 422 LINE",
"263 379 LINE",
"321 379 LINE SMOOTH",
"448 379 OFFCURVE",
"512 320 OFFCURVE",
"512 201 CURVE SMOOTH",
"512 94 OFFCURVE",
"439 32 OFFCURVE",
"318 32 CURVE SMOOTH",
"259 32 OFFCURVE",
"208 45 OFFCURVE",
"137 83 CURVE",
"137 536 LINE SMOOTH",
"137 658 OFFCURVE",
"197 722 OFFCURVE",
"316 722 CURVE SMOOTH"
);
}
);
width = 608;
}
);
note = beta;
unicode = 03B2;
},
{
glyphname = gamma;
lastChange = "2018-06-23 23:46:14 +0000";
layers = (
{
layerId = "A772B137-1B4D-4AF9-A163-8433B0F153CB";
paths = (
{
closed = 1;
nodes = (
"228 -164 OFFCURVE",
"249 -53 OFFCURVE",
"278 23 CURVE SMOOTH",
"475 531 LINE",
"425 531 LINE",
"292 179 LINE",
"250 63 LINE",
"247 63 LINE",
"186 216 LINE",
"55 531 LINE",
"5 531 LINE",
"226 6 LINE",
"198 -72 OFFCURVE",
"176 -180 OFFCURVE",
"176 -240 CURVE",
"224 -240 LINE"
);
}
);
width = 480;
}
);
note = gamma;
unicode = 03B3;
},
{
glyphname = delta;
lastChange = "2018-06-23 23:46:14 +0000";
layers = (
{
layerId = "A772B137-1B4D-4AF9-A163-8433B0F153CB";
paths = (
{
closed = 1;
nodes = (
"125 418 OFFCURVE",
"57 339 OFFCURVE",
"57 212 CURVE SMOOTH",
"57 79 OFFCURVE",
"149 -10 OFFCURVE",
"290 -10 CURVE SMOOTH",
"436 -10 OFFCURVE",
"523 81 OFFCURVE",
"523 230 CURVE SMOOTH",
"523 267 OFFCURVE",
"517 299 OFFCURVE",
"506 326 CURVE SMOOTH",
"482 380 OFFCURVE",
"442 420 OFFCURVE",
"334 482 CURVE SMOOTH",
"274 517 OFFCURVE",
"235 544 OFFCURVE",
"218 563 CURVE SMOOTH",
"201 582 OFFCURVE",
"192 604 OFFCURVE",
"192 632 CURVE SMOOTH",
"192 687 OFFCURVE",
"236 722 OFFCURVE",
"307 722 CURVE SMOOTH",
"361 722 OFFCURVE",
"407 711 OFFCURVE",
"480 674 CURVE",
"502 716 LINE",
"422 755 OFFCURVE",
"369 765 OFFCURVE",
"306 765 CURVE SMOOTH",
"209 765 OFFCURVE",
"142 709 OFFCURVE",
"142 630 CURVE SMOOTH",
"142 565 OFFCURVE",
"177 517 OFFCURVE",
"280 459 CURVE"
);
},
{
closed = 1;
nodes = (
"472 104 OFFCURVE",
"406 33 OFFCURVE",
"291 33 CURVE SMOOTH",
"179 33 OFFCURVE",
"108 104 OFFCURVE",
"108 212 CURVE SMOOTH",
"108 272 OFFCURVE",
"125 317 OFFCURVE",
"154 352 CURVE SMOOTH",
"184 386 OFFCURVE",
"226 410 OFFCURVE",
"322 433 CURVE",
"431 378 OFFCURVE",
"472 319 OFFCURVE",
"472 231 CURVE SMOOTH"
);
}
);
width = 581;
}
);
note = delta;
unicode = 03B4;
},
{
glyphname = epsilon;
lastChange = "2018-06-23 23:46:14 +0000";
layers = (
{
anchors = (
{
name = top;
position = "{227, 531}";
}
);
layerId = "A772B137-1B4D-4AF9-A163-8433B0F153CB";
paths = (
{
closed = 1;
nodes = (
"166 302 OFFCURVE",
"113 334 OFFCURVE",
"113 399 CURVE SMOOTH",
"113 462 OFFCURVE",
"158 498 OFFCURVE",
"250 498 CURVE SMOOTH",
"300 498 OFFCURVE",
"350 488 OFFCURVE",
"398 467 CURVE",
"416 508 LINE",
"359 532 OFFCURVE",
"313 541 OFFCURVE",
"250 541 CURVE SMOOTH",
"133 541 OFFCURVE",
"62 486 OFFCURVE",
"62 400 CURVE SMOOTH",
"62 343 OFFCURVE",
"97 304 OFFCURVE",
"167 283 CURVE",
"167 279 LINE",
"86 259 OFFCURVE",
"46 213 OFFCURVE",
"46 140 CURVE SMOOTH",
"46 46 OFFCURVE",
"124 -10 OFFCURVE",
"255 -10 CURVE SMOOTH",
"316 -10 OFFCURVE",
"368 3 OFFCURVE",
"412 28 CURVE",
"412 73 LINE",
"340 40 OFFCURVE",
"308 34 OFFCURVE",
"259 34 CURVE SMOOTH",
"157 34 OFFCURVE",
"97 76 OFFCURVE",
"97 144 CURVE SMOOTH",
"97 217 OFFCURVE",
"150 260 OFFCURVE",
"260 260 CURVE SMOOTH",
"328 260 LINE",
"328 302 LINE",
"272 302 LINE SMOOTH"
);
}
);
width = 453;
}
);
note = epsilon;
unicode = 03B5;
},
{
glyphname = zeta;
lastChange = "2018-06-23 23:46:14 +0000";
layers = (
{
layerId = "A772B137-1B4D-4AF9-A163-8433B0F153CB";
paths = (
{
closed = 1;
nodes = (
"286 718 OFFCURVE",
"345 719 OFFCURVE",
"379 721 CURVE",
"312 657 OFFCURVE",
"264 610 OFFCURVE",
"236 580 CURVE SMOOTH",
"179 519 OFFCURVE",
"135 462 OFFCURVE",
"105 406 CURVE SMOOTH",
"76 349 OFFCURVE",
"58 289 OFFCURVE",
"58 224 CURVE SMOOTH",
"58 102 OFFCURVE",
"114 37 OFFCURVE",
"250 12 CURVE SMOOTH",
"285 6 OFFCURVE",
"312 -1 OFFCURVE",
"331 -8 CURVE SMOOTH",
"369 -22 OFFCURVE",
"385 -38 OFFCURVE",
"385 -70 CURVE SMOOTH",
"385 -104 OFFCURVE",
"366 -146 OFFCURVE",
"329 -196 CURVE",
"376 -196 LINE",
"417 -140 OFFCURVE",
"431 -102 OFFCURVE",
"431 -63 CURVE SMOOTH",
"431 -20 OFFCURVE",
"413 7 OFFCURVE",
"372 26 CURVE SMOOTH",
"351 35 OFFCURVE",
"316 45 OFFCURVE",
"266 56 CURVE SMOOTH",
"223 65 OFFCURVE",
"191 77 OFFCURVE",
"169 90 CURVE SMOOTH",
"126 115 OFFCURVE",
"109 152 OFFCURVE",
"109 226 CURVE SMOOTH",
"109 276 OFFCURVE",
"120 325 OFFCURVE",
"141 371 CURVE SMOOTH",
"183 463 OFFCURVE",
"272 569 OFFCURVE",
"439 723 CURVE",
"439 760 LINE",
"89 760 LINE",
"89 718 LINE",
"201 718 LINE SMOOTH"
);
}
);
width = 467;
}
);
note = zeta;
unicode = 03B6;
},
{
glyphname = eta;
lastChange = "2018-06-23 23:46:14 +0000";
layers = (
{
anchors = (
{
name = top;
position = "{295, 531}";
}
);
layerId = "A772B137-1B4D-4AF9-A163-8433B0F153CB";
paths = (
{
closed = 1;
nodes = (
"507 347 LINE SMOOTH",
"507 477 OFFCURVE",
"445 541 OFFCURVE",
"314 541 CURVE SMOOTH",
"241 541 OFFCURVE",
"177 515 OFFCURVE",
"142 458 CURVE",
"139 458 LINE",
"130 531 LINE",
"89 531 LINE",
"89 0 LINE",
"137 0 LINE",
"137 293 LINE SMOOTH",
"137 436 OFFCURVE",
"191 497 OFFCURVE",
"314 497 CURVE SMOOTH",
"413 497 OFFCURVE",
"459 451 OFFCURVE",
"459 344 CURVE SMOOTH",
"459 -240 LINE",
"507 -240 LINE"
);
}
);
width = 590;
}
);
note = eta;
unicode = 03B7;
},
{
glyphname = theta;
lastChange = "2018-06-23 23:46:14 +0000";
layers = (
{
layerId = "A772B137-1B4D-4AF9-A163-8433B0F153CB";
paths = (
{
closed = 1;
nodes = (
"512 641 OFFCURVE",
"437 771 OFFCURVE",
"286 771 CURVE SMOOTH",
"138 771 OFFCURVE",
"58 636 OFFCURVE",
"58 381 CURVE SMOOTH",
"58 121 OFFCURVE",
"133 -10 OFFCURVE",
"283 -10 CURVE SMOOTH",
"435 -10 OFFCURVE",
"512 122 OFFCURVE",
"512 382 CURVE SMOOTH"
);
},
{
closed = 1;
nodes = (
"169 33 OFFCURVE",
"110 146 OFFCURVE",
"106 371 CURVE",
"464 371 LINE",
"459 146 OFFCURVE",
"399 33 OFFCURVE",
"284 33 CURVE SMOOTH"
);
},
{
closed = 1;
nodes = (
"396 728 OFFCURVE",
"455 626 OFFCURVE",
"463 413 CURVE",
"106 413 LINE",
"114 619 OFFCURVE",
"168 728 OFFCURVE",
"283 728 CURVE SMOOTH"
);
}
);
width = 570;
}
);
note = theta;
unicode = 03B8;
},
{
glyphname = iota;
lastChange = "2018-06-23 23:46:14 +0000";
layers = (
{
anchors = (
{
name = top;
position = "{154, 531}";
}
);
layerId = "A772B137-1B4D-4AF9-A163-8433B0F153CB";
paths = (
{
closed = 1;
nodes = (
"81 148 LINE SMOOTH",
"81 42 OFFCURVE",
"122 -10 OFFCURVE",
"221 -10 CURVE SMOOTH",
"245 -10 OFFCURVE",
"276 -4 OFFCURVE",
"289 0 CURVE",
"289 41 LINE",
"268 36 OFFCURVE",
"247 33 OFFCURVE",
"226 33 CURVE SMOOTH",
"157 33 OFFCURVE",
"129 65 OFFCURVE",
"129 153 CURVE SMOOTH",
"129 531 LINE",
"81 531 LINE"
);
}
);
width = 307;
}
);
note = iota;
unicode = 03B9;
},
{
glyphname = lambda;
lastChange = "2018-06-23 23:46:14 +0000";
layers = (
{
layerId = "A772B137-1B4D-4AF9-A163-8433B0F153CB";
paths = (
{
closed = 1;
nodes = (
"141 223 OFFCURVE",
"196 353 OFFCURVE",
"211 387 CURVE SMOOTH",
"225 422 OFFCURVE",
"238 455 OFFCURVE",
"248 486 CURVE",
"250 486 LINE",
"259 450 OFFCURVE",
"279 387 OFFCURVE",
"310 296 CURVE SMOOTH",
"394 57 LINE SMOOTH",
"411 10 OFFCURVE",
"431 -10 OFFCURVE",
"465 -10 CURVE SMOOTH",
"480 -10 OFFCURVE",
"493 -7 OFFCURVE",
"503 -2 CURVE",
"503 34 LINE",
"495 31 OFFCURVE",
"486 29 OFFCURVE",
"476 29 CURVE SMOOTH",
"457 29 OFFCURVE",
"447 43 OFFCURVE",
"437 71 CURVE SMOOTH",
"241 627 LINE SMOOTH",
"226 670 OFFCURVE",
"213 700 OFFCURVE",
"202 718 CURVE SMOOTH",
"180 752 OFFCURVE",
"153 766 OFFCURVE",
"109 766 CURVE SMOOTH",
"92 766 OFFCURVE",
"74 763 OFFCURVE",
"53 758 CURVE",
"53 721 LINE",
"72 725 OFFCURVE",
"89 727 OFFCURVE",
"103 727 CURVE SMOOTH",
"134 727 OFFCURVE",
"155 713 OFFCURVE",
"171 687 CURVE SMOOTH",
"179 673 OFFCURVE",
"189 648 OFFCURVE",
"200 614 CURVE SMOOTH",
"227 533 LINE",
"-6 0 LINE",
"45 0 LINE"
);
}
);
width = 503;
}
);
note = lambda;
unicode = 03BB;
},
{
glyphname = nu;
lastChange = "2018-06-23 23:46:14 +0000";
layers = (
{
layerId = "A772B137-1B4D-4AF9-A163-8433B0F153CB";
paths = (
{
closed = 1;
nodes = (
"248 0 LINE",
"404 146 OFFCURVE",
"472 302 OFFCURVE",
"472 531 CURVE",
"426 531 LINE",
"426 326 OFFCURVE",
"361 163 OFFCURVE",
"231 43 CURVE",
"228 43 LINE",
"221 63 OFFCURVE",
"213 86 OFFCURVE",
"204 112 CURVE SMOOTH",
"195 137 OFFCURVE",
"143 276 OFFCURVE",
"49 531 CURVE",
"-1 531 LINE",
"198 0 LINE"
);
}
);
width = 513;
}
);
note = nu;
unicode = 03BD;
},
{
glyphname = xi;
lastChange = "2018-06-23 23:46:14 +0000";
layers = (
{
layerId = "A772B137-1B4D-4AF9-A163-8433B0F153CB";
paths = (
{
closed = 1;
nodes = (
"322 422 LINE SMOOTH",
"198 422 OFFCURVE",
"136 463 OFFCURVE",
"136 546 CURVE SMOOTH",
"136 579 OFFCURVE",
"147 609 OFFCURVE",
"170 636 CURVE SMOOTH",
"216 688 OFFCURVE",
"307 721 OFFCURVE",
"408 721 CURVE SMOOTH",
"416 721 LINE",
"416 760 LINE",
"89 760 LINE",
"89 718 LINE",
"132 718 LINE SMOOTH",
"190 718 OFFCURVE",
"230 719 OFFCURVE",
"253 722 CURVE",
"149 694 OFFCURVE",
"92 629 OFFCURVE",
"92 544 CURVE SMOOTH",
"92 472 OFFCURVE",
"128 426 OFFCURVE",
"207 403 CURVE",
"207 398 LINE",
"113 371 OFFCURVE",
"58 300 OFFCURVE",
"58 206 CURVE SMOOTH",
"58 101 OFFCURVE",
"115 37 OFFCURVE",
"250 12 CURVE SMOOTH",
"285 6 OFFCURVE",
"312 -1 OFFCURVE",
"331 -8 CURVE SMOOTH",
"369 -21 OFFCURVE",
"385 -38 OFFCURVE",
"385 -71 CURVE SMOOTH",
"385 -103 OFFCURVE",
"366 -145 OFFCURVE",
"329 -196 CURVE",
"376 -196 LINE",
"413 -146 OFFCURVE",
"431 -103 OFFCURVE",
"431 -64 CURVE SMOOTH",
"431 -1 OFFCURVE",
"398 27 OFFCURVE",
"285 52 CURVE SMOOTH",
"232 63 OFFCURVE",
"194 75 OFFCURVE",
"173 87 CURVE SMOOTH",
"130 112 OFFCURVE",
"109 148 OFFCURVE",
"109 209 CURVE SMOOTH",
"109 313 OFFCURVE",
"191 381 OFFCURVE",
"322 381 CURVE SMOOTH",
"395 381 LINE",
"395 422 LINE"
);
}
);
width = 459;
}
);
note = xi;
unicode = 03BE;
},
{
glyphname = pi;
lastChange = "2018-06-23 23:46:14 +0000";
layers = (
{
layerId = "A772B137-1B4D-4AF9-A163-8433B0F153CB";
paths = (
{
closed = 1;
nodes = (
"494 33 OFFCURVE",
"476 59 OFFCURVE",
"476 109 CURVE SMOOTH",
"476 489 LINE",
"584 489 LINE",
"584 531 LINE",
"93 531 LINE",
"12 517 LINE",
"12 489 LINE",
"120 489 LINE",
"120 0 LINE",
"168 0 LINE",
"168 489 LINE",
"428 489 LINE",
"428 102 LINE SMOOTH",
"428 28 OFFCURVE",
"464 -10 OFFCURVE",
"523 -10 CURVE SMOOTH",
"538 -10 OFFCURVE",
"551 -7 OFFCURVE",
"563 -2 CURVE",
"563 39 LINE",
"555 35 OFFCURVE",
"543 33 OFFCURVE",
"530 33 CURVE SMOOTH"
);
}
);
width = 612;
}
);
note = pi;
unicode = 03C0;
},
{
glyphname = rho;
lastChange = "2018-06-23 23:46:14 +0000";
layers = (
{
layerId = "A772B137-1B4D-4AF9-A163-8433B0F153CB";
paths = (
{
closed = 1;
nodes = (
"526 447 OFFCURVE",
"450 541 OFFCURVE",
"306 541 CURVE SMOOTH",
"161 541 OFFCURVE",
"86 451 OFFCURVE",
"86 277 CURVE SMOOTH",
"86 -240 LINE",
"134 -240 LINE",
"134 -95 LINE",
"132 -4 LINE",
"131 42 LINE",
"132 42 LINE",
"174 7 OFFCURVE",
"231 -10 OFFCURVE",
"286 -10 CURVE SMOOTH",
"444 -10 OFFCURVE",
"526 85 OFFCURVE",
"526 267 CURVE SMOOTH"
);
},
{
closed = 1;
nodes = (
"421 497 OFFCURVE",
"475 418 OFFCURVE",
"475 267 CURVE SMOOTH",
"475 108 OFFCURVE",
"414 33 OFFCURVE",
"287 33 CURVE SMOOTH",
"224 33 OFFCURVE",
"178 53 OFFCURVE",
"134 93 CURVE",
"134 275 LINE SMOOTH",
"134 427 OFFCURVE",
"185 497 OFFCURVE",
"302 497 CURVE SMOOTH"
);
}
);
width = 584;
}
);
note = rho;
unicode = 03C1;
},
{
glyphname = sigma1;
lastChange = "2018-06-23 23:46:14 +0000";
layers = (
{
layerId = "A772B137-1B4D-4AF9-A163-8433B0F153CB";
paths = (
{
closed = 1;
nodes = (
"109 415 OFFCURVE",
"175 497 OFFCURVE",
"307 497 CURVE SMOOTH",
"334 497 OFFCURVE",
"382 489 OFFCURVE",
"427 474 CURVE",
"440 517 LINE",
"397 533 OFFCURVE",
"354 541 OFFCURVE",
"309 541 CURVE SMOOTH",
"149 541 OFFCURVE",
"58 434 OFFCURVE",
"58 248 CURVE SMOOTH",
"58 205 OFFCURVE",
"64 167 OFFCURVE",
"77 135 CURVE SMOOTH",
"102 70 OFFCURVE",
"153 31 OFFCURVE",
"255 11 CURVE SMOOTH",
"303 2 OFFCURVE",
"337 -9 OFFCURVE",
"356 -20 CURVE SMOOTH",
"375 -31 OFFCURVE",
"385 -48 OFFCURVE",
"385 -69 CURVE SMOOTH",
"385 -102 OFFCURVE",
"365 -147 OFFCURVE",
"329 -196 CURVE",
"376 -196 LINE",
"393 -173 OFFCURVE",
"404 -155 OFFCURVE",
"410 -143 CURVE SMOOTH",
"422 -119 OFFCURVE",
"431 -92 OFFCURVE",
"431 -63 CURVE SMOOTH",
"431 -1 OFFCURVE",
"393 29 OFFCURVE",
"288 51 CURVE SMOOTH",
"243 60 OFFCURVE",
"208 73 OFFCURVE",
"182 88 CURVE SMOOTH",
"130 120 OFFCURVE",
"109 159 OFFCURVE",
"109 251 CURVE SMOOTH"
);
}
);
width = 475;
}
);
note = sigma1;
unicode = 03C2;
},
{
glyphname = sigma;
lastChange = "2018-06-23 23:46:14 +0000";
layers = (
{
layerId = "A772B137-1B4D-4AF9-A163-8433B0F153CB";
paths = (
{
closed = 1;
nodes = (
"524 345 OFFCURVE",
"496 424 OFFCURVE",
"439 489 CURVE",
"563 489 LINE",
"563 531 LINE",
"344 531 LINE SMOOTH",
"157 531 OFFCURVE",
"58 435 OFFCURVE",
"58 251 CURVE SMOOTH",
"58 89 OFFCURVE",
"145 -10 OFFCURVE",
"289 -10 CURVE SMOOTH",
"436 -10 OFFCURVE",
"524 91 OFFCURVE",
"524 253 CURVE SMOOTH"
);
},
{
closed = 1;
nodes = (
"109 413 OFFCURVE",
"186 489 OFFCURVE",
"346 489 CURVE SMOOTH",
"385 489 LINE",
"444 424 OFFCURVE",
"473 343 OFFCURVE",
"473 246 CURVE SMOOTH",
"473 115 OFFCURVE",
"406 34 OFFCURVE",
"291 34 CURVE SMOOTH",
"174 34 OFFCURVE",
"109 115 OFFCURVE",
"109 251 CURVE SMOOTH"
);
}
);
width = 587;
}
);
note = sigma;
unicode = 03C3;
},
{
glyphname = tau;
lastChange = "2018-06-23 23:46:14 +0000";
layers = (
{
layerId = "A772B137-1B4D-4AF9-A163-8433B0F153CB";
paths = (
{
closed = 1;
nodes = (
"10 517 LINE",
"10 489 LINE",
"155 489 LINE",
"155 152 LINE SMOOTH",
"155 47 OFFCURVE",
"206 -10 OFFCURVE",
"305 -10 CURVE SMOOTH",
"341 -10 OFFCURVE",
"369 -6 OFFCURVE",
"387 1 CURVE",
"387 42 LINE",
"364 36 OFFCURVE",
"340 32 OFFCURVE",
"316 32 CURVE SMOOTH",
"238 32 OFFCURVE",
"204 73 OFFCURVE",
"204 158 CURVE SMOOTH",
"204 489 LINE",
"414 489 LINE",
"414 531 LINE",
"89 531 LINE"
);
}
);
width = 446;
}
);
note = tau;
unicode = 03C4;
},
{
glyphname = upsilon;
lastChange = "2018-06-23 23:46:14 +0000";
layers = (
{
anchors = (
{
name = top;
position = "{298, 531}";
}
);
layerId = "A772B137-1B4D-4AF9-A163-8433B0F153CB";
paths = (
{
closed = 1;
nodes = (
"450 -10 OFFCURVE",
"530 84 OFFCURVE",
"530 291 CURVE SMOOTH",
"530 385 OFFCURVE",
"520 455 OFFCURVE",
"500 531 CURVE",
"452 531 LINE",
"474 442 OFFCURVE",
"481 377 OFFCURVE",
"481 295 CURVE SMOOTH",
"481 118 OFFCURVE",
"421 33 OFFCURVE",
"298 33 CURVE SMOOTH",
"180 33 OFFCURVE",
"129 104 OFFCURVE",
"129 235 CURVE SMOOTH",
"129 531 LINE",
"81 531 LINE",
"81 240 LINE SMOOTH",
"81 70 OFFCURVE",
"151 -10 OFFCURVE",
"294 -10 CURVE SMOOTH"
);
}
);
width = 595;
}
);
note = upsilon;
unicode = 03C5;
},
{
glyphname = phi;
lastChange = "2018-06-23 23:46:14 +0000";
layers = (
{
layerId = "A772B137-1B4D-4AF9-A163-8433B0F153CB";
paths = (
{
closed = 1;
nodes = (
"359 -10 LINE",
"412 -6 OFFCURVE",
"458 8 OFFCURVE",
"497 32 CURVE SMOOTH",
"575 80 OFFCURVE",
"620 167 OFFCURVE",
"620 284 CURVE SMOOTH",
"620 444 OFFCURVE",
"557 541 OFFCURVE",
"449 541 CURVE SMOOTH",
"357 541 OFFCURVE",
"311 483 OFFCURVE",
"311 366 CURVE SMOOTH",
"311 33 LINE",
"176 45 OFFCURVE",
"109 126 OFFCURVE",
"109 270 CURVE SMOOTH",
"109 350 OFFCURVE",
"128 415 OFFCURVE",
"195 505 CURVE",
"156 532 LINE",
"91 452 OFFCURVE",
"58 364 OFFCURVE",
"58 270 CURVE SMOOTH",
"58 96 OFFCURVE",
"145 1 OFFCURVE",
"311 -10 CURVE",
"311 -240 LINE",
"359 -240 LINE"
);
},
{
closed = 1;
nodes = (
"569 234 OFFCURVE",
"561 192 OFFCURVE",
"543 156 CURVE SMOOTH",
"509 83 OFFCURVE",
"442 41 OFFCURVE",
"359 33 CURVE",
"359 367 LINE SMOOTH",
"359 450 OFFCURVE",
"389 497 OFFCURVE",
"446 497 CURVE SMOOTH",
"520 497 OFFCURVE",
"569 416 OFFCURVE",
"569 283 CURVE SMOOTH"
);
}
);
width = 678;
}
);
note = phi;
unicode = 03C6;
},
{
glyphname = chi;
lastChange = "2018-06-23 23:46:14 +0000";
layers = (
{
layerId = "A772B137-1B4D-4AF9-A163-8433B0F153CB";
paths = (
{
closed = 1;
nodes = (
"54 538 OFFCURVE",
"39 535 OFFCURVE",
"24 530 CURVE",
"24 495 LINE",
"36 498 OFFCURVE",
"47 499 OFFCURVE",
"56 499 CURVE SMOOTH",
"79 499 OFFCURVE",
"94 481 OFFCURVE",
"112 438 CURVE SMOOTH",
"223 163 LINE",
"-10 -240 LINE",
"45 -240 LINE",
"247 113 LINE",
"330 -96 LINE SMOOTH",
"348 -142 OFFCURVE",
"363 -173 OFFCURVE",
"374 -190 CURVE SMOOTH",
"396 -225 OFFCURVE",
"420 -240 OFFCURVE",
"458 -240 CURVE SMOOTH",
"477 -240 OFFCURVE",
"493 -238 OFFCURVE",
"505 -233 CURVE",
"505 -196 LINE",
"493 -199 OFFCURVE",
"479 -200 OFFCURVE",
"466 -200 CURVE SMOOTH",
"442 -200 OFFCURVE",
"427 -189 OFFCURVE",
"411 -160 CURVE SMOOTH",
"402 -146 OFFCURVE",
"390 -117 OFFCURVE",
"372 -73 CURVE SMOOTH",
"278 157 LINE",
"476 531 LINE",
"422 531 LINE",
"254 206 LINE",
"190 368 OFFCURVE",
"154 457 OFFCURVE",
"148 472 CURVE SMOOTH",
"142 488 OFFCURVE",
"135 500 OFFCURVE",
"127 510 CURVE SMOOTH",
"113 529 OFFCURVE",
"96 538 OFFCURVE",
"70 538 CURVE SMOOTH"
);
}
);
width = 514;
}
);
note = chi;
unicode = 03C7;
},
{
glyphname = psi;
lastChange = "2018-06-23 23:46:14 +0000";
layers = (
{
layerId = "A772B137-1B4D-4AF9-A163-8433B0F153CB";
paths = (
{
closed = 1;
nodes = (
"337 36 LINE",
"203 44 OFFCURVE",
"129 123 OFFCURVE",
"129 267 CURVE SMOOTH",
"129 531 LINE",
"81 531 LINE",
"81 268 LINE SMOOTH",
"81 94 OFFCURVE",
"169 -1 OFFCURVE",
"337 -9 CURVE",
"337 -240 LINE",
"385 -240 LINE",
"385 -9 LINE",
"561 2 OFFCURVE",
"656 110 OFFCURVE",
"656 291 CURVE SMOOTH",
"656 377 OFFCURVE",
"646 457 OFFCURVE",
"625 531 CURVE",
"578 531 LINE",
"602 431 OFFCURVE",
"607 368 OFFCURVE",
"607 286 CURVE SMOOTH",
"607 134 OFFCURVE",
"531 47 OFFCURVE",
"385 36 CURVE",
"385 759 LINE",
"337 759 LINE"
);
}
);
width = 721;
}
);
note = psi;
unicode = 03C8;
},
{
glyphname = omega;
lastChange = "2018-06-23 23:46:14 +0000";
layers = (
{
anchors = (
{
name = bottom;
position = "{367, 0}";
},
{
name = top;
position = "{367, 531}";
}
);
layerId = "A772B137-1B4D-4AF9-A163-8433B0F153CB";
paths = (
{
closed = 1;
nodes = (
"614 -10 OFFCURVE",
"676 87 OFFCURVE",
"676 255 CURVE SMOOTH",
"676 362 OFFCURVE",
"657 445 OFFCURVE",
"616 531 CURVE",
"566 531 LINE",
"609 430 OFFCURVE",
"625 353 OFFCURVE",
"625 253 CURVE SMOOTH",
"625 112 OFFCURVE",
"583 34 OFFCURVE",
"502 34 CURVE SMOOTH",
"430 34 OFFCURVE",
"391 87 OFFCURVE",
"391 176 CURVE SMOOTH",
"391 334 LINE",
"343 334 LINE",
"343 176 LINE SMOOTH",
"343 84 OFFCURVE",
"305 34 OFFCURVE",
"235 34 CURVE SMOOTH",
"154 34 OFFCURVE",
"109 110 OFFCURVE",
"109 253 CURVE SMOOTH",
"109 351 OFFCURVE",
"125 431 OFFCURVE",
"168 531 CURVE",
"118 531 LINE",
"76 442 OFFCURVE",
"58 360 OFFCURVE",
"58 255 CURVE SMOOTH",
"58 84 OFFCURVE",
"122 -10 OFFCURVE",
"231 -10 CURVE SMOOTH",
"299 -10 OFFCURVE",
"340 20 OFFCURVE",
"365 87 CURVE",
"370 87 LINE",
"393 25 OFFCURVE",
"431 -10 OFFCURVE",
"505 -10 CURVE SMOOTH"
);
}
);
width = 734;
}
);
note = omega;
unicode = 03C9;
},
{
glyphname = afii10051;
lastChange = "2018-06-23 23:46:14 +0000";
layers = (
{
layerId = "A772B137-1B4D-4AF9-A163-8433B0F153CB";
paths = (
{
closed = 1;
nodes = (
"557 -10 OFFCURVE",
"615 57 OFFCURVE",
"615 176 CURVE SMOOTH",
"615 254 LINE SMOOTH",
"615 373 OFFCURVE",
"557 429 OFFCURVE",
"433 429 CURVE SMOOTH",
"219 429 LINE",
"219 667 LINE",
"471 667 LINE",
"471 714 LINE",
"5 714 LINE",
"5 667 LINE",
"169 667 LINE",
"169 0 LINE",
"219 0 LINE",
"219 383 LINE",
"419 383 LINE SMOOTH",
"522 383 OFFCURVE",
"564 347 OFFCURVE",
"564 252 CURVE SMOOTH",
"564 174 LINE SMOOTH",
"564 87 OFFCURVE",
"524 39 OFFCURVE",
"453 39 CURVE SMOOTH",
"426 39 OFFCURVE",
"403 42 OFFCURVE",
"384 48 CURVE",
"384 -1 LINE",
"399 -7 OFFCURVE",
"422 -10 OFFCURVE",
"453 -10 CURVE SMOOTH"
);
}
);
width = 696;
}
);
note = afii10051;
unicode = 0402;
},
{
glyphname = afii10053;
lastChange = "2018-06-23 23:46:14 +0000";
layers = (
{
layerId = "A772B137-1B4D-4AF9-A163-8433B0F153CB";
paths = (
{
closed = 1;
nodes = (
"463 679 OFFCURVE",
"518 666 OFFCURVE",
"570 640 CURVE",
"590 685 LINE",
"535 711 OFFCURVE",
"473 724 OFFCURVE",
"403 724 CURVE SMOOTH",
"334 724 OFFCURVE",
"274 709 OFFCURVE",
"223 679 CURVE SMOOTH",
"120 619 OFFCURVE",
"63 504 OFFCURVE",
"63 359 CURVE SMOOTH",
"63 126 OFFCURVE",
"186 -10 OFFCURVE",
"386 -10 CURVE SMOOTH",
"457 -10 OFFCURVE",
"516 -1 OFFCURVE",
"563 15 CURVE",
"563 59 LINE",
"513 44 OFFCURVE",
"458 36 OFFCURVE",
"398 36 CURVE SMOOTH",
"222 36 OFFCURVE",
"120 148 OFFCURVE",
"116 351 CURVE",
"497 351 LINE",
"497 397 LINE",
"118 397 LINE",
"131 574 OFFCURVE",
"239 679 OFFCURVE",
"406 679 CURVE SMOOTH"
);
}
);
width = 621;
}
);
note = afii10053;
unicode = 0404;
},
{
glyphname = afii10058;
lastChange = "2018-06-23 23:46:14 +0000";
layers = (
{
layerId = "A772B137-1B4D-4AF9-A163-8433B0F153CB";
paths = (
{
closed = 1;
nodes = (
"860 340 OFFCURVE",
"779 399 OFFCURVE",
"616 399 CURVE SMOOTH",
"521 399 LINE",
"521 714 LINE",
"233 714 LINE",
"213 565 OFFCURVE",
"195 444 OFFCURVE",
"180 353 CURVE SMOOTH",
"165 261 OFFCURVE",
"152 194 OFFCURVE",
"141 150 CURVE SMOOTH",
"119 63 OFFCURVE",
"98 35 OFFCURVE",
"53 35 CURVE SMOOTH",
"38 35 OFFCURVE",
"20 39 OFFCURVE",
"0 46 CURVE",
"0 1 LINE",
"18 -7 OFFCURVE",
"37 -11 OFFCURVE",
"57 -11 CURVE SMOOTH",
"121 -11 OFFCURVE",
"156 22 OFFCURVE",
"182 106 CURVE SMOOTH",
"194 148 OFFCURVE",
"207 211 OFFCURVE",
"220 294 CURVE SMOOTH",
"233 378 OFFCURVE",
"252 502 OFFCURVE",
"275 667 CURVE",
"471 667 LINE",
"471 0 LINE",
"625 0 LINE SMOOTH",
"774 0 OFFCURVE",
"860 74 OFFCURVE",
"860 207 CURVE SMOOTH"
);
},
{
closed = 1;
nodes = (
"607 355 LINE SMOOTH",
"750 355 OFFCURVE",
"806 312 OFFCURVE",
"806 207 CURVE SMOOTH",
"806 94 OFFCURVE",
"745 44 OFFCURVE",
"614 44 CURVE SMOOTH",
"521 44 LINE",
"521 355 LINE"
);
}
);
width = 915;
}
);
note = afii10058;
unicode = 0409;
},
{
glyphname = afii10059;
lastChange = "2018-06-23 23:46:14 +0000";
layers = (
{
layerId = "A772B137-1B4D-4AF9-A163-8433B0F153CB";
paths = (
{
closed = 1;
nodes = (
"503 714 LINE",
"503 399 LINE",
"151 399 LINE",
"151 714 LINE",
"101 714 LINE",
"101 0 LINE",
"151 0 LINE",
"151 353 LINE",
"503 353 LINE",
"503 0 LINE",
"657 0 LINE SMOOTH",
"806 0 OFFCURVE",
"892 74 OFFCURVE",
"892 207 CURVE SMOOTH",
"892 340 OFFCURVE",
"810 399 OFFCURVE",
"648 399 CURVE SMOOTH",
"553 399 LINE",
"553 714 LINE"
);
},
{
closed = 1;
nodes = (
"639 355 LINE SMOOTH",
"782 355 OFFCURVE",
"838 312 OFFCURVE",
"838 207 CURVE SMOOTH",
"838 93 OFFCURVE",
"777 44 OFFCURVE",
"646 44 CURVE SMOOTH",
"553 44 LINE",
"553 355 LINE"
);
}
);
width = 947;
}
);
note = afii10059;
unicode = 040A;
},
{
glyphname = afii10060;
lastChange = "2018-06-23 23:46:14 +0000";
layers = (
{
layerId = "A772B137-1B4D-4AF9-A163-8433B0F153CB";
paths = (
{
closed = 1;
nodes = (
"484 667 LINE",
"484 714 LINE",
"5 714 LINE",
"5 667 LINE",
"169 667 LINE",
"169 0 LINE",
"219 0 LINE",
"219 383 LINE",
"432 383 LINE SMOOTH",
"530 383 OFFCURVE",
"564 351 OFFCURVE",
"564 257 CURVE SMOOTH",
"564 0 LINE",
"615 0 LINE",
"615 254 LINE SMOOTH",
"615 377 OFFCURVE",
"562 429 OFFCURVE",
"439 429 CURVE SMOOTH",
"219 429 LINE",
"219 667 LINE"
);
}
);
width = 698;
}
);
note = afii10060;
unicode = 040B;
},
{
glyphname = afii10145;
lastChange = "2018-06-23 23:46:14 +0000";
layers = (
{
layerId = "A772B137-1B4D-4AF9-A163-8433B0F153CB";
paths = (
{
closed = 1;
nodes = (
"563 714 LINE",
"563 47 LINE",
"151 47 LINE",
"151 714 LINE",
"101 714 LINE",
"101 0 LINE",
"333 0 LINE",
"333 -180 LINE",
"381 -180 LINE",
"381 0 LINE",
"613 0 LINE",
"613 714 LINE"
);
}
);
width = 714;
}
);
note = afii10145;
unicode = 040F;
},
{
glyphname = afii10018;
lastChange = "2018-06-23 23:46:14 +0000";
layers = (
{
layerId = "A772B137-1B4D-4AF9-A163-8433B0F153CB";
paths = (
{
closed = 1;
nodes = (
"151 667 LINE",
"502 667 LINE",
"502 714 LINE",
"101 714 LINE",
"101 0 LINE",
"305 0 LINE SMOOTH",
"456 0 OFFCURVE",
"540 74 OFFCURVE",
"540 205 CURVE SMOOTH",
"540 339 OFFCURVE",
"458 399 OFFCURVE",
"294 399 CURVE SMOOTH",
"151 399 LINE"
);
},
{
closed = 1;
nodes = (
"287 355 LINE SMOOTH",
"427 355 OFFCURVE",
"486 313 OFFCURVE",
"486 205 CURVE SMOOTH",
"486 94 OFFCURVE",
"425 44 OFFCURVE",
"297 44 CURVE SMOOTH",
"151 44 LINE",
"151 355 LINE"
);
}
);
width = 595;
}
);
note = afii10018;
unicode = 0411;
},
{
glyphname = afii10021;
lastChange = "2018-06-23 23:46:14 +0000";
layers = (
{
layerId = "A772B137-1B4D-4AF9-A163-8433B0F153CB";
paths = (
{
closed = 1;
nodes = (
"550 47 LINE",
"550 714 LINE",
"246 714 LINE",
"238 507 OFFCURVE",
"154 214 OFFCURVE",
"58 47 CURVE",
"7 47 LINE",
"7 -180 LINE",
"55 -180 LINE",
"55 0 LINE",
"575 0 LINE",
"575 -180 LINE",
"623 -180 LINE",
"623 47 LINE"
);
},
{
closed = 1;
nodes = (
"199 195 OFFCURVE",
"273 462 OFFCURVE",
"289 667 CURVE",
"499 667 LINE",
"499 47 LINE",
"114 47 LINE"
);
}
);
width = 653;
}
);
note = afii10021;
unicode = 0414;
},
{
glyphname = afii10024;
lastChange = "2018-06-23 23:46:14 +0000";
layers = (
{
anchors = (
{
name = bottomright;
position = "{770, 0}";
},
{
name = top;
position = "{390, 714}";
}
);
layerId = "A772B137-1B4D-4AF9-A163-8433B0F153CB";
paths = (
{
closed = 1;
nodes = (
"66 0 LINE",
"365 362 LINE",
"365 0 LINE",
"415 0 LINE",
"415 362 LINE",
"714 0 LINE",
"780 0 LINE",
"474 367 LINE",
"764 714 LINE",
"702 714 LINE",
"415 368 LINE",
"415 714 LINE",
"365 714 LINE",
"365 368 LINE",
"78 714 LINE",
"16 714 LINE",
"305 364 LINE",
"0 0 LINE"
);
}
);
width = 780;
}
);
note = afii10024;
unicode = 0416;
},
{
glyphname = afii10025;
lastChange = "2018-06-23 23:46:14 +0000";
layers = (
{
anchors = (
{
name = bottom;
position = "{280, 0}";
},
{
name = top;
position = "{280, 714}";
}
);
layerId = "A772B137-1B4D-4AF9-A163-8433B0F153CB";
paths = (
{
closed = 1;
nodes = (
"489 656 OFFCURVE",
"406 724 OFFCURVE",
"273 724 CURVE SMOOTH",
"188 724 OFFCURVE",
"113 699 OFFCURVE",
"47 649 CURVE",
"75 610 LINE",
"146 660 OFFCURVE",
"201 678 OFFCURVE",
"273 678 CURVE SMOOTH",
"370 678 OFFCURVE",
"436 625 OFFCURVE",
"436 544 CURVE SMOOTH",
"436 448 OFFCURVE",
"372 394 OFFCURVE",
"234 394 CURVE SMOOTH",
"124 394 LINE",
"124 347 LINE",
"230 347 LINE SMOOTH",
"376 347 OFFCURVE",
"449 296 OFFCURVE",
"449 197 CURVE SMOOTH",
"449 95 OFFCURVE",
"369 36 OFFCURVE",
"239 36 CURVE SMOOTH",
"176 36 OFFCURVE",
"102 53 OFFCURVE",
"40 83 CURVE",
"40 32 LINE",
"94 4 OFFCURVE",
"160 -10 OFFCURVE",
"239 -10 CURVE SMOOTH",
"407 -10 OFFCURVE",
"503 67 OFFCURVE",
"503 198 CURVE SMOOTH",
"503 291 OFFCURVE",
"449 349 OFFCURVE",
"341 372 CURVE",
"341 375 LINE",
"439 396 OFFCURVE",
"489 454 OFFCURVE",
"489 547 CURVE SMOOTH"
);
}
);
width = 559;
}
);
note = afii10025;
unicode = 0417;
},
{
glyphname = afii10026;
lastChange = "2018-06-23 23:46:14 +0000";
layers = (
{
anchors = (
{
name = bottomright;
position = "{711, 0}";
},
{
name = top;
position = "{361, 714}";
}
);
layerId = "A772B137-1B4D-4AF9-A163-8433B0F153CB";
paths = (
{
closed = 1;
nodes = (
"151 0 LINE",
"574 635 LINE",
"578 635 LINE",
"574 574 OFFCURVE",
"572 517 OFFCURVE",
"572 464 CURVE SMOOTH",
"572 0 LINE",
"620 0 LINE",
"620 714 LINE",
"570 714 LINE",
"148 80 LINE",
"145 80 LINE",
"147 158 OFFCURVE",
"149 214 OFFCURVE",
"149 247 CURVE SMOOTH",
"149 714 LINE",
"101 714 LINE",
"101 0 LINE"
);
}
);
width = 721;
}
);
note = afii10026;
unicode = 0418;
},
{
glyphname = afii10028;
lastChange = "2018-06-23 23:46:14 +0000";
layers = (
{
anchors = (
{
name = bottomright;
position = "{562, 0}";
},
{
name = top;
position = "{286, 714}";
}
);
layerId = "A772B137-1B4D-4AF9-A163-8433B0F153CB";
paths = (
{
closed = 1;
nodes = (
"560 714 LINE",
"494 714 LINE",
"151 368 LINE",
"151 714 LINE",
"101 714 LINE",
"101 0 LINE",
"151 0 LINE",
"151 364 LINE",
"504 0 LINE",
"572 0 LINE",
"215 368 LINE"
);
}
);
width = 572;
}
);
note = afii10028;
unicode = 041A;
},
{
glyphname = afii10029;
lastChange = "2018-06-23 23:46:14 +0000";
layers = (
{
layerId = "A772B137-1B4D-4AF9-A163-8433B0F153CB";
paths = (
{
closed = 1;
nodes = (
"229 714 LINE",
"192 416 OFFCURVE",
"153 158 OFFCURVE",
"122 88 CURVE SMOOTH",
"105 53 OFFCURVE",
"83 35 OFFCURVE",
"55 35 CURVE SMOOTH",
"38 35 OFFCURVE",
"20 39 OFFCURVE",
"0 46 CURVE",
"0 1 LINE",
"16 -7 OFFCURVE",
"35 -11 OFFCURVE",
"57 -11 CURVE SMOOTH",
"82 -11 OFFCURVE",
"102 -6 OFFCURVE",
"118 3 CURVE SMOOTH",
"149 22 OFFCURVE",
"170 58 OFFCURVE",
"191 142 CURVE SMOOTH",
"211 226 OFFCURVE",
"244 446 OFFCURVE",
"271 667 CURVE",
"530 667 LINE",
"530 0 LINE",
"580 0 LINE",
"580 714 LINE"
);
}
);
width = 681;
}
);
note = afii10029;
unicode = 041B;
},
{
glyphname = afii10037;
lastChange = "2018-06-23 23:46:14 +0000";
layers = (
{
anchors = (
{
name = top;
position = "{294, 714}";
}
);
layerId = "A772B137-1B4D-4AF9-A163-8433B0F153CB";
paths = (
{
closed = 1;
nodes = (
"199 -10 OFFCURVE",
"240 14 OFFCURVE",
"272 53 CURVE SMOOTH",
"305 92 OFFCURVE",
"330 147 OFFCURVE",
"359 212 CURVE SMOOTH",
"588 714 LINE",
"532 714 LINE",
"327 257 LINE",
"315 227 LINE",
"313 227 LINE",
"304 251 OFFCURVE",
"293 274 OFFCURVE",
"282 297 CURVE SMOOTH",
"64 714 LINE",
"5 714 LINE",
"289 177 LINE",
"269 135 OFFCURVE",
"251 105 OFFCURVE",
"237 88 CURVE SMOOTH",
"208 52 OFFCURVE",
"177 37 OFFCURVE",
"130 37 CURVE SMOOTH",
"99 37 OFFCURVE",
"69 43 OFFCURVE",
"41 55 CURVE",
"41 5 LINE",
"65 -5 OFFCURVE",
"96 -10 OFFCURVE",
"135 -10 CURVE SMOOTH"
);
}
);
width = 588;
}
);
note = afii10037;
unicode = 0423;
},
{
glyphname = afii10040;
lastChange = "2018-06-23 23:46:14 +0000";
layers = (
{
layerId = "A772B137-1B4D-4AF9-A163-8433B0F153CB";
paths = (
{
closed = 1;
nodes = (
"563 714 LINE",
"563 47 LINE",
"151 47 LINE",
"151 714 LINE",
"101 714 LINE",
"101 0 LINE",
"641 0 LINE",
"641 -180 LINE",
"689 -180 LINE",
"689 47 LINE",
"613 47 LINE",
"613 714 LINE"
);
}
);
width = 719;
}
);
note = afii10040;
unicode = 0426;
},
{
glyphname = afii10041;
lastChange = "2018-06-23 23:46:14 +0000";
layers = (
{
anchors = (
{
name = bottomright;
position = "{660, 0}";
},
{
name = top;
position = "{335, 714}";
}
);
layerId = "A772B137-1B4D-4AF9-A163-8433B0F153CB";
paths = (
{
closed = 1;
nodes = (
"519 714 LINE",
"519 353 LINE",
"412 314 OFFCURVE",
"360 307 OFFCURVE",
"298 307 CURVE SMOOTH",
"192 307 OFFCURVE",
"139 351 OFFCURVE",
"139 437 CURVE SMOOTH",
"139 714 LINE",
"89 714 LINE",
"89 439 LINE SMOOTH",
"89 318 OFFCURVE",
"161 260 OFFCURVE",
"294 260 CURVE SMOOTH",
"359 260 OFFCURVE",
"434 276 OFFCURVE",
"519 310 CURVE",
"519 0 LINE",
"569 0 LINE",
"569 714 LINE"
);
}
);
width = 670;
}
);
note = afii10041;
unicode = 0427;
},
{
glyphname = afii10042;
lastChange = "2018-06-23 23:46:14 +0000";
layers = (
{
layerId = "A772B137-1B4D-4AF9-A163-8433B0F153CB";
paths = (
{
closed = 1;
nodes = (
"855 714 LINE",
"855 47 LINE",
"528 47 LINE",
"528 714 LINE",
"478 714 LINE",
"478 47 LINE",
"151 47 LINE",
"151 714 LINE",
"101 714 LINE",
"101 0 LINE",
"905 0 LINE",
"905 714 LINE"
);
}
);
width = 1006;
}
);
note = afii10042;
unicode = 0428;
},
{
glyphname = afii10043;
lastChange = "2018-06-23 23:46:14 +0000";
layers = (
{
layerId = "A772B137-1B4D-4AF9-A163-8433B0F153CB";
paths = (
{
closed = 1;
nodes = (
"933 -180 LINE",
"981 -180 LINE",
"981 47 LINE",
"905 47 LINE",
"905 714 LINE",
"855 714 LINE",
"855 47 LINE",
"528 47 LINE",
"528 714 LINE",
"478 714 LINE",
"478 47 LINE",
"151 47 LINE",
"151 714 LINE",
"101 714 LINE",
"101 0 LINE",
"933 0 LINE"
);
}
);
width = 1011;
}
);
note = afii10043;
unicode = 0429;
},
{
glyphname = afii10044;
lastChange = "2018-06-23 23:46:14 +0000";
layers = (
{
anchors = (
{
name = top;
position = "{329, 714}";
}
);
layerId = "A772B137-1B4D-4AF9-A163-8433B0F153CB";
paths = (
{
closed = 1;
nodes = (
"519 0 OFFCURVE",
"603 74 OFFCURVE",
"603 205 CURVE SMOOTH",
"603 339 OFFCURVE",
"521 399 OFFCURVE",
"357 399 CURVE SMOOTH",
"219 399 LINE",
"219 714 LINE",
"5 714 LINE",
"5 667 LINE",
"169 667 LINE",
"169 0 LINE",
"368 0 LINE SMOOTH"
);
},
{
closed = 1;
nodes = (
"350 355 LINE SMOOTH",
"490 355 OFFCURVE",
"549 313 OFFCURVE",
"549 205 CURVE SMOOTH",
"549 94 OFFCURVE",
"488 44 OFFCURVE",
"360 44 CURVE SMOOTH",
"219 44 LINE",
"219 355 LINE"
);
}
);
width = 658;
}
);
note = afii10044;
unicode = 042A;
},
{
glyphname = afii10045;
lastChange = "2018-06-23 23:46:14 +0000";
layers = (
{
anchors = (
{
name = top;
position = "{408, 714}";
}
);
layerId = "A772B137-1B4D-4AF9-A163-8433B0F153CB";
paths = (
{
closed = 1;
nodes = (
"664 714 LINE",
"664 0 LINE",
"714 0 LINE",
"714 714 LINE"
);
},
{
closed = 1;
nodes = (
"101 714 LINE",
"101 0 LINE",
"300 0 LINE SMOOTH",
"452 0 OFFCURVE",
"535 74 OFFCURVE",
"535 205 CURVE SMOOTH",
"535 339 OFFCURVE",
"453 399 OFFCURVE",
"289 399 CURVE SMOOTH",
"151 399 LINE",
"151 714 LINE"
);
},
{
closed = 1;
nodes = (
"282 355 LINE SMOOTH",
"423 355 OFFCURVE",
"481 311 OFFCURVE",
"481 205 CURVE SMOOTH",
"481 98 OFFCURVE",
"425 44 OFFCURVE",
"292 44 CURVE SMOOTH",
"151 44 LINE",
"151 355 LINE"
);
}
);
width = 815;
}
);
note = afii10045;
unicode = 042B;
},
{
glyphname = afii10046;
lastChange = "2018-06-23 23:46:14 +0000";
layers = (
{
layerId = "A772B137-1B4D-4AF9-A163-8433B0F153CB";
paths = (
{
closed = 1;
nodes = (
"101 714 LINE",
"101 0 LINE",
"306 0 LINE SMOOTH",
"458 0 OFFCURVE",
"541 73 OFFCURVE",
"541 205 CURVE SMOOTH",
"541 339 OFFCURVE",
"459 399 OFFCURVE",
"295 399 CURVE SMOOTH",
"151 399 LINE",
"151 714 LINE"
);
},
{
closed = 1;
nodes = (
"288 355 LINE SMOOTH",
"428 355 OFFCURVE",
"487 313 OFFCURVE",
"487 205 CURVE SMOOTH",
"487 94 OFFCURVE",
"426 44 OFFCURVE",
"298 44 CURVE SMOOTH",
"151 44 LINE",
"151 355 LINE"
);
}
);
width = 595;
}
);
note = afii10046;
unicode = 042C;
},
{
glyphname = afii10047;
lastChange = "2018-06-23 23:46:14 +0000";
layers = (
{
anchors = (
{
name = top;
position = "{309, 714}";
}
);
layerId = "A772B137-1B4D-4AF9-A163-8433B0F153CB";
paths = (
{
closed = 1;
nodes = (
"384 679 OFFCURVE",
"487 578 OFFCURVE",
"501 397 CURVE",
"124 397 LINE",
"124 351 LINE",
"502 351 LINE",
"493 151 OFFCURVE",
"388 36 OFFCURVE",
"212 36 CURVE SMOOTH",
"148 36 OFFCURVE",
"88 44 OFFCURVE",
"34 61 CURVE",
"34 15 LINE",
"82 -1 OFFCURVE",
"144 -10 OFFCURVE",
"221 -10 CURVE SMOOTH",
"288 -10 OFFCURVE",
"347 6 OFFCURVE",
"398 37 CURVE SMOOTH",
"500 99 OFFCURVE",
"555 218 OFFCURVE",
"555 374 CURVE SMOOTH",
"555 591 OFFCURVE",
"428 724 OFFCURVE",
"217 724 CURVE SMOOTH",
"150 724 OFFCURVE",
"90 711 OFFCURVE",
"37 686 CURVE",
"57 641 LINE",
"114 669 OFFCURVE",
"160 679 OFFCURVE",
"212 679 CURVE SMOOTH"
);
}
);
width = 618;
}
);
note = afii10047;
unicode = 042D;
},
{
glyphname = afii10048;
lastChange = "2018-06-23 23:46:14 +0000";
layers = (
{
anchors = (
{
name = top;
position = "{514, 714}";
}
);
layerId = "A772B137-1B4D-4AF9-A163-8433B0F153CB";
paths = (
{
closed = 1;
nodes = (
"965 585 OFFCURVE",
"851 725 OFFCURVE",
"660 725 CURVE SMOOTH",
"480 725 OFFCURVE",
"366 600 OFFCURVE",
"354 397 CURVE",
"151 397 LINE",
"151 714 LINE",
"101 714 LINE",
"101 0 LINE",
"151 0 LINE",
"151 351 LINE",
"353 351 LINE",
"354 130 OFFCURVE",
"468 -10 OFFCURVE",
"659 -10 CURVE SMOOTH",
"851 -10 OFFCURVE",
"965 131 OFFCURVE",
"965 358 CURVE SMOOTH"
);
},
{
closed = 1;
nodes = (
"407 562 OFFCURVE",
"499 677 OFFCURVE",
"660 677 CURVE SMOOTH",
"822 677 OFFCURVE",
"911 563 OFFCURVE",
"911 358 CURVE SMOOTH",
"911 152 OFFCURVE",
"822 37 OFFCURVE",
"659 37 CURVE SMOOTH",
"497 37 OFFCURVE",
"407 154 OFFCURVE",
"407 358 CURVE SMOOTH"
);
}
);
width = 1028;
}
);
note = afii10048;
unicode = 042E;
},
{
glyphname = afii10049;
lastChange = "2018-06-23 23:46:14 +0000";
layers = (
{
anchors = (
{
name = top;
position = "{293, 714}";
}
);
layerId = "A772B137-1B4D-4AF9-A163-8433B0F153CB";
paths = (
{
closed = 1;
nodes = (
"436 0 LINE",
"486 0 LINE",
"486 714 LINE",
"316 714 LINE SMOOTH",
"145 714 OFFCURVE",
"59 646 OFFCURVE",
"59 509 CURVE SMOOTH",
"59 409 OFFCURVE",
"116 340 OFFCURVE",
"216 321 CURVE",
"15 0 LINE",
"75 0 LINE",
"266 311 LINE",
"436 311 LINE"
);
},
{
closed = 1;
nodes = (
"301 354 LINE SMOOTH",
"178 354 OFFCURVE",
"113 407 OFFCURVE",
"113 511 CURVE SMOOTH",
"113 622 OFFCURVE",
"174 669 OFFCURVE",
"318 669 CURVE SMOOTH",
"436 669 LINE",
"436 354 LINE"
);
}
);
width = 587;
}
);
note = afii10049;
unicode = 042F;
},
{
glyphname = afii10066;
lastChange = "2018-06-23 23:46:14 +0000";
layers = (
{
layerId = "A772B137-1B4D-4AF9-A163-8433B0F153CB";
paths = (
{
closed = 1;
nodes = (
"60 108 OFFCURVE",
"144 -10 OFFCURVE",
"290 -10 CURVE SMOOTH",
"434 -10 OFFCURVE",
"517 87 OFFCURVE",
"517 252 CURVE SMOOTH",
"517 407 OFFCURVE",
"446 494 OFFCURVE",
"316 494 CURVE SMOOTH",
"246 494 OFFCURVE",
"183 461 OFFCURVE",
"113 379 CURVE",
"110 379 LINE",
"117 546 OFFCURVE",
"168 643 OFFCURVE",
"256 668 CURVE SMOOTH",
"287 678 OFFCURVE",
"351 692 OFFCURVE",
"447 710 CURVE SMOOTH",
"506 721 LINE",
"497 763 LINE",
"465 757 OFFCURVE",
"428 750 OFFCURVE",
"386 742 CURVE SMOOTH",
"344 734 OFFCURVE",
"300 724 OFFCURVE",
"255 713 CURVE SMOOTH",
"125 681 OFFCURVE",
"60 549 OFFCURVE",
"60 319 CURVE SMOOTH"
);
},
{
closed = 1;
nodes = (
"255 34 OFFCURVE",
"222 45 OFFCURVE",
"194 66 CURVE SMOOTH",
"139 108 OFFCURVE",
"109 200 OFFCURVE",
"109 317 CURVE",
"162 400 OFFCURVE",
"235 450 OFFCURVE",
"311 450 CURVE SMOOTH",
"413 450 OFFCURVE",
"466 382 OFFCURVE",
"466 250 CURVE SMOOTH",
"466 111 OFFCURVE",
"405 34 OFFCURVE",
"294 34 CURVE SMOOTH"
);
}
);
width = 574;
}
);
note = afii10066;
unicode = 0431;
},
{
glyphname = afii10067;
lastChange = "2018-06-23 23:46:14 +0000";
layers = (
{
layerId = "A772B137-1B4D-4AF9-A163-8433B0F153CB";
paths = (
{
closed = 1;
nodes = (
"496 486 OFFCURVE",
"435 531 OFFCURVE",
"314 531 CURVE SMOOTH",
"89 531 LINE",
"89 0 LINE",
"313 0 LINE SMOOTH",
"442 0 OFFCURVE",
"511 57 OFFCURVE",
"511 159 CURVE SMOOTH",
"511 233 OFFCURVE",
"476 271 OFFCURVE",
"390 281 CURVE",
"390 284 LINE",
"465 299 OFFCURVE",
"496 336 OFFCURVE",
"496 403 CURVE SMOOTH"
);
},
{
closed = 1;
nodes = (
"460 84 OFFCURVE",
"412 46 OFFCURVE",
"317 46 CURVE SMOOTH",
"137 46 LINE",
"137 258 LINE",
"310 258 LINE SMOOTH",
"410 258 OFFCURVE",
"460 225 OFFCURVE",
"460 160 CURVE SMOOTH"
);
},
{
closed = 1;
nodes = (
"445 333 OFFCURVE",
"405 303 OFFCURVE",
"306 303 CURVE SMOOTH",
"137 303 LINE",
"137 485 LINE",
"312 485 LINE SMOOTH",
"400 485 OFFCURVE",
"445 461 OFFCURVE",
"445 399 CURVE SMOOTH"
);
}
);
width = 566;
}
);
note = afii10067;
unicode = 0432;
},
{
glyphname = afii10068;
lastChange = "2018-06-23 23:46:14 +0000";
layers = (
{
anchors = (
{
name = bottomright;
position = "{411, 0}";
},
{
name = top;
position = "{210, 531}";
}
);
layerId = "A772B137-1B4D-4AF9-A163-8433B0F153CB";
paths = (
{
closed = 1;
nodes = (
"89 531 LINE",
"89 0 LINE",
"137 0 LINE",
"137 489 LINE",
"401 489 LINE",
"401 531 LINE"
);
}
);
width = 421;
}
);
note = afii10068;
unicode = 0433;
},
{
glyphname = afii10069;
lastChange = "2018-06-23 23:46:14 +0000";
layers = (
{
layerId = "A772B137-1B4D-4AF9-A163-8433B0F153CB";
paths = (
{
closed = 1;
nodes = (
"451 46 LINE",
"451 531 LINE",
"196 531 LINE",
"193 337 OFFCURVE",
"144 170 OFFCURVE",
"55 46 CURVE",
"20 46 LINE",
"20 -180 LINE",
"68 -180 LINE",
"68 0 LINE",
"474 0 LINE",
"474 -180 LINE",
"522 -180 LINE",
"522 46 LINE"
);
},
{
closed = 1;
nodes = (
"188 163 OFFCURVE",
"230 310 OFFCURVE",
"238 486 CURVE",
"403 486 LINE",
"403 46 LINE",
"110 46 LINE"
);
}
);
width = 546;
}
);
note = afii10069;
unicode = 0434;
},
{
glyphname = afii10072;
lastChange = "2018-06-23 23:46:14 +0000";
layers = (
{
anchors = (
{
name = bottomright;
position = "{655, 0}";
},
{
name = top;
position = "{333, 531}";
}
);
layerId = "A772B137-1B4D-4AF9-A163-8433B0F153CB";
paths = (
{
closed = 1;
nodes = (
"80 531 LINE",
"21 531 LINE",
"250 271 LINE",
"3 0 LINE",
"65 0 LINE",
"308 269 LINE",
"308 0 LINE",
"357 0 LINE",
"357 269 LINE",
"600 0 LINE",
"662 0 LINE",
"414 273 LINE",
"644 531 LINE",
"585 531 LINE",
"357 273 LINE",
"357 531 LINE",
"308 531 LINE",
"308 273 LINE"
);
}
);
width = 665;
}
);
note = afii10072;
unicode = 0436;
},
{
glyphname = afii10073;
lastChange = "2018-06-23 23:46:14 +0000";
layers = (
{
anchors = (
{
name = bottom;
position = "{226, 0}";
},
{
name = top;
position = "{226, 531}";
}
);
layerId = "A772B137-1B4D-4AF9-A163-8433B0F153CB";
paths = (
{
closed = 1;
nodes = (
"123 260 LINE",
"197 260 LINE SMOOTH",
"300 260 OFFCURVE",
"351 226 OFFCURVE",
"351 152 CURVE SMOOTH",
"351 76 OFFCURVE",
"294 34 OFFCURVE",
"198 34 CURVE SMOOTH",
"143 34 OFFCURVE",
"100 43 OFFCURVE",
"33 75 CURVE",
"33 27 LINE",
"70 5 OFFCURVE",
"129 -10 OFFCURVE",
"198 -10 CURVE SMOOTH",
"326 -10 OFFCURVE",
"402 51 OFFCURVE",
"402 149 CURVE SMOOTH",
"402 219 OFFCURVE",
"368 265 OFFCURVE",
"289 284 CURVE",
"289 287 LINE",
"352 304 OFFCURVE",
"384 343 OFFCURVE",
"384 405 CURVE SMOOTH",
"384 490 OFFCURVE",
"323 541 OFFCURVE",
"207 541 CURVE SMOOTH",
"154 541 OFFCURVE",
"99 528 OFFCURVE",
"42 503 CURVE",
"60 463 LINE",
"111 486 OFFCURVE",
"153 498 OFFCURVE",
"205 498 CURVE SMOOTH",
"287 498 OFFCURVE",
"333 464 OFFCURVE",
"333 401 CURVE SMOOTH",
"333 335 OFFCURVE",
"285 302 OFFCURVE",
"189 302 CURVE SMOOTH",
"123 302 LINE"
);
}
);
width = 452;
}
);
note = afii10073;
unicode = 0437;
},
{
glyphname = afii10074;
lastChange = "2018-06-23 23:46:14 +0000";
layers = (
{
anchors = (
{
name = bottomright;
position = "{590, 0}";
},
{
name = top;
position = "{300, 531}";
}
);
layerId = "A772B137-1B4D-4AF9-A163-8433B0F153CB";
paths = (
{
closed = 1;
nodes = (
"89 0 LINE",
"152 0 LINE",
"467 484 LINE",
"465 381 LINE",
"465 0 LINE",
"511 0 LINE",
"511 531 LINE",
"447 531 LINE",
"132 47 LINE",
"135 147 LINE",
"135 531 LINE",
"89 531 LINE"
);
}
);
width = 600;
}
);
note = afii10074;
unicode = 0438;
},
{
glyphname = afii10076;
lastChange = "2018-06-23 23:46:14 +0000";
layers = (
{
anchors = (
{
name = bottomright;
position = "{449, 0}";
},
{
name = top;
position = "{229, 531}";
}
);
layerId = "A772B137-1B4D-4AF9-A163-8433B0F153CB";
paths = (
{
closed = 1;
nodes = (
"138 531 LINE",
"89 531 LINE",
"89 0 LINE",
"138 0 LINE",
"138 269 LINE",
"389 0 LINE",
"454 0 LINE",
"199 274 LINE",
"437 531 LINE",
"377 531 LINE",
"138 273 LINE"
);
}
);
width = 459;
}
);
note = afii10076;
unicode = 043A;
},
{
glyphname = afii10077;
lastChange = "2018-06-23 23:46:14 +0000";
layers = (
{
layerId = "A772B137-1B4D-4AF9-A163-8433B0F153CB";
paths = (
{
closed = 1;
nodes = (
"177 531 LINE",
"165 359 OFFCURVE",
"148 234 OFFCURVE",
"125 157 CURVE SMOOTH",
"103 79 OFFCURVE",
"73 40 OFFCURVE",
"36 40 CURVE SMOOTH",
"25 40 OFFCURVE",
"16 41 OFFCURVE",
"10 43 CURVE",
"10 -1 LINE",
"19 -3 OFFCURVE",
"30 -5 OFFCURVE",
"43 -5 CURVE SMOOTH",
"114 -5 OFFCURVE",
"156 57 OFFCURVE",
"185 192 CURVE SMOOTH",
"199 259 OFFCURVE",
"210 357 OFFCURVE",
"220 486 CURVE",
"408 486 LINE",
"408 0 LINE",
"456 0 LINE",
"456 531 LINE"
);
}
);
width = 545;
}
);
note = afii10077;
unicode = 043B;
},
{
glyphname = afii10078;
lastChange = "2018-06-23 23:46:14 +0000";
layers = (
{
layerId = "A772B137-1B4D-4AF9-A163-8433B0F153CB";
paths = (
{
closed = 1;
nodes = (
"328 79 OFFCURVE",
"318 108 OFFCURVE",
"306 140 CURVE SMOOTH",
"153 531 LINE",
"89 531 LINE",
"89 0 LINE",
"133 0 LINE",
"133 474 LINE",
"139 455 OFFCURVE",
"146 437 OFFCURVE",
"151 420 CURVE SMOOTH",
"156 404 OFFCURVE",
"162 388 OFFCURVE",
"168 373 CURVE SMOOTH",
"315 0 LINE",
"358 0 LINE",
"456 251 OFFCURVE",
"509 388 OFFCURVE",
"518 409 CURVE SMOOTH",
"525 431 OFFCURVE",
"533 452 OFFCURVE",
"540 472 CURVE",
"540 0 LINE",
"586 0 LINE",
"586 531 LINE",
"519 531 LINE",
"366 137 LINE",
"336 52 LINE"
);
}
);
width = 675;
}
);
note = afii10078;
unicode = 043C;
},
{
glyphname = afii10079;
lastChange = "2018-06-23 23:46:14 +0000";
layers = (
{
anchors = (
{
name = bottomright;
position = "{601, 0}";
}
);
layerId = "A772B137-1B4D-4AF9-A163-8433B0F153CB";
paths = (
{
closed = 1;
nodes = (
"89 0 LINE",
"137 0 LINE",
"137 256 LINE",
"474 256 LINE",
"474 0 LINE",
"522 0 LINE",
"522 531 LINE",
"474 531 LINE",
"474 298 LINE",
"137 298 LINE",
"137 531 LINE",
"89 531 LINE"
);
}
);
width = 611;
}
);
note = afii10079;
unicode = 043D;
},
{
glyphname = afii10081;
lastChange = "2018-06-23 23:46:14 +0000";
layers = (
{
anchors = (
{
name = bottomright;
position = "{591, 0}";
}
);
layerId = "A772B137-1B4D-4AF9-A163-8433B0F153CB";
paths = (
{
closed = 1;
nodes = (
"464 485 LINE",
"464 0 LINE",
"512 0 LINE",
"512 531 LINE",
"89 531 LINE",
"89 0 LINE",
"137 0 LINE",
"137 485 LINE"
);
}
);
width = 601;
}
);
note = afii10081;
unicode = 043F;
},
{
glyphname = afii10084;
lastChange = "2018-06-23 23:46:14 +0000";
layers = (
{
anchors = (
{
name = bottomright;
position = "{436, 0}";
}
);
layerId = "A772B137-1B4D-4AF9-A163-8433B0F153CB";
paths = (
{
closed = 1;
nodes = (
"20 531 LINE",
"20 489 LINE",
"201 489 LINE",
"201 0 LINE",
"249 0 LINE",
"249 489 LINE",
"426 489 LINE",
"426 531 LINE"
);
}
);
width = 446;
}
);
note = afii10084;
unicode = 0442;
},
{
glyphname = afii10086;
lastChange = "2018-06-23 23:46:14 +0000";
layers = (
{
layerId = "A772B137-1B4D-4AF9-A163-8433B0F153CB";
paths = (
{
closed = 1;
nodes = (
"612 430 OFFCURVE",
"520 529 OFFCURVE",
"360 541 CURVE",
"360 760 LINE",
"312 760 LINE",
"312 541 LINE",
"150 529 OFFCURVE",
"58 430 OFFCURVE",
"58 266 CURVE SMOOTH",
"58 100 OFFCURVE",
"153 0 OFFCURVE",
"312 -10 CURVE",
"312 -240 LINE",
"360 -240 LINE",
"360 -10 LINE",
"520 2 OFFCURVE",
"612 103 OFFCURVE",
"612 266 CURVE SMOOTH"
);
},
{
closed = 1;
nodes = (
"109 403 OFFCURVE",
"179 485 OFFCURVE",
"312 496 CURVE",
"312 35 LINE",
"183 45 OFFCURVE",
"109 127 OFFCURVE",
"109 266 CURVE SMOOTH"
);
},
{
closed = 1;
nodes = (
"561 132 OFFCURVE",
"490 46 OFFCURVE",
"360 35 CURVE",
"360 496 LINE",
"489 485 OFFCURVE",
"561 402 OFFCURVE",
"561 266 CURVE SMOOTH"
);
}
);
width = 670;
}
);
note = afii10086;
unicode = 0444;
},
{
glyphname = afii10088;
lastChange = "2018-06-23 23:46:14 +0000";
layers = (
{
layerId = "A772B137-1B4D-4AF9-A163-8433B0F153CB";
paths = (
{
closed = 1;
nodes = (
"502 46 LINE",
"502 531 LINE",
"454 531 LINE",
"454 46 LINE",
"137 46 LINE",
"137 531 LINE",
"89 531 LINE",
"89 0 LINE",
"525 0 LINE",
"525 -180 LINE",
"573 -180 LINE",
"573 46 LINE"
);
}
);
width = 597;
}
);
note = afii10088;
unicode = 0446;
},
{
glyphname = afii10089;
lastChange = "2018-06-23 23:46:14 +0000";
layers = (
{
anchors = (
{
name = bottomright;
position = "{570, 0}";
},
{
name = top;
position = "{290, 531}";
}
);
layerId = "A772B137-1B4D-4AF9-A163-8433B0F153CB";
paths = (
{
closed = 1;
nodes = (
"80 347 LINE SMOOTH",
"80 240 OFFCURVE",
"136 182 OFFCURVE",
"245 182 CURVE SMOOTH",
"318 182 OFFCURVE",
"378 202 OFFCURVE",
"443 252 CURVE",
"443 0 LINE",
"491 0 LINE",
"491 531 LINE",
"443 531 LINE",
"443 298 LINE",
"380 248 OFFCURVE",
"325 226 OFFCURVE",
"261 226 CURVE SMOOTH",
"171 226 OFFCURVE",
"128 263 OFFCURVE",
"128 353 CURVE SMOOTH",
"128 531 LINE",
"80 531 LINE"
);
}
);
width = 580;
}
);
note = afii10089;
unicode = 0447;
},
{
glyphname = afii10090;
lastChange = "2018-06-23 23:46:14 +0000";
layers = (
{
layerId = "A772B137-1B4D-4AF9-A163-8433B0F153CB";
paths = (
{
closed = 1;
nodes = (
"402 531 LINE",
"402 46 LINE",
"137 46 LINE",
"137 531 LINE",
"89 531 LINE",
"89 0 LINE",
"763 0 LINE",
"763 531 LINE",
"715 531 LINE",
"715 46 LINE",
"450 46 LINE",
"450 531 LINE"
);
}
);
width = 852;
}
);
note = afii10090;
unicode = 0448;
},
{
glyphname = afii10091;
lastChange = "2018-06-23 23:46:14 +0000";
layers = (
{
layerId = "A772B137-1B4D-4AF9-A163-8433B0F153CB";
paths = (
{
closed = 1;
nodes = (
"402 531 LINE",
"402 46 LINE",
"137 46 LINE",
"137 531 LINE",
"89 531 LINE",
"89 0 LINE",
"786 0 LINE",
"786 -180 LINE",
"834 -180 LINE",
"834 46 LINE",
"763 46 LINE",
"763 531 LINE",
"715 531 LINE",
"715 46 LINE",
"450 46 LINE",
"450 531 LINE"
);
}
);
width = 858;
}
);
note = afii10091;
unicode = 0449;
},
{
glyphname = afii10092;
lastChange = "2018-06-23 23:46:14 +0000";
layers = (
{
layerId = "A772B137-1B4D-4AF9-A163-8433B0F153CB";
paths = (
{
closed = 1;
nodes = (
"20 531 LINE",
"20 489 LINE",
"181 489 LINE",
"181 0 LINE",
"386 0 LINE SMOOTH",
"516 0 OFFCURVE",
"588 59 OFFCURVE",
"588 160 CURVE SMOOTH",
"588 258 OFFCURVE",
"525 307 OFFCURVE",
"401 307 CURVE SMOOTH",
"229 307 LINE",
"229 531 LINE"
);
},
{
closed = 1;
nodes = (
"499 261 OFFCURVE",
"537 231 OFFCURVE",
"537 162 CURVE SMOOTH",
"537 88 OFFCURVE",
"488 46 OFFCURVE",
"394 46 CURVE SMOOTH",
"229 46 LINE",
"229 261 LINE",
"391 261 LINE SMOOTH"
);
}
);
width = 646;
}
);
note = afii10092;
unicode = 044A;
},
{
glyphname = afii10093;
lastChange = "2018-06-23 23:46:14 +0000";
layers = (
{
anchors = (
{
name = top;
position = "{362, 531}";
}
);
layerId = "A772B137-1B4D-4AF9-A163-8433B0F153CB";
paths = (
{
closed = 1;
nodes = (
"89 531 LINE",
"89 0 LINE",
"291 0 LINE SMOOTH",
"421 0 OFFCURVE",
"493 59 OFFCURVE",
"493 160 CURVE SMOOTH",
"493 258 OFFCURVE",
"431 307 OFFCURVE",
"306 307 CURVE SMOOTH",
"137 307 LINE",
"137 531 LINE"
);
},
{
closed = 1;
nodes = (
"403 261 OFFCURVE",
"442 231 OFFCURVE",
"442 161 CURVE SMOOTH",
"442 84 OFFCURVE",
"391 46 OFFCURVE",
"299 46 CURVE SMOOTH",
"137 46 LINE",
"137 261 LINE",
"296 261 LINE SMOOTH"
);
},
{
closed = 1;
nodes = (
"586 531 LINE",
"586 0 LINE",
"634 0 LINE",
"634 531 LINE"
);
}
);
width = 723;
}
);
note = afii10093;
unicode = 044B;
},
{
glyphname = afii10094;
lastChange = "2018-06-23 23:46:14 +0000";
layers = (
{
layerId = "A772B137-1B4D-4AF9-A163-8433B0F153CB";
paths = (
{
closed = 1;
nodes = (
"89 531 LINE",
"89 0 LINE",
"309 0 LINE SMOOTH",
"439 0 OFFCURVE",
"511 59 OFFCURVE",
"511 160 CURVE SMOOTH",
"511 258 OFFCURVE",
"449 307 OFFCURVE",
"324 307 CURVE SMOOTH",
"137 307 LINE",
"137 531 LINE"
);
},
{
closed = 1;
nodes = (
"421 261 OFFCURVE",
"460 231 OFFCURVE",
"460 161 CURVE SMOOTH",
"460 85 OFFCURVE",
"409 46 OFFCURVE",
"317 46 CURVE SMOOTH",
"137 46 LINE",
"137 261 LINE",
"314 261 LINE SMOOTH"
);
}
);
width = 569;
}
);
note = afii10094;
unicode = 044C;
},
{
glyphname = afii10095;
lastChange = "2018-06-23 23:46:14 +0000";
layers = (
{
anchors = (
{
name = top;
position = "{246, 531}";
}
);
layerId = "A772B137-1B4D-4AF9-A163-8433B0F153CB";
paths = (
{
closed = 1;
nodes = (
"335 -10 OFFCURVE",
"433 97 OFFCURVE",
"433 272 CURVE SMOOTH",
"433 443 OFFCURVE",
"343 541 OFFCURVE",
"184 541 CURVE SMOOTH",
"139 541 OFFCURVE",
"78 526 OFFCURVE",
"41 511 CURVE",
"55 468 LINE",
"107 487 OFFCURVE",
"150 497 OFFCURVE",
"185 497 CURVE SMOOTH",
"302 497 OFFCURVE",
"370 430 OFFCURVE",
"381 302 CURVE",
"80 302 LINE",
"80 259 LINE",
"383 259 LINE",
"381 122 OFFCURVE",
"299 34 OFFCURVE",
"172 34 CURVE SMOOTH",
"121 34 OFFCURVE",
"75 43 OFFCURVE",
"33 60 CURVE",
"33 15 LINE",
"59 1 OFFCURVE",
"115 -10 OFFCURVE",
"175 -10 CURVE SMOOTH"
);
}
);
width = 491;
}
);
note = afii10095;
unicode = 044D;
},
{
glyphname = afii10096;
lastChange = "2018-06-23 23:46:14 +0000";
layers = (
{
anchors = (
{
name = top;
position = "{399, 531}";
}
);
layerId = "A772B137-1B4D-4AF9-A163-8433B0F153CB";
paths = (
{
closed = 1;
nodes = (
"740 437 OFFCURVE",
"658 541 OFFCURVE",
"525 541 CURVE SMOOTH",
"398 541 OFFCURVE",
"318 451 OFFCURVE",
"309 298 CURVE",
"137 298 LINE",
"137 531 LINE",
"89 531 LINE",
"89 0 LINE",
"137 0 LINE",
"137 256 LINE",
"308 256 LINE",
"310 93 OFFCURVE",
"395 -10 OFFCURVE",
"522 -10 CURVE SMOOTH",
"657 -10 OFFCURVE",
"740 93 OFFCURVE",
"740 266 CURVE SMOOTH"
);
},
{
closed = 1;
nodes = (
"359 413 OFFCURVE",
"418 497 OFFCURVE",
"523 497 CURVE SMOOTH",
"628 497 OFFCURVE",
"689 412 OFFCURVE",
"689 266 CURVE SMOOTH",
"689 121 OFFCURVE",
"629 34 OFFCURVE",
"524 34 CURVE SMOOTH",
"419 34 OFFCURVE",
"359 120 OFFCURVE",
"359 266 CURVE SMOOTH"
);
}
);
width = 798;
}
);
note = afii10096;
unicode = 044E;
},
{
glyphname = afii10097;
lastChange = "2018-06-23 23:46:14 +0000";
layers = (
{
anchors = (
{
name = top;
position = "{265, 531}";
}
);
layerId = "A772B137-1B4D-4AF9-A163-8433B0F153CB";
paths = (
{
closed = 1;
nodes = (
"392 223 LINE",
"392 0 LINE",
"440 0 LINE",
"440 531 LINE",
"221 531 LINE SMOOTH",
"112 531 OFFCURVE",
"42 471 OFFCURVE",
"42 375 CURVE SMOOTH",
"42 297 OFFCURVE",
"83 247 OFFCURVE",
"180 229 CURVE",
"20 0 LINE",
"81 0 LINE",
"230 223 LINE"
);
},
{
closed = 1;
nodes = (
"93 447 OFFCURVE",
"140 485 OFFCURVE",
"220 485 CURVE SMOOTH",
"392 485 LINE",
"392 269 LINE",
"235 269 LINE SMOOTH",
"140 269 OFFCURVE",
"93 304 OFFCURVE",
"93 377 CURVE SMOOTH"
);
}
);
width = 529;
}
);
note = afii10097;
unicode = 044F;
},
{
glyphname = afii10099;
lastChange = "2018-06-23 23:46:14 +0000";
layers = (
{
layerId = "A772B137-1B4D-4AF9-A163-8433B0F153CB";
paths = (
{
closed = 1;
nodes = (
"465 -240 OFFCURVE",
"507 -190 OFFCURVE",
"507 -103 CURVE SMOOTH",
"507 332 LINE SMOOTH",
"507 461 OFFCURVE",
"447 526 OFFCURVE",
"326 526 CURVE SMOOTH",
"236 526 OFFCURVE",
"178 499 OFFCURVE",
"138 435 CURVE",
"135 435 LINE",
"137 503 LINE",
"137 621 LINE",
"368 621 LINE",
"368 661 LINE",
"137 661 LINE",
"137 760 LINE",
"89 760 LINE",
"89 661 LINE",
"13 661 LINE",
"13 621 LINE",
"89 621 LINE",
"89 0 LINE",
"137 0 LINE",
"137 278 LINE SMOOTH",
"137 422 OFFCURVE",
"192 482 OFFCURVE",
"321 482 CURVE SMOOTH",
"416 482 OFFCURVE",
"459 436 OFFCURVE",
"459 329 CURVE SMOOTH",
"459 -110 LINE SMOOTH",
"459 -167 OFFCURVE",
"434 -196 OFFCURVE",
"385 -196 CURVE SMOOTH",
"365 -196 OFFCURVE",
"344 -192 OFFCURVE",
"322 -186 CURVE",
"322 -228 LINE",
"340 -236 OFFCURVE",
"362 -240 OFFCURVE",
"388 -240 CURVE SMOOTH"
);
}
);
width = 590;
}
);
note = afii10099;
unicode = 0452;
},
{
glyphname = afii10101;
lastChange = "2018-06-23 23:46:14 +0000";
layers = (
{
layerId = "A772B137-1B4D-4AF9-A163-8433B0F153CB";
paths = (
{
closed = 1;
nodes = (
"362 -10 OFFCURVE",
"414 0 OFFCURVE",
"444 15 CURVE",
"444 60 LINE",
"402 43 OFFCURVE",
"356 34 OFFCURVE",
"305 34 CURVE SMOOTH",
"186 34 OFFCURVE",
"109 118 OFFCURVE",
"108 259 CURVE",
"415 259 LINE",
"415 302 LINE",
"110 302 LINE",
"121 425 OFFCURVE",
"191 497 OFFCURVE",
"312 497 CURVE SMOOTH",
"343 497 OFFCURVE",
"397 488 OFFCURVE",
"436 474 CURVE",
"450 517 LINE",
"413 532 OFFCURVE",
"354 541 OFFCURVE",
"313 541 CURVE SMOOTH",
"156 541 OFFCURVE",
"58 435 OFFCURVE",
"58 262 CURVE SMOOTH",
"58 94 OFFCURVE",
"152 -10 OFFCURVE",
"306 -10 CURVE SMOOTH"
);
}
);
width = 485;
}
);
note = afii10101;
unicode = 0454;
},
{
glyphname = afii10106;
lastChange = "2018-06-23 23:46:14 +0000";
layers = (
{
layerId = "A772B137-1B4D-4AF9-A163-8433B0F153CB";
paths = (
{
closed = 1;
nodes = (
"177 531 LINE",
"165 354 OFFCURVE",
"147 228 OFFCURVE",
"125 153 CURVE SMOOTH",
"102 78 OFFCURVE",
"72 40 OFFCURVE",
"35 40 CURVE SMOOTH",
"25 40 OFFCURVE",
"16 41 OFFCURVE",
"10 43 CURVE",
"10 -1 LINE",
"19 -3 OFFCURVE",
"29 -5 OFFCURVE",
"41 -5 CURVE SMOOTH",
"113 -5 OFFCURVE",
"157 55 OFFCURVE",
"185 191 CURVE SMOOTH",
"199 259 OFFCURVE",
"211 357 OFFCURVE",
"220 486 CURVE",
"373 486 LINE",
"373 0 LINE",
"545 0 LINE SMOOTH",
"682 0 OFFCURVE",
"750 53 OFFCURVE",
"750 158 CURVE SMOOTH",
"750 258 OFFCURVE",
"693 303 OFFCURVE",
"560 303 CURVE SMOOTH",
"421 303 LINE",
"421 531 LINE"
);
},
{
closed = 1;
nodes = (
"593 257 OFFCURVE",
"625 254 OFFCURVE",
"644 248 CURVE SMOOTH",
"682 235 OFFCURVE",
"699 208 OFFCURVE",
"699 160 CURVE SMOOTH",
"699 83 OFFCURVE",
"653 46 OFFCURVE",
"553 46 CURVE SMOOTH",
"421 46 LINE",
"421 257 LINE",
"550 257 LINE SMOOTH"
);
}
);
width = 808;
}
);
note = afii10106;
unicode = 0459;
},
{
glyphname = afii10107;
lastChange = "2018-06-23 23:46:14 +0000";
layers = (
{
layerId = "A772B137-1B4D-4AF9-A163-8433B0F153CB";
paths = (
{
closed = 1;
nodes = (
"424 303 LINE",
"137 303 LINE",
"137 531 LINE",
"89 531 LINE",
"89 0 LINE",
"137 0 LINE",
"137 257 LINE",
"424 257 LINE",
"424 0 LINE",
"601 0 LINE SMOOTH",
"731 0 OFFCURVE",
"801 53 OFFCURVE",
"801 158 CURVE SMOOTH",
"801 259 OFFCURVE",
"744 303 OFFCURVE",
"616 303 CURVE SMOOTH",
"472 303 LINE",
"472 531 LINE",
"424 531 LINE"
);
},
{
closed = 1;
nodes = (
"646 257 OFFCURVE",
"675 254 OFFCURVE",
"694 248 CURVE SMOOTH",
"732 235 OFFCURVE",
"750 208 OFFCURVE",
"750 159 CURVE SMOOTH",
"750 79 OFFCURVE",
"701 46 OFFCURVE",
"609 46 CURVE SMOOTH",
"472 46 LINE",
"472 257 LINE",
"606 257 LINE SMOOTH"
);
}
);
width = 859;
}
);
note = afii10107;
unicode = 045A;
},
{
glyphname = afii10193;
lastChange = "2018-06-23 23:46:14 +0000";
layers = (
{
layerId = "A772B137-1B4D-4AF9-A163-8433B0F153CB";
paths = (
{
closed = 1;
nodes = (
"325 -180 LINE",
"325 0 LINE",
"512 0 LINE",
"512 531 LINE",
"464 531 LINE",
"464 46 LINE",
"137 46 LINE",
"137 531 LINE",
"89 531 LINE",
"89 0 LINE",
"277 0 LINE",
"277 -180 LINE"
);
}
);
width = 601;
}
);
note = afii10193;
unicode = 045F;
},
{
glyphname = afii10050;
lastChange = "2018-06-23 23:46:14 +0000";
layers = (
{
layerId = "A772B137-1B4D-4AF9-A163-8433B0F153CB";
paths = (
{
closed = 1;
nodes = (
"101 0 LINE",
"151 0 LINE",
"151 668 LINE",
"492 668 LINE",
"492 861 LINE",
"444 861 LINE",
"444 714 LINE",
"101 714 LINE"
);
}
);
width = 502;
}
);
note = afii10050;
unicode = 0490;
},
{
glyphname = afii10098;
lastChange = "2018-06-23 23:46:14 +0000";
layers = (
{
layerId = "A772B137-1B4D-4AF9-A163-8433B0F153CB";
paths = (
{
closed = 1;
nodes = (
"354 692 LINE",
"354 531 LINE",
"89 531 LINE",
"89 0 LINE",
"137 0 LINE",
"137 489 LINE",
"401 489 LINE",
"401 692 LINE"
);
}
);
width = 421;
}
);
note = afii10098;
unicode = 0491;
},
{
glyphname = endash;
lastChange = "2018-06-23 23:46:14 +0000";
layers = (
{
layerId = "A772B137-1B4D-4AF9-A163-8433B0F153CB";
paths = (
{
closed = 1;
nodes = (
"460 290 LINE",
"40 290 LINE",
"40 250 LINE",
"460 250 LINE"
);
}
);
width = 500;
}
);
note = endash;
unicode = 2013;
},
{
glyphname = emdash;
lastChange = "2018-06-23 23:46:14 +0000";
layers = (
{
layerId = "A772B137-1B4D-4AF9-A163-8433B0F153CB";
paths = (
{
closed = 1;
nodes = (
"960 290 LINE",
"40 290 LINE",
"40 250 LINE",
"960 250 LINE"
);
}
);
width = 1000;
}
);
note = emdash;
unicode = 2014;
},
{
glyphname = quoteleft;
lastChange = "2018-06-23 23:46:14 +0000";
layers = (
{
layerId = "A772B137-1B4D-4AF9-A163-8433B0F153CB";
paths = (
{
closed = 1;
nodes = (
"84 526 OFFCURVE",
"111 648 OFFCURVE",
"131 714 CURVE",
"99 714 LINE",
"71 655 OFFCURVE",
"35 552 OFFCURVE",
"14 479 CURVE",
"20 469 LINE",
"77 469 LINE"
);
}
);
width = 145;
}
);
note = quoteleft;
unicode = 2018;
},
{
glyphname = quoteright;
lastChange = "2018-06-23 23:46:14 +0000";
layers = (
{
layerId = "A772B137-1B4D-4AF9-A163-8433B0F153CB";
paths = (
{
closed = 1;
nodes = (
"57 640 OFFCURVE",
"33 532 OFFCURVE",
"14 469 CURVE",
"46 469 LINE",
"78 540 OFFCURVE",
"106 618 OFFCURVE",
"131 704 CURVE",
"125 714 LINE",
"68 714 LINE"
);
}
);
width = 145;
}
);
note = quoteright;
unicode = 2019;
},
{
glyphname = quotereversed;
lastChange = "2018-06-23 23:46:14 +0000";
layers = (
{
layerId = "A772B137-1B4D-4AF9-A163-8433B0F153CB";
paths = (
{
closed = 1;
nodes = (
"14 704 LINE",
"37 624 OFFCURVE",
"73 524 OFFCURVE",
"99 469 CURVE",
"131 469 LINE",
"111 536 OFFCURVE",
"84 657 OFFCURVE",
"77 714 CURVE",
"20 714 LINE"
);
}
);
width = 145;
}
);
note = quotereversed;
unicode = 201B;
},
{
glyphname = quotedblleft;
lastChange = "2018-06-23 23:46:14 +0000";
layers = (
{
layerId = "A772B137-1B4D-4AF9-A163-8433B0F153CB";
paths = (
{
closed = 1;
nodes = (
"242 536 OFFCURVE",
"267 650 OFFCURVE",
"286 714 CURVE",
"254 714 LINE",
"227 655 OFFCURVE",
"191 557 OFFCURVE",
"169 479 CURVE",
"175 469 LINE",
"232 469 LINE"
);
},
{
closed = 1;
nodes = (
"84 526 OFFCURVE",
"111 648 OFFCURVE",
"131 714 CURVE",
"99 714 LINE",
"71 655 OFFCURVE",
"35 552 OFFCURVE",
"14 479 CURVE",
"20 469 LINE",
"77 469 LINE"
);
}
);
width = 300;
}
);
note = quotedblleft;
unicode = 201C;
},
{
glyphname = quotedblright;
lastChange = "2018-06-23 23:46:14 +0000";
layers = (
{
layerId = "A772B137-1B4D-4AF9-A163-8433B0F153CB";
paths = (
{
closed = 1;
nodes = (
"57 640 OFFCURVE",
"33 532 OFFCURVE",
"14 469 CURVE",
"46 469 LINE",
"78 540 OFFCURVE",
"106 618 OFFCURVE",
"131 704 CURVE",
"125 714 LINE",
"68 714 LINE"
);
},
{
closed = 1;
nodes = (
"213 647 OFFCURVE",
"188 533 OFFCURVE",
"169 469 CURVE",
"201 469 LINE",
"227 526 OFFCURVE",
"263 621 OFFCURVE",
"286 704 CURVE",
"280 714 LINE",
"223 714 LINE"
);
}
);
width = 300;
}
);
note = quotedblright;
unicode = 201D;
},
{
glyphname = dagger;
lastChange = "2018-06-23 23:46:14 +0000";
layers = (
{
layerId = "A772B137-1B4D-4AF9-A163-8433B0F153CB";
paths = (
{
closed = 1;
nodes = (
"256 556 LINE",
"269 760 LINE",
"212 760 LINE",
"225 556 LINE",
"60 570 LINE",
"60 515 LINE",
"225 525 LINE",
"212 0 LINE",
"269 0 LINE",
"256 525 LINE",
"431 515 LINE",
"431 570 LINE"
);
}
);
width = 491;
}
);
note = dagger;
unicode = 2020;
},
{
glyphname = daggerdbl;
lastChange = "2018-06-23 23:46:14 +0000";
layers = (
{
layerId = "A772B137-1B4D-4AF9-A163-8433B0F153CB";
paths = (
{
closed = 1;
nodes = (
"256 527 LINE",
"431 515 LINE",
"431 570 LINE",
"256 558 LINE",
"269 760 LINE",
"212 760 LINE",
"225 558 LINE",
"60 570 LINE",
"60 515 LINE",
"225 527 LINE",
"217 384 LINE",
"225 225 LINE",
"60 237 LINE",
"60 182 LINE",
"225 194 LINE",
"212 0 LINE",
"269 0 LINE",
"256 194 LINE",
"431 182 LINE",
"431 237 LINE",
"256 225 LINE",
"264 384 LINE"
);
}
);
width = 491;
}
);
note = daggerdbl;
unicode = 2021;
},
{
glyphname = bullet;
lastChange = "2018-06-23 23:46:14 +0000";
layers = (
{
layerId = "A772B137-1B4D-4AF9-A163-8433B0F153CB";
paths = (
{
closed = 1;
nodes = (
"113 309 OFFCURVE",
"141 277 OFFCURVE",
"188 277 CURVE SMOOTH",
"235 277 OFFCURVE",
"263 310 OFFCURVE",
"263 365 CURVE SMOOTH",
"263 421 OFFCURVE",
"235 453 OFFCURVE",
"188 453 CURVE SMOOTH",
"141 453 OFFCURVE",
"113 423 OFFCURVE",
"113 365 CURVE SMOOTH"
);
}
);
width = 376;
}
);
note = bullet;
unicode = 2022;
},
